<?xml version="1.0" encoding="UTF-8"?>
<svg width="13px" height="20px" viewBox="0 0 13 20" version="1.1" xmlns="http://www.w3.org/2000/svg" xmlns:xlink="http://www.w3.org/1999/xlink">
    <!-- Generator: sketchtool 61.2 (101010) - https://sketch.com -->
    <title>880B3736-54C8-4B59-AEA5-39DA49FE7B01@1</title>
    <desc>Created with sketchtool.</desc>
    <g id="Details-Page" stroke="none" stroke-width="1" fill="none" fill-rule="evenodd">
        <g id="Details-Page---Syarah-Online---New---Save-Tag" transform="translate(-490.000000, -388.000000)" fill="#FFFFFF" fill-rule="nonzero">
            <g id="burn-(1)" transform="translate(490.000000, 388.000000)">
                <path d="M12.0260011,12.5916011 C11.9392011,11.695801 11.681401,10.760201 11.280401,9.88620088 C10.916601,9.09020081 10.4392009,8.32880074 9.86260088,7.62500068 C9.70060087,7.42620066 9.53600085,7.23580065 9.45100084,7.14800064 L9.25520083,6.93400062 C9.20740082,6.87920062 9.16720082,6.83520061 9.12740082,6.79620061 L9.06880081,6.7368006 C9.00480081,6.6724006 8.9388008,6.60560059 8.88400079,6.53880058 C8.87980079,6.53340058 8.87520079,6.52820058 8.87040079,6.52300058 C8.84380079,6.49380058 8.81520079,6.46460058 8.78320079,6.43200058 C8.74160078,6.38980057 8.69440078,6.34280057 8.65240077,6.29000056 C8.64700077,6.28340056 8.64140077,6.27700056 8.63580077,6.27040056 C8.33740075,5.94240053 8.08640072,5.6442005 7.8688007,5.35940048 C7.61400068,5.02400045 7.43400066,4.74660042 7.28440065,4.4574004 C7.11120064,4.12800037 6.98160062,3.76140034 6.89960062,3.3650003 C6.82180061,3.00600027 6.77640061,2.59400023 6.7642006,2.13900019 C6.7522006,1.73500016 6.77680061,1.34680012 6.80220061,1.02300009 C6.82060061,0.807400072 6.84140061,0.616600055 6.86180061,0.44800004 C6.87760061,0.316600028 6.82740061,0.185800017 6.7276006,0.0988000088 C6.62760059,0.011600001 6.49120058,-0.0206000018 6.36340057,0.0132000012 C6.17260055,0.0630000056 5.97700053,0.129000012 5.78340052,0.209000019 C5.37680048,0.374800034 4.97680044,0.605400054 4.59400041,0.89520008 C4.10580037,1.26580011 3.67800033,1.72360015 3.3228003,2.2550002 C2.88680026,2.90440026 2.57820023,3.66820033 2.43080022,4.4612004 C2.2626002,5.33380048 2.2812002,6.31840056 2.48280022,7.23200065 C2.67420024,8.11640073 3.04480027,9.01960081 3.55600032,9.84660088 C3.82620034,10.2772009 4.08520037,10.637201 4.34160039,10.939401 C4.41800039,11.034401 4.62840041,11.280001 4.63060041,11.282801 L4.71460042,11.379001 C4.77340043,11.445601 4.81540043,11.495801 4.85820043,11.547001 C4.89780044,11.594001 4.93040044,11.633001 4.96680044,11.671801 L4.97300044,11.678201 C5.37300048,12.1566011 5.65500051,12.5078011 5.88780053,12.8186011 C6.14500055,13.1606012 6.37120057,13.4922012 6.57900059,13.8318012 C6.80040061,14.1946013 6.95860062,14.5118013 7.07660063,14.8288013 C7.20980064,15.1894014 7.29740065,15.5802014 7.33800066,15.9920014 C7.37540066,16.3544015 7.37560066,16.7608015 7.33900066,17.2320015 C7.30220065,17.6594016 7.23560065,18.0490016 7.18320064,18.3344016 C7.14400064,18.5296017 7.10560064,18.7098017 7.07060063,18.8654017 C7.04100063,18.9972017 7.07960063,19.1352017 7.17380064,19.2320017 C7.25000065,19.3106017 7.35360066,19.3532017 7.46100067,19.3532017 C7.48640067,19.3532017 7.51200067,19.3508017 7.53740067,19.3460017 C7.72520069,19.3092017 7.90600071,19.2612017 8.08500072,19.2004017 C8.50300076,19.0644017 8.9154008,18.8666017 9.30940083,18.6140017 C9.82060088,18.2908016 10.2818009,17.8764016 10.680401,17.3834016 C11.163601,16.7858015 11.541001,16.0684014 11.7716011,15.3094014 C12.0302011,14.4650013 12.1184011,13.5246012 12.0260011,12.5916011 Z" id="Path"></path>
                <path d="M4.18400037,15.0412013 C4.01740036,14.6768013 3.79940034,14.3288013 3.53720032,14.0090013 C3.47120031,13.9280012 3.3914003,13.8350012 3.3524003,13.7946012 L3.26020029,13.6938012 C3.23620029,13.6668012 3.21880029,13.6480012 3.20040029,13.6294012 L3.17520028,13.6040012 C3.14600028,13.5748012 3.11680028,13.5450012 3.09200028,13.5154012 C3.08760028,13.5102012 3.08300028,13.5048012 3.07820028,13.4998012 L3.04360027,13.4638012 C3.02340027,13.4430012 3.00360027,13.4228012 2.98660027,13.4016012 C2.98220027,13.3962012 2.97760027,13.3908012 2.97280027,13.3856012 C2.84100025,13.2410012 2.72760024,13.1064012 2.62780023,12.9762012 C2.54340023,12.8644012 2.44560022,12.7282011 2.35920021,12.5618011 C2.2802002,12.4114011 2.2214002,12.2446011 2.1836002,12.0628011 C2.14840019,11.8994011 2.12780019,11.711401 2.12220019,11.504001 C2.11720019,11.331801 2.12680019,11.169001 2.13460019,11.061601 C2.14480019,10.919801 2.07880019,10.783001 1.96120018,10.702801 C1.84360016,10.6226009 1.69240015,10.6110009 1.56380014,10.672001 C1.41580013,10.742601 1.27040011,10.831401 1.1312001,10.936601 C0.908400081,11.106001 0.713200064,11.314801 0.551600049,11.556801 C0.412800037,11.7634011 0.229400021,12.1062011 0.144400013,12.5628011 C0.067400006,12.9620012 0.0756000068,13.4120012 0.167600015,13.8284012 C0.255000023,14.2326013 0.424200038,14.6452013 0.658400059,15.0242013 C0.78180007,15.2204014 0.89980008,15.3846014 1.01340009,15.5186014 C1.04680009,15.5600014 1.1192001,15.6438014 1.1514001,15.6812014 L1.1508001,15.6818014 L1.18640011,15.7222014 C1.21460011,15.7540014 1.23440011,15.7776014 1.25380011,15.8012014 C1.27060011,15.8218014 1.28500011,15.8388014 1.29840012,15.8528014 L1.30460012,15.8594014 C1.42800013,16.0068014 1.58700014,16.1994014 1.72280015,16.3808015 C1.84080016,16.5374015 1.94380017,16.6886015 2.03800018,16.8432015 C2.13860019,17.0076015 2.2108002,17.1522015 2.2646002,17.2970015 C2.32540021,17.4618016 2.36560021,17.6408016 2.38420021,17.8300016 C2.40120021,17.9950016 2.40120021,18.1806016 2.38480021,18.3930016 C2.37400021,18.5192017 2.35620021,18.6524017 2.33100021,18.8002017 C2.30640021,18.9432017 2.36140021,19.0884017 2.47440022,19.1794017 C2.54660023,19.2372017 2.63540024,19.2674017 2.72520024,19.2674017 C2.77580025,19.2674017 2.82700025,19.2578017 2.87540026,19.2382017 C3.01460027,19.1816017 3.15240028,19.1096017 3.28240029,19.0262017 C3.51580031,18.8792017 3.72680033,18.6896017 3.90980035,18.4636017 C4.13020037,18.1912016 4.30240038,17.8636016 4.40780039,17.5172016 C4.5244004,17.1366015 4.56560041,16.6956015 4.5244004,16.2760015 C4.4844004,15.8670014 4.36680039,15.4400014 4.18400037,15.0412013 Z" id="Path"></path>
            </g>
        </g>
    </g>
</svg>