<?xml version="1.0" encoding="UTF-8"?>
<svg width="84px" height="81px" viewBox="0 0 84 81" version="1.1" xmlns="http://www.w3.org/2000/svg" xmlns:xlink="http://www.w3.org/1999/xlink">
    <title>Artboard 8</title>
    <g id="Details-Page-2.0" stroke="none" stroke-width="1" fill="none" fill-rule="evenodd">
        <g id="Car-Details-Page---Cash-Only" transform="translate(-1026.000000, -2386.000000)">
            <g id="Group-14" transform="translate(688.000000, 2290.000000)">
                <g id="Artboard-8" transform="translate(338.000000, 96.000000)">
                    <path d="M3.52978723,42.1046281 C4.53510638,42.546824 5.50914894,41.4882339 5.15170213,40.4519768 C4.05255319,37.2672731 9.77617021,35.9987515 7.14,30.6120016 C6.88978723,29.8884083 6.63510638,29.1469485 6.61723404,28.5796871 C6.60829787,28.3161563 6.69319149,28.057092 6.84510638,27.842694 C7.81914894,26.4446403 10.3659574,25.5691818 11.1076596,23.8763309 C12.0325532,22.3130121 11.2908511,19.7447026 11.8091489,18.1411842 C11.8851064,17.8999864 12.0414894,17.6855884 12.2470213,17.5381898 C13.6187234,16.546599 16.277234,16.4795996 17.4925532,15.103879 C18.8061702,13.9425565 18.9268085,11.4189133 19.8159574,10.016393 C20.003617,9.72159573 20.3074468,9.52506422 20.6514894,9.45359822 C23.7925532,8.81933745 26.7102128,10.0387261 28.7521277,6.15722886 C31.4642553,1.20820818 34.9270213,8.36820831 39.6631915,3.7675844 C39.6989362,3.73631802 39.7346809,3.70505164 39.7704255,3.67378527 C40.5612766,3.07972412 41.37,2.47672973 42,2.47672973 C42.63,2.47672973 43.4387234,3.07972412 44.2295745,3.67378527 C44.2653191,3.70058502 44.3055319,3.73185139 44.3368085,3.7675844 C49.086383,8.37267493 52.5178723,1.20374156 55.2523404,6.15722886 C57.2719149,10.0342595 60.2387234,8.82380407 63.3485106,9.45359822 C63.6925532,9.52506422 64.0008511,9.72159573 64.1840426,10.016393 C65.0731915,11.4233799 65.1982979,13.9425565 66.5119149,15.103879 C67.722766,16.475133 70.3857447,16.5421323 71.7529787,17.5337231 C71.9585106,17.6811218 72.1104255,17.8955198 72.1908511,18.1367175 C72.7002128,19.740236 71.9674468,22.3040788 72.8923404,23.8718642 C73.6340426,25.5647152 76.1853191,26.4446403 77.1548936,27.842694 C77.3068085,28.057092 77.387234,28.3161563 77.3782979,28.5752205 C77.3604255,29.1380153 77.1057447,29.8839417 76.8555319,30.607535 C74.2193617,36.0076848 79.9385106,37.24494 78.8438298,40.4385769 C78.4729787,41.5239669 79.5542553,42.5691571 80.5685106,42.0331621 C81.1851064,41.7070985 81.5604255,41.0192382 81.6095745,39.6077847 C81.6944681,37.4280716 79.3978723,35.7798869 78.75,33.9977035 C78.7008511,33.8681713 78.6785106,33.729706 78.6829787,33.5912406 C78.7187234,31.679525 80.4344681,29.4149461 79.6838298,27.3692317 C79.0895745,25.2743845 76.386383,24.4167925 75.2202128,22.9204731 C75.1353191,22.8088074 75.0682979,22.6837419 75.0280851,22.5497432 C74.4785106,20.7228935 75.3944681,18.0429184 74.0495745,16.3277343 C72.8834043,14.5902172 70.2025532,14.5500175 68.6074468,13.5896931 C68.3974468,13.4646276 68.2231915,13.2770294 68.1159574,13.0536981 C66.4806383,9.65906298 66.4493617,6.18849523 61.2708511,6.76468988 C59.2021277,6.93442163 58.3621277,6.51009224 57.2853191,4.73684206 C54.6982979,0.19428427 51.8878723,2.19533234 48.1480851,2.86979274 C47.9023404,2.91445899 47.6476596,2.88319261 47.4153191,2.78492686 C45.7040426,2.04793371 44.1044681,-0.0781798651 42,0.00221938773 C39.8910638,-0.0781798651 38.2914894,2.05240034 36.5757447,2.78939349 C36.3478723,2.88765924 36.1021277,2.91892562 35.856383,2.87872599 C32.0808511,2.22659872 29.3910638,0.131751517 26.7191489,4.74130868 C25.6512766,6.51902549 24.7889362,6.92548838 22.733617,6.76468988 C17.4970213,6.22422823 17.5506383,9.61886335 15.8885106,13.0536981 C15.7812766,13.2770294 15.6070213,13.460161 15.3970213,13.5852265 C13.8019149,14.5455509 11.1165957,14.5812839 9.95042553,16.3232677 C8.60553191,18.0339851 9.50808511,20.7228935 8.97191489,22.5452766 C8.93170213,22.6792753 8.86914894,22.8043408 8.77978723,22.9160064 C7.61808511,24.4123259 4.91042553,25.2699179 4.31617021,27.3602985 C3.57,29.4060128 5.27234043,31.6750584 5.31702128,33.5823073 C5.31702128,33.7207727 5.29914894,33.8592381 5.25,33.9932368 C4.60659574,35.7709537 2.29659574,37.423605 2.38595745,39.603318 C2.4887234,41.1219706 2.86404255,41.8008976 3.52978723,42.0956949 L3.52978723,42.1046281 Z M69.7512766,64.3573547 C68.5895745,64.710218 67.3876596,65.0764813 66.5253191,65.9340733 C65.6629787,66.796132 65.2921277,67.9976542 64.9346809,69.1545101 C64.6442553,70.1103679 64.3404255,71.097492 63.8355319,71.4637553 C63.3395745,71.8210853 62.3029787,71.8032188 61.3110638,71.7898189 C60.0912766,71.7674858 58.8357447,71.7451527 57.7410638,72.3034808 C56.6642553,72.8528757 55.9448936,73.8757329 55.2523404,74.862857 C54.6759574,75.6847161 54.077234,76.5378415 53.4785106,76.7299063 C52.9021277,76.9175046 51.9370213,76.5825077 50.9987234,76.2564441 C49.8414894,75.8589144 48.6440426,75.4524516 47.4287234,75.6311166 C46.2402128,75.8142482 45.2482979,76.5646412 44.2876596,77.2837679 C43.4789362,77.8912289 42.6434043,78.521023 42,78.521023 C41.3565957,78.521023 40.5210638,77.8912289 39.7123404,77.2793012 C38.7517021,76.555708 37.7597872,75.8053149 36.5757447,75.6177167 C35.3604255,75.4345851 34.1585106,75.8365813 33.0012766,76.234111 C32.0629787,76.555708 31.0934043,76.8907049 30.5214894,76.7031066 C29.922766,76.5065751 29.3285106,75.6534497 28.7521277,74.8315907 C28.0595745,73.8399999 27.3446809,72.8171427 26.2678723,72.2632812 C25.1776596,71.704953 23.9176596,71.7228195 22.7023404,71.740686 C21.7059574,71.7496193 20.6738298,71.7719524 20.1778723,71.4101558 C19.6774468,71.0438925 19.3780851,70.0567684 19.0831915,69.096444 C18.7302128,67.9351214 18.3638298,66.7335992 17.5014894,65.8715406 C16.6391489,65.0094819 15.437234,64.638752 14.2755319,64.281422 C13.6365957,64.0848905 12.9842553,63.888359 12.5151064,63.6248281 C12.1040426,63.3970303 11.5991489,63.4506298 11.2193617,63.7230939 L11.2193617,63.7230939 C10.5,64.245689 10.5402128,65.3578787 11.3221277,65.7911413 C12.023617,66.1797377 12.8189362,66.4209355 13.5517021,66.6442667 C14.4229787,66.9122643 15.3255319,67.189195 15.75,67.6135244 C16.1744681,68.0378538 16.4470213,68.9401121 16.7151064,69.811104 C17.1038298,71.0930254 17.5461702,72.5491452 18.7168085,73.4022706 C19.8785106,74.255396 21.3976596,74.2285963 22.7380851,74.2062631 C23.6495745,74.1973299 24.5968085,74.1794634 25.1374468,74.4563941 C25.6646809,74.7288583 26.2008511,75.4971178 26.7191489,76.2385776 C27.4921277,77.3463006 28.3634043,78.5969557 29.7529787,79.0525514 C31.1112766,79.4902807 32.5455319,79.0078852 33.8055319,78.5746225 C34.6768085,78.2753587 35.5793617,77.9582283 36.1870213,78.0654273 C36.7634043,78.1547598 37.5051064,78.7175545 38.22,79.2580162 C39.3012766,80.0754086 40.5255319,81 41.9955319,81 C43.4655319,81 44.6942553,80.0798752 45.7755319,79.2669494 C46.4948936,78.7264878 47.2365957,78.1681596 47.8129787,78.0788271 C48.4161702,77.9716281 49.3231915,78.2932252 50.1944681,78.592489 C51.4544681,79.0302183 52.8842553,79.5260137 54.2425532,79.0838178 C55.6321277,78.6371553 56.5078723,77.3820336 57.2808511,76.2787772 C57.7991489,75.5373174 58.3397872,74.7735245 58.8670213,74.5010604 C59.4076596,74.2241296 60.3548936,74.2375295 61.2708511,74.2598626 C62.6023404,74.2821958 64.1259574,74.3089955 65.2921277,73.4648034 C66.462766,72.6161446 66.9095745,71.1600248 67.302766,69.8781034 C67.5708511,69.0071115 67.8478723,68.1048532 68.2723404,67.6805238 C68.6968085,67.2561944 69.5993617,66.9837303 70.4706383,66.7201994 C71.2078723,66.4968681 71.9987234,66.2556704 72.7046809,65.8715406 C73.4865957,65.4427446 73.5312766,64.3305549 72.8119149,63.8034931 L72.8119149,63.8034931 C72.4365957,63.5265624 71.927234,63.4774295 71.5206383,63.7007608 C71.0470213,63.959825 70.3946809,64.1563565 69.7557447,64.352888 L69.7512766,64.3573547 Z" id="Shape" fill="#F1B85B" fill-rule="nonzero"></path>
                    <path d="M12.4659574,40.6931746 C13.0557447,40.6931746 13.5293617,40.2107791 13.5248936,39.6211845 L13.5248936,39.6122513 C13.5248936,23.9165305 26.2991489,11.1464492 42,11.1464492 C57.7008511,11.1464492 70.4751064,23.9165305 70.4751064,39.6122513 L70.4751064,39.6211845 C70.4751064,40.2107791 70.9442553,40.6931746 71.5340426,40.6931746 L71.8870213,40.6931746 C72.4678723,40.6931746 72.9459574,40.2241789 72.9459574,39.6435177 L72.9459574,39.6122513 C72.9459574,22.5497432 59.063617,8.67193882 41.9955319,8.67193882 C24.9274468,8.67193882 11.0495745,22.5542098 11.0495745,39.6122513 L11.0495745,39.6435177 C11.0495745,40.2241789 11.5276596,40.6931746 12.1085106,40.6931746 L12.4614894,40.6931746 L12.4659574,40.6931746 Z M60.2387234,65.0362817 L60.0242553,64.7548843 C59.6757447,64.3037552 59.0323404,64.209956 58.5721277,64.5404863 C53.7197872,68.0244539 48.0140426,69.8602369 42,69.8602369 C35.9859574,69.8602369 30.2846809,68.0244539 25.4323404,64.5404863 C24.9721277,64.209956 24.3287234,64.3037552 23.9802128,64.7548843 L23.7657447,65.0362817 C23.3948936,65.5142106 23.5021277,66.2020709 23.9891489,66.5504676 C29.2659574,70.3426324 35.4676596,72.3392138 42.0044681,72.3392138 C48.5412766,72.3392138 54.7429787,70.3426324 60.0197872,66.5504676 C60.5112766,66.1976042 60.6140426,65.509744 60.2431915,65.0362817 L60.2387234,65.0362817 Z" id="Shape" fill="#154F9C" fill-rule="nonzero"></path>
                    <g id="Group" transform="translate(0.000000, 44.195009)">
                        <path d="M2.26085106,8.20965704 C2.26085106,8.98684982 2.81042553,9.36651296 3.90510638,9.36651296 C4.31617021,9.36651296 4.63787234,9.3218467 4.86574468,9.22804758 L4.86574468,7.00366825 L3.81574468,7.00366825 C2.84170213,7.00366825 2.26085106,7.45926401 2.26085106,8.20519041 L2.26085106,8.20965704 Z" id="Path"></path>
                        <path d="M47.4912766,8.20965704 C47.4912766,8.98684982 48.0408511,9.36651296 49.1355319,9.36651296 C49.5465957,9.36651296 49.8682979,9.3218467 50.0961702,9.22804758 L50.0961702,7.00366825 L49.0461702,7.00366825 C48.0721277,7.00366825 47.4912766,7.45926401 47.4912766,8.20519041 L47.4912766,8.20965704 Z" id="Path"></path>
                        <path d="M12.7206383,7.7227949 C11.3489362,7.63346239 10.9378723,9.48711184 11.6393617,10.6439678 L12.4614894,10.6439678 C13.542766,10.6439678 14.0476596,10.0365067 14.0476596,9.16551482 C14.0476596,8.38832205 13.5293617,7.71832827 12.7206383,7.71832827 L12.7206383,7.7227949 Z" id="Path"></path>
                        <path d="M80.4165957,6.91433574 C79.5631915,6.91433574 79.0002128,7.43246426 79.0002128,8.39278867 C79.0002128,8.80371819 79.1074468,9.18338132 79.3353191,9.56304446 L80.2646809,9.56304446 C81.2565957,9.56304446 81.743617,9.1074487 81.743617,8.19179054 C81.743617,7.41459776 81.2119149,6.91433574 80.4165957,6.91433574 L80.4165957,6.91433574 Z" id="Path"></path>
                        <path d="M5.47340426,3.27850287 C6.09893617,3.27850287 6.58595745,2.79164072 6.58595745,2.13504683 C6.58595745,1.47845293 6.13021277,1.00945729 5.47340426,1.00945729 C4.81659574,1.00945729 4.32957447,1.48291955 4.32957447,2.13504683 C4.32957447,2.7871741 4.81659574,3.27850287 5.47340426,3.27850287 Z" id="Path" fill="#154F9C" fill-rule="nonzero"></path>
                        <path d="M3.5387234,2.94350598 C3.94978723,2.51917659 3.94978723,1.75538369 3.5387234,1.3310543 C3.10978723,0.906724907 2.35021277,0.906724907 1.92574468,1.3310543 C1.48340426,1.75538369 1.48340426,2.51917659 1.92574468,2.94350598 C2.35468085,3.38570187 3.11425532,3.38570187 3.5387234,2.94350598 Z" id="Path" fill="#154F9C" fill-rule="nonzero"></path>
                        <path d="M21.2055319,12.7030819 C20.5487234,12.7030819 20.0617021,13.203344 20.0617021,13.8599379 C20.0617021,14.5165318 20.5487234,14.9721275 21.2055319,14.9721275 C21.8623404,14.9721275 22.3180851,14.4852654 22.3180851,13.8599379 C22.3180851,13.2346103 21.8310638,12.7030819 21.2055319,12.7030819 Z" id="Path" fill="#154F9C" fill-rule="nonzero"></path>
                        <path d="M17.6578723,13.0380788 C17.43,13.2658767 17.322766,13.5383409 17.322766,13.8599379 C17.322766,14.4852654 17.8097872,14.9721275 18.4665957,14.9721275 C19.1234043,14.9721275 19.5791489,14.5165318 19.5791489,13.8599379 C19.6729787,12.8415473 18.3146809,12.3234188 17.6623404,13.0380788 L17.6578723,13.0380788 Z" id="Path" fill="#154F9C" fill-rule="nonzero"></path>
                        <path d="M37.4559574,8.34812242 C37.4559574,9.20124783 37.2861702,9.56751109 36.4506383,9.56751109 C35.7938298,9.56751109 35.4587234,9.27718045 35.4587234,8.71438568 L35.4587234,6.15500947 L33.2023404,6.15500947 L33.2023404,8.34812242 C33.2023404,9.2146477 33.0504255,9.56751109 32.1970213,9.56751109 C31.5402128,9.56751109 31.2051064,9.27718045 31.2051064,8.71438568 L31.2051064,6.15500947 L28.9531915,6.15500947 L28.9531915,8.34812242 C28.9531915,9.2146477 28.7834043,9.56751109 27.9478723,9.56751109 L27.5502128,9.56751109 C26.7414894,9.56751109 26.2857447,9.18784795 26.2097872,8.42405505 L26.2097872,0.0178665006 L23.9578723,0.0178665006 L23.9578723,7.95059278 C23.9578723,9.16998145 23.6674468,9.56304446 22.6308511,9.56304446 C21.732766,9.56304446 21.2770213,9.0895822 21.2770213,8.16052416 L21.2770213,5.03835318 L19.0206383,5.03835318 L19.0206383,7.94612616 C19.0206383,8.60272005 18.9312766,9.02704944 18.7480851,9.24144745 C18.5514894,9.45584546 18.1538298,9.56304446 17.5461702,9.56304446 L16.2817021,9.56304446 C16.2951064,9.48711184 16.2951064,9.37991283 16.2951064,9.2146477 C16.2951064,8.14712429 15.9912766,7.29846551 15.3657447,6.64187161 C14.7402128,5.98527771 13.8868085,5.66814733 12.8368085,5.66814733 C11.6929787,5.66814733 10.7814894,6.00314421 10.0934043,6.68653786 C9.39191489,7.36993151 9.04340426,8.25432329 9.04340426,9.3039802 L9.04340426,9.56304446 L8.32851064,9.56304446 C7.47510638,9.56304446 7.23382979,9.27271383 7.23382979,8.37492217 L7.23382979,5.03835318 L4.1106383,5.03835318 C2.77021277,5.03835318 1.75148936,5.37335006 1.05,6.02994396 C0.348510638,6.68653786 0,7.45926401 0,8.3615223 C0,9.35311308 0.348510638,10.0990395 1.03659574,10.6305679 C1.72468085,11.1620963 2.56021277,11.4211605 3.57893617,11.4211605 C4.32510638,11.4211605 5.02659574,11.2692953 5.66553191,10.9655648 C6.13914894,11.3452279 7.0193617,11.5283595 8.32851064,11.5283595 L9.75829787,11.5283595 C10.0621277,11.939289 10.4419149,12.2876858 10.8842553,12.6092828 L12.4391489,12.6092828 C13.7795745,12.6092828 14.7848936,12.2430196 15.4551064,11.5283595 L17.5997872,11.5283595 C19.0161702,11.5283595 20.0080851,11.2558954 20.5397872,10.7065005 C20.9374468,11.2558954 21.6344681,11.5283595 22.626383,11.5283595 L22.626383,11.5283595 C23.9802128,11.5283595 24.9408511,11.2558954 25.4725532,10.7065005 C25.8702128,11.2558954 26.5538298,11.5283595 27.5412766,11.5283595 L27.9523404,11.5283595 C29.1855319,11.5283595 29.7797872,11.3630944 30.3293617,10.9208985 C30.8297872,11.331828 31.5759574,11.5283595 32.5678723,11.5283595 C33.4838298,11.5283595 34.1987234,11.331828 34.7304255,10.9476983 C35.2934043,11.3273614 35.963617,11.5283595 36.7544681,11.5283595 C38.4746809,11.5283595 39.6944681,10.4921025 39.6944681,8.89305069 L39.6944681,5.0428198 L37.4425532,5.0428198 L37.4425532,8.34812242 L37.4559574,8.34812242 Z M4.86574468,9.2325142 C4.63787234,9.3218467 4.31617021,9.37097958 3.90510638,9.37097958 C2.81042553,9.37097958 2.26085106,8.99131644 2.26085106,8.21412367 C2.26085106,7.43693089 2.84170213,7.0126015 3.81574468,7.0126015 L4.86574468,7.0126015 L4.86574468,9.23698083 L4.86574468,9.2325142 Z M12.4659574,10.6484344 L11.6438298,10.6484344 C10.9423404,9.49157846 11.3534043,7.63346239 12.7251064,7.72726152 C13.5338298,7.72726152 14.0521277,8.3972553 14.0521277,9.17444807 C14.0521277,10.0409734 13.5517021,10.652901 12.4659574,10.652901 L12.4659574,10.6484344 Z" id="Shape" fill="#154F9C" fill-rule="nonzero"></path>
                        <path d="M50.7038298,3.27850287 C51.3293617,3.27850287 51.816383,2.79164072 51.816383,2.13504683 C51.816383,1.47845293 51.3606383,1.00945729 50.7038298,1.00945729 C50.0470213,1.00945729 49.56,1.48291955 49.56,2.13504683 C49.56,2.7871741 50.0470213,3.27850287 50.7038298,3.27850287 Z" id="Path" fill="#154F9C" fill-rule="nonzero"></path>
                        <path d="M48.7691489,2.94350598 C49.1802128,2.51917659 49.1802128,1.75538369 48.7691489,1.3310543 C48.3402128,0.906724907 47.5806383,0.906724907 47.1561702,1.3310543 C46.7138298,1.75538369 46.7138298,2.51917659 47.1561702,2.94350598 C47.5851064,3.38570187 48.3446809,3.38570187 48.7691489,2.94350598 Z" id="Path" fill="#154F9C" fill-rule="nonzero"></path>
                        <path d="M56.8251064,2.94350598 C57.0217021,2.72910797 57.1155319,2.45664384 57.1155319,2.13504683 C57.1155319,1.46505305 56.6910638,1.00945729 56.0208511,1.00945729 C55.3506383,1.00945729 54.8948936,1.46505305 54.8948936,2.13504683 C54.8948936,2.45664384 55.0021277,2.72910797 55.2165957,2.94350598 C55.6276596,3.38570187 56.436383,3.38570187 56.8295745,2.94350598 L56.8251064,2.94350598 Z" id="Path" fill="#154F9C" fill-rule="nonzero"></path>
                        <path d="M59.0502128,13.0380788 C58.8223404,13.2658767 58.7151064,13.5383409 58.7151064,13.8599379 C58.7151064,14.4852654 59.2021277,14.9721275 59.8589362,14.9721275 C60.5157447,14.9721275 60.9714894,14.5165318 60.9714894,13.8599379 C61.0653191,12.8415473 59.7070213,12.3234188 59.0546809,13.0380788 L59.0502128,13.0380788 Z" id="Path" fill="#154F9C" fill-rule="nonzero"></path>
                        <path d="M62.5978723,12.7030819 C61.9410638,12.7030819 61.4540426,13.203344 61.4540426,13.8599379 C61.4540426,14.5165318 61.9410638,14.9721275 62.5978723,14.9721275 C63.2546809,14.9721275 63.7104255,14.4852654 63.7104255,13.8599379 C63.7104255,13.2346103 63.2234043,12.7030819 62.5978723,12.7030819 Z" id="Path" fill="#154F9C" fill-rule="nonzero"></path>
                        <path d="M66.6638298,4.87308805 L70.1668085,1.4918528 L68.7057447,0 L64.3940426,4.15842802 L64.3940426,6.27560835 C65.4753191,6.47213985 66.3108511,6.73120411 66.9229787,7.05280112 C68.1248936,7.69152852 68.4331915,8.39278867 68.4465957,9.56304446 L64.0321277,9.56304446 C63.1340426,9.56304446 62.6782979,9.0895822 62.6782979,8.16052416 L62.6782979,5.03835318 L60.4219149,5.03835318 L60.4219149,7.94612616 C60.4219149,8.60272005 60.3325532,9.02704944 60.1493617,9.24144745 C59.952766,9.45584546 59.5551064,9.56304446 58.9474468,9.56304446 L58.5051064,9.56304446 C57.6070213,9.56304446 57.1512766,9.0895822 57.1512766,8.16052416 L57.1512766,5.03835318 L54.8993617,5.03835318 L54.8993617,7.94612616 C54.8993617,8.60272005 54.8055319,9.04044932 54.6402128,9.24144745 C54.4570213,9.45584546 54.1085106,9.56304446 53.5768085,9.56304446 C52.7234043,9.56304446 52.4821277,9.27271383 52.4821277,8.37492217 L52.4821277,5.03835318 L49.3589362,5.03835318 C48.0185106,5.03835318 46.9997872,5.37335006 46.2982979,6.02994396 C45.5968085,6.68653786 45.2482979,7.45926401 45.2482979,8.3615223 C45.2482979,9.35311308 45.5968085,10.0990395 46.2848936,10.6305679 C46.9729787,11.1620963 47.8085106,11.4211605 48.827234,11.4211605 C49.5734043,11.4211605 50.2748936,11.2692953 50.9138298,10.9655648 C51.3874468,11.3452279 52.2676596,11.5283595 53.5768085,11.5283595 L53.5768085,11.5283595 C54.9619149,11.5283595 55.9046809,11.2558954 56.4229787,10.7065005 C56.8206383,11.2558954 57.5176596,11.5283595 58.5095745,11.5283595 L59.01,11.5283595 C60.426383,11.5283595 61.4182979,11.2558954 61.95,10.7065005 C62.3476596,11.2558954 63.0446809,11.5283595 64.0365957,11.5283595 L70.7074468,11.5283595 L70.7074468,10.1124394 C70.7074468,9.07618232 70.6448936,8.4508548 70.3410638,7.60219602 C69.8853191,6.40067385 68.8487234,5.54754845 66.672766,4.87755467 L66.6638298,4.87308805 Z M50.0961702,9.22804758 C49.8682979,9.31738008 49.5465957,9.36651296 49.1355319,9.36651296 C48.0408511,9.36651296 47.4912766,8.98684982 47.4912766,8.20965704 C47.4912766,7.43246426 48.0721277,7.00813487 49.0461702,7.00813487 L50.0961702,7.00813487 L50.0961702,9.2325142 L50.0961702,9.22804758 Z" id="Shape" fill="#154F9C" fill-rule="nonzero"></path>
                        <path d="M83.0795745,5.83341246 C82.4719149,5.19468506 81.6185106,4.87308805 80.5059574,4.87308805 C79.3934043,4.87308805 78.5131915,5.17681856 77.8117021,5.7708797 C77.0968085,6.36494085 76.7438298,7.14213363 76.7438298,8.08459154 C76.7438298,8.64738631 76.8510638,9.15211495 77.0655319,9.56304446 L76.0468085,9.56304446 C75.1174468,9.56304446 74.7376596,9.24144745 74.7376596,8.51338755 L74.7376596,0.0178665006 L72.4857447,0.0178665006 L72.4857447,8.54465393 C72.4857447,10.617168 73.4285106,11.5283595 76.0512766,11.5283595 L80.01,11.5283595 C81.5782979,11.5283595 82.7042553,11.0727638 83.2538298,10.3402372 C83.8034043,9.62557722 84,8.92431707 84,8.08459154 C84,7.24486601 83.6961702,6.47213985 83.0840426,5.83341246 L83.0795745,5.83341246 Z M80.2602128,9.56304446 L79.3308511,9.56304446 C79.1029787,9.18338132 78.9957447,8.80371819 78.9957447,8.39278867 C78.9957447,7.43246426 79.5587234,6.91433574 80.4121277,6.91433574 C81.2029787,6.91433574 81.7391489,7.41459776 81.7391489,8.19179054 C81.7391489,9.1074487 81.2521277,9.56304446 80.2602128,9.56304446 L80.2602128,9.56304446 Z" id="Shape" fill="#154F9C" fill-rule="nonzero"></path>
                    </g>
                    <path d="M51.1238298,26.3821076 C51.972766,25.5334488 51.972766,24.1532616 51.1238298,23.3046028 C50.2748936,22.4559441 48.9031915,22.4559441 48.0587234,23.3046028 L38.747234,32.6487827 L35.9412766,29.8348088 C35.0923404,28.98615 33.7206383,28.98615 32.8717021,29.8348088 C32.022766,30.6834676 32.022766,32.0636548 32.8717021,32.9123136 L37.2102128,37.2672731 C38.0591489,38.1159319 39.4308511,38.1159319 40.2797872,37.2672731 L51.1238298,26.3821076 L51.1238298,26.3821076 Z" id="Path" fill="#F1B85B" fill-rule="nonzero"></path>
                </g>
            </g>
        </g>
    </g>
</svg>