<?xml version="1.0" encoding="UTF-8"?>
<svg width="30px" height="30px" viewBox="0 0 30 30" version="1.1" xmlns="http://www.w3.org/2000/svg" xmlns:xlink="http://www.w3.org/1999/xlink">
    <title>Group 6</title>
    <g id="Details-Page" stroke="none" stroke-width="1" fill="none" fill-rule="evenodd">
        <g id="Car-Details-Page---New-USPs" transform="translate(-352.000000, -1070.000000)">
            <g id="Group-6" transform="translate(352.000000, 1070.000000)">
                <path d="M15,1.57894737 C7.59947368,1.57894737 1.57894737,7.59947368 1.57894737,15 C1.57894737,22.4005263 7.59947368,28.4210526 15,28.4210526 C22.4005263,28.4210526 28.4210526,22.4005263 28.4210526,15 C28.4210526,7.59947368 22.4005263,1.57894737 15,1.57894737 M15,30 C6.72894737,30 0,23.2710526 0,15 C0,6.72894737 6.72894737,0 15,0 C23.2710526,0 30,6.72894737 30,15 C30,23.2710526 23.2710526,30 15,30" id="Fill-1" fill="#F1B85B"></path>
                <path d="M26.0526316,15 C26.0526316,21.1042105 21.1042105,26.0526316 15,26.0526316 C8.89578947,26.0526316 3.94736842,21.1042105 3.94736842,15 C3.94736842,8.89578947 8.89578947,3.94736842 15,3.94736842 C21.1042105,3.94736842 26.0526316,8.89578947 26.0526316,15" id="Fill-3" fill="#3C56D4"></path>
                <path d="M13.4827895,19.8372632 C13.3591053,19.9614737 13.1901579,20.0309474 13.0148947,20.0309474 C12.8396316,20.0309474 12.6706842,19.9614737 12.547,19.8372632 L8.81121053,16.1009474 C8.42384211,15.7130526 8.42384211,15.0846316 8.81121053,14.6972632 L9.27910526,14.2293684 C9.667,13.842 10.2948947,13.842 10.6827895,14.2293684 L13.0148947,16.562 L19.3175263,10.2598947 C19.7054211,9.872 20.3338421,9.872 20.7206842,10.2598947 L21.1885789,10.7277895 C21.5764737,11.1151579 21.5764737,11.7435789 21.1885789,12.1309474 L13.4827895,19.8372632 Z" id="Fill-5" fill="#FFFFFF"></path>
            </g>
        </g>
    </g>
</svg>