<?xml version="1.0" encoding="UTF-8"?>
<svg width="80px" height="81px" viewBox="0 0 80 81" version="1.1" xmlns="http://www.w3.org/2000/svg" xmlns:xlink="http://www.w3.org/1999/xlink">
    <title>Artboard 5</title>
    <g id="Details-Page-2.0" stroke="none" stroke-width="1" fill="none" fill-rule="evenodd">
        <g id="Car-Details-Page---Cash-Only" transform="translate(-719.000000, -2386.000000)">
            <g id="Group-14" transform="translate(688.000000, 2290.000000)">
                <g id="Artboard-5" transform="translate(31.000000, 96.000000)">
                    <path d="M1.15751659,42.1046281 C2.17262605,42.546824 3.15615433,41.4882339 2.79522652,40.4519768 C1.68537351,37.2672731 7.46473004,35.9987515 4.80288745,30.6120016 C4.55023799,29.8884083 4.29307692,29.1469485 4.27503053,28.5796871 C4.26600734,28.3161563 4.35172769,28.057092 4.50512201,27.842694 C5.48865029,26.4446403 8.06026092,25.5691818 8.80918612,23.8763309 C9.74308682,22.3130121 8.99416162,19.7447026 9.51750694,18.1411842 C9.5942041,17.8999864 9.75211002,17.6855884 9.95964351,17.5381898 C11.344704,16.546599 14.0291045,16.4795996 15.2562591,15.103879 C16.5826688,13.9425565 16.7044819,11.4189133 17.6022898,10.016393 C17.7917769,9.72159573 18.0985656,9.52506422 18.4459586,9.45359822 C21.6176117,8.81933745 24.5636849,10.0387261 26.625485,6.15722886 C29.3640248,1.20820818 32.8605129,8.36820831 37.6428064,3.7675844 C37.6788992,3.73631802 37.7149919,3.70505164 37.7510847,3.67378527 C38.5496375,3.07972412 39.3662367,2.47672973 40.0023719,2.47672973 C40.6385072,2.47672973 41.4551064,3.07972412 42.2536591,3.67378527 C42.2897519,3.70058502 42.3303563,3.73185139 42.3619375,3.7675844 C47.1577657,8.37267493 50.6226727,1.20374156 53.3837704,6.15722886 C55.4230125,10.0342595 58.4187133,8.82380407 61.5587853,9.45359822 C61.9061783,9.52506422 62.2174785,9.72159573 62.402454,10.016393 C63.3002619,11.4233799 63.4265867,13.9425565 64.7529964,15.103879 C65.9756393,16.475133 68.6645515,16.5421323 70.0451003,17.5337231 C70.2526338,17.6811218 70.4060281,17.8955198 70.4872369,18.1367175 C71.001559,19.740236 70.261657,22.3040788 71.1955577,23.8718642 C71.9444829,25.5647152 74.5206052,26.4446403 75.4996218,27.842694 C75.6530162,28.057092 75.7342249,28.3161563 75.7252017,28.5752205 C75.7071553,29.1380153 75.4499943,29.8839417 75.1973448,30.607535 C72.5355022,36.0076848 78.3103471,37.24494 77.2050057,40.4385769 C76.8305431,41.5239669 77.9223498,42.5691571 78.9464824,42.0331621 C79.5690829,41.7070985 79.9480571,41.0192382 79.9976846,39.6077847 C80.083405,37.4280716 77.7644438,35.7798869 77.1102622,33.9977035 C77.0606346,33.8681713 77.0380766,33.729706 77.0425882,33.5912406 C77.078681,31.679525 78.8111345,29.4149461 78.0531861,27.3692317 C77.4531436,25.2743845 74.7236271,24.4167925 73.5461001,22.9204731 C73.4603797,22.8088074 73.3927058,22.6837419 73.3521014,22.5497432 C72.7971749,20.7228935 73.7220524,18.0429184 72.3640615,16.3277343 C71.1865345,14.5902172 68.479576,14.5500175 66.8689356,13.5896931 C66.6568905,13.4646276 66.4809382,13.2770294 66.3726599,13.0536981 C64.7214152,9.65906298 64.689834,6.18849523 59.4608924,6.76468988 C57.3720227,6.93442163 56.5238423,6.51009224 55.4365473,4.73684206 C52.8243323,0.19428427 49.9865374,2.19533234 46.2103302,2.86979274 C45.9621924,2.91445899 45.7050313,2.88319261 45.4704282,2.78492686 C43.7424863,2.04793371 42.1273344,-0.0781798651 40.0023719,0.00221938773 C37.8728979,-0.0781798651 36.2577459,2.05240034 34.5252924,2.78939349 C34.295201,2.88765924 34.0470631,2.91892562 33.7989252,2.87872599 C29.9866253,2.22659872 27.2706435,0.131751517 24.5727081,4.74130868 C23.4944363,6.51902549 22.623698,6.92548838 20.5483631,6.76468988 C15.2607707,6.22422823 15.3149099,9.61886335 13.6365956,13.0536981 C13.5283172,13.2770294 13.3523649,13.460161 13.1403198,13.5852265 C11.5296795,14.5455509 8.81820932,14.5812839 7.64068234,16.3232677 C6.28269146,18.0339851 7.19403418,20.7228935 6.65264247,22.5452766 C6.61203809,22.6792753 6.54887572,22.8043408 6.45864377,22.9160064 C5.2856284,24.4123259 2.55160025,25.2699179 1.95155777,27.3602985 C1.19812097,29.4060128 2.91703966,31.6750584 2.96215563,33.5823073 C2.96215563,33.7207727 2.94410924,33.8592381 2.89448167,33.9932368 C2.24481161,35.7709537 -0.087684346,37.423605 0.00254760602,39.603318 C0.106314351,41.1219706 0.485288549,41.8008976 1.15751659,42.0956949 L1.15751659,42.1046281 Z M68.0239046,64.3573547 C66.8508892,64.710218 65.6372695,65.0764813 64.7665312,65.9340733 C63.8957928,66.796132 63.5213302,67.9976542 63.1604024,69.1545101 C62.8671486,70.1103679 62.5603599,71.097492 62.0505494,71.4637553 C61.5497621,71.8210853 60.5030714,71.8032188 59.5014968,71.7898189 C58.2698306,71.7674858 57.0020717,71.7451527 55.8967303,72.3034808 C54.8094352,72.8528757 54.083068,73.8757329 53.3837704,74.862857 C52.8017743,75.6847161 52.1972202,76.5378415 51.5926662,76.7299063 C51.0106701,76.9175046 50.036165,76.5825077 49.0887295,76.2564441 C47.9202257,75.8589144 46.7111176,75.4524516 45.483963,75.6311166 C44.283878,75.8142482 43.2823034,76.5646412 42.3123099,77.2837679 C41.4957107,77.8912289 40.652042,78.521023 40.0023719,78.521023 C39.3527019,78.521023 38.5090331,77.8912289 37.692434,77.2793012 C36.7224405,76.555708 35.7208658,75.8053149 34.5252924,75.6177167 C33.2981379,75.4345851 32.0845181,75.8365813 30.9160144,76.234111 C29.9685789,76.555708 28.9895622,76.8907049 28.4120777,76.7031066 C27.8075236,76.5065751 27.2074811,75.6534497 26.625485,74.8315907 C25.9261874,73.8399999 25.2043318,72.8171427 24.1170368,72.2632812 C23.016207,71.704953 21.7439364,71.7228195 20.5167819,71.740686 C19.5106956,71.7496193 18.4685166,71.7719524 17.9677292,71.4101558 C17.4624303,71.0438925 17.1601533,70.0567684 16.8623878,69.096444 C16.5059716,67.9351214 16.1360206,66.7335992 15.2652823,65.8715406 C14.3945439,65.0094819 13.1809242,64.638752 12.0079088,64.281422 C11.3627504,64.0848905 10.7040571,63.888359 10.2303394,63.6248281 C9.81527239,63.3970303 9.30546186,63.4506298 8.92197606,63.7230939 L8.92197606,63.7230939 C8.19560885,64.245689 8.23621323,65.3578787 9.02574281,65.7911413 C9.73406363,66.1797377 10.537128,66.4209355 11.27703,66.6442667 C12.1567915,66.9122643 13.0681343,67.189195 13.496736,67.6135244 C13.9253378,68.0378538 14.2005453,68.9401121 14.4712411,69.811104 C14.8637501,71.0930254 15.3103983,72.5491452 16.4924368,73.4022706 C17.6654522,74.255396 19.1993954,74.2285963 20.5528747,74.2062631 C21.4732406,74.1973299 22.4296993,74.1794634 22.9756026,74.4563941 C23.5079711,74.7288583 24.0493628,75.4971178 24.5727081,76.2385776 C25.3532145,77.3463006 26.2329761,78.5969557 27.6360829,79.0525514 C29.0076086,79.4902807 30.4558314,79.0078852 31.7281019,78.5746225 C32.6078635,78.2753587 33.5192062,77.9582283 34.1327834,78.0654273 C34.7147795,78.1547598 35.4637047,78.7175545 36.1855604,79.2580162 C37.277367,80.0754086 38.5135447,81 39.9978603,81 C41.4821759,81 42.7228653,80.0798752 43.8146719,79.2669494 C44.5410391,78.7264878 45.2899643,78.1681596 45.8719604,78.0788271 C46.4810261,77.9716281 47.3968804,78.2932252 48.2766419,78.592489 C49.5489124,79.0302183 50.9926237,79.5260137 52.3641493,79.0838178 C53.7672562,78.6371553 54.6515293,77.3820336 55.4320357,76.2787772 C55.955381,75.5373174 56.5012843,74.7735245 57.0336529,74.5010604 C57.5795562,74.2241296 58.5360149,74.2375295 59.4608924,74.2598626 C60.8053485,74.2821958 62.3438032,74.3089955 63.5213302,73.4648034 C64.7033688,72.6161446 65.1545285,71.1600248 65.5515491,69.8781034 C65.822245,69.0071115 66.101964,68.1048532 66.5305658,67.6805238 C66.9591676,67.2561944 67.8705103,66.9837303 68.7502718,66.7201994 C69.4946854,66.4968681 70.2932382,66.2556704 71.0060706,65.8715406 C71.7956002,65.4427446 71.8407162,64.3305549 71.114349,63.8034931 L71.114349,63.8034931 C70.7353748,63.5265624 70.2210526,63.4774295 69.8104973,63.7007608 C69.3322679,63.959825 68.6735747,64.1563565 68.0284162,64.352888 L68.0239046,64.3573547 Z" id="Shape" fill="#F1B85B" fill-rule="nonzero"></path>
                    <path d="M10.1807118,40.6931746 C10.7762427,40.6931746 11.254472,40.2107791 11.2499604,39.6211845 L11.2499604,39.6122513 C11.2499604,23.9165305 24.148618,11.1464492 40.0023719,11.1464492 C55.8561259,11.1464492 68.7547834,23.9165305 68.7547834,39.6122513 L68.7547834,39.6211845 C68.7547834,40.2107791 69.2285012,40.6931746 69.8240321,40.6931746 L70.1804483,40.6931746 C70.766956,40.6931746 71.2496969,40.2241789 71.2496969,39.6435177 L71.2496969,39.6122513 C71.2496969,22.5497432 57.2321632,8.67193882 39.9978603,8.67193882 C22.7635575,8.67193882 8.75053535,22.5542098 8.75053535,39.6122513 L8.75053535,39.6435177 C8.75053535,40.2241789 9.2332763,40.6931746 9.81978398,40.6931746 L10.1762002,40.6931746 L10.1807118,40.6931746 Z M58.4187133,65.0362817 L58.2021566,64.7548843 C57.850252,64.3037552 57.200582,64.209956 56.7358874,64.5404863 C51.8362924,68.0244539 46.0749823,69.8602369 40.0023719,69.8602369 C33.9297616,69.8602369 28.172963,68.0244539 23.273368,64.5404863 C22.8086735,64.209956 22.1590034,64.3037552 21.8070988,64.7548843 L21.5905421,65.0362817 C21.2160795,65.5142106 21.3243579,66.2020709 21.816122,66.5504676 C27.1443188,70.3426324 33.4064162,72.3392138 40.0068835,72.3392138 C46.6073508,72.3392138 52.8694483,70.3426324 58.197645,66.5504676 C58.6939208,66.1976042 58.7976875,65.509744 58.4232249,65.0362817 L58.4187133,65.0362817 Z" id="Shape" fill="#154F9C" fill-rule="nonzero"></path>
                    <g id="Group" transform="translate(4.053962, 44.212875)">
                        <path d="M6.7628848,7.7049284 C5.91470445,7.7049284 5.33270836,8.40618855 5.33270836,9.33524658 C5.33270836,9.86677497 5.47256789,10.295571 5.74777534,10.6305679 L6.50121214,10.6305679 C7.59301876,10.6305679 8.09831769,10.0231069 8.09831769,9.15211495 C8.09831769,8.37492217 7.57497237,7.7049284 6.7628848,7.7049284 L6.7628848,7.7049284 Z" id="Path"></path>
                        <path d="M11.7436886,13.0202123 C11.5135971,13.2480102 11.4053187,13.5204744 11.4053187,13.8420714 C11.4053187,14.4673989 11.8970829,14.954261 12.5602877,14.954261 C13.2234926,14.954261 13.6836755,14.4986653 13.6836755,13.8420714 C13.7739075,12.8236808 12.4068934,12.3055523 11.7436886,13.0202123 L11.7436886,13.0202123 Z" id="Path" fill="#154F9C" fill-rule="nonzero"></path>
                        <path d="M15.3304086,12.6852154 C14.6672038,12.6852154 14.1754397,13.1854775 14.1754397,13.8420714 C14.1754397,14.4986653 14.6672038,14.954261 15.3304086,14.954261 C15.9936135,14.954261 16.4537964,14.4673989 16.4537964,13.8420714 C16.4537964,13.2167438 15.9620323,12.6852154 15.3304086,12.6852154 Z" id="Path" fill="#154F9C" fill-rule="nonzero"></path>
                        <path d="M31.7345775,8.33025592 C31.7345775,9.18338132 31.5631368,9.54964459 30.7194681,9.54964459 C30.0562632,9.54964459 29.7178934,9.25931395 29.7178934,8.69651918 L29.7178934,6.13714297 L27.4395366,6.13714297 L27.4395366,8.33025592 C27.4395366,9.1967812 27.2861423,9.54964459 26.4244271,9.54964459 C25.7612223,9.54964459 25.4228525,9.25931395 25.4228525,8.69651918 L25.4228525,6.13714297 L23.1490073,6.13714297 L23.1490073,8.33025592 C23.1490073,9.1967812 22.9775666,9.54964459 22.1338978,9.54964459 L21.7368772,9.54964459 C20.9202781,9.54964459 20.4600951,9.16998145 20.383398,8.40618855 L20.383398,0 L18.1095528,0 L18.1095528,7.93272628 C18.1095528,9.15211495 17.8162989,9.54517796 16.7741199,9.54517796 C15.8672888,9.54517796 15.4071058,9.0717157 15.4071058,8.14265766 L15.4071058,5.02048668 L13.1332606,5.02048668 L13.1332606,7.92825966 C13.1332606,8.58485355 13.0430287,9.00918294 12.8580532,9.22358095 C12.6595429,9.43797896 12.2580107,9.54517796 11.6444334,9.54517796 L10.3676513,9.54517796 C10.3811861,9.46924533 10.3811861,9.36204633 10.3811861,9.1967812 C10.3811861,8.12925779 10.0743974,7.28059901 9.44277378,6.62400511 C8.81115011,5.96741121 7.94943497,5.65028082 6.88920953,5.65028082 C5.73424055,5.65028082 4.81387464,5.98527771 4.11908861,6.66867136 C3.41076779,7.35206501 3.05886317,8.23645679 3.05886317,9.2861137 L3.05886317,9.54517796 L3.02728199,9.54517796 C1.10534141,9.54517796 0,10.5189022 0,12.2385529 L0,15.4679229 L2.21519442,15.4679229 L2.21519442,12.6360826 C2.21519442,11.7829572 2.59868022,11.510493 3.41527938,11.510493 L3.78523039,11.510493 C4.06043784,11.8901562 4.44843523,12.2564194 4.92215298,12.5914163 L6.47414256,12.5914163 C7.81408704,12.5914163 8.8427313,12.2251531 9.53300573,11.510493 L11.6985726,11.510493 C13.128749,11.510493 14.1303237,11.2380289 14.6672038,10.688634 C15.068736,11.2380289 15.7725452,11.510493 16.7741199,11.510493 L16.7741199,11.510493 C18.1411339,11.510493 19.1111274,11.2380289 19.6480075,10.688634 C20.0495397,11.2380289 20.7398142,11.510493 21.7368772,11.510493 L22.1519442,11.510493 C23.3971452,11.510493 23.9971876,11.3452279 24.5521141,10.903032 C25.0574131,11.3139615 25.8108499,11.510493 26.8124245,11.510493 C27.737302,11.510493 28.4591577,11.3139615 28.9960378,10.9298318 C29.5644991,11.3094949 30.2412387,11.510493 31.0397915,11.510493 C32.7767566,11.510493 34.0084227,10.474236 34.0084227,8.87518419 L34.0084227,5.0249533 L31.7345775,5.0249533 L31.7345775,8.33025592 L31.7345775,8.33025592 Z M6.50121214,10.6305679 L5.74777534,10.6305679 C5.47256789,10.295571 5.33270836,9.8712416 5.33270836,9.33524658 C5.33270836,8.40618855 5.91921605,7.7049284 6.7628848,7.7049284 C7.60655355,7.7049284 8.09831769,8.37492217 8.09831769,9.15211495 C8.09831769,10.0186402 7.59301876,10.6305679 6.50121214,10.6305679 L6.50121214,10.6305679 Z" id="Shape" fill="#154F9C" fill-rule="nonzero"></path>
                        <path d="M44.8543033,12.0152217 C44.2407261,12.0152217 43.8256591,12.4574176 43.8256591,13.0648786 C43.8256591,13.6723396 44.2407261,14.0564694 44.8543033,14.0564694 C45.4678806,14.0564694 45.855878,13.6589397 45.855878,13.0648786 C45.855878,12.4708174 45.4543458,12.0152217 44.8543033,12.0152217 Z" id="Path" fill="#154F9C" fill-rule="nonzero"></path>
                        <path d="M43.5775212,4.85522155 C42.7789684,4.85522155 42.0841824,4.97582043 41.4841399,5.20361831 L41.9759041,7.06173437 C42.481203,6.95453537 42.9774787,6.89200262 43.4511965,6.89200262 C45.0031861,6.89200262 45.6663909,7.60666264 45.6663909,9.49604509 L45.6663909,9.54071134 L43.0045483,9.54071134 C40.8976322,9.54071134 39.5892689,10.6841674 39.5892689,12.6182161 C39.5892689,13.4847414 39.9276388,14.1860015 40.6043784,14.70413 C41.2675832,15.204392 42.1247868,15.4634563 43.1579426,15.4634563 L43.1895238,15.4634563 L43.0947803,13.5472741 L43.0812455,13.5472741 C42.4676682,13.5472741 41.9262765,13.1497445 41.9262765,12.5288836 C41.9262765,11.9080227 42.3729247,11.510493 43.0631991,11.510493 L47.5522387,11.510493 C47.705633,10.7020339 47.7823302,9.92930773 47.7823302,9.21018108 C47.7823302,6.3024081 46.3837349,4.85522155 43.568498,4.85522155 L43.5775212,4.85522155 Z" id="Path" fill="#154F9C" fill-rule="nonzero"></path>
                        <path d="M54.7707949,12.6852154 C54.0940552,12.6852154 53.6338723,13.1720776 53.6338723,13.8420714 C53.6338723,14.1636684 53.7421506,14.4361325 53.9587073,14.6505305 C54.3737743,15.06146 55.1903734,15.06146 55.587394,14.6505305 C55.7859043,14.4361325 55.8806479,14.1636684 55.8806479,13.8420714 C55.8806479,13.1720776 55.4475345,12.6852154 54.7707949,12.6852154 Z" id="Path" fill="#154F9C" fill-rule="nonzero"></path>
                        <path d="M54.2474495,7.93272628 C54.2474495,8.58932018 54.152706,9.02704944 53.9857769,9.22804758 C53.8008014,9.44244558 53.4488968,9.54964459 52.9075051,9.54964459 C51.9690928,9.54964459 51.585607,9.22804758 51.585607,8.49998768 L51.585607,0.00446662516 L49.3117618,0.00446662516 L49.3117618,8.53125405 C49.3117618,10.6037681 50.2637089,11.5149597 52.9120166,11.5149597 L52.9120166,11.5149597 C54.1887988,11.5149597 55.1091647,11.2692953 55.677626,10.8002996 C56.2460873,10.3268374 56.5258063,9.46031208 56.5258063,8.21412367 L56.5258063,5.03388655 L54.2519611,5.03388655 L54.2519611,7.94165953 L54.2474495,7.93272628 Z" id="Path" fill="#154F9C" fill-rule="nonzero"></path>
                        <path d="M66.3520659,12.6852154 C65.6888611,12.6852154 65.1970969,13.1854775 65.1970969,13.8420714 C65.106865,14.8157956 66.518995,15.3339242 67.1641535,14.632664 C67.3626638,14.418266 67.4709421,14.1592018 67.4709421,13.8420714 C67.4709421,13.1854775 66.979178,12.6852154 66.3475543,12.6852154 L66.3520659,12.6852154 Z" id="Path" fill="#154F9C" fill-rule="nonzero"></path>
                        <path d="M63.581945,12.6852154 C62.9187401,12.6852154 62.426976,13.1854775 62.426976,13.8420714 C62.336744,14.8157956 63.7488741,15.3205243 64.3940325,14.6505305 C64.5925428,14.4361325 64.7008212,14.1636684 64.7008212,13.8420714 C64.7008212,13.1720776 64.2406382,12.6852154 63.5774334,12.6852154 L63.581945,12.6852154 Z" id="Path" fill="#154F9C" fill-rule="nonzero"></path>
                        <path d="M65.7971394,10.7824331 C66.3520659,10.3089709 66.6272734,9.44244558 66.6272734,8.20965704 L66.6272734,5.02941993 L64.3489166,5.02941993 L64.3489166,7.93719291 C64.3489166,8.5937868 64.2586846,9.01811619 64.0737091,9.2325142 C63.8751988,9.44691221 63.4736666,9.55411121 62.8600894,9.55411121 L61.1998214,9.55411121 L61.1998214,5.03388655 L58.9259763,5.03388655 L58.9259763,11.0325641 C58.9259763,12.0241549 58.4657933,12.3859516 57.15743,12.5244169 L57.4326374,14.4271993 C59.7064826,14.3200003 60.879498,13.453475 61.1366591,11.5194263 L62.9187401,11.5194263 C64.2722194,11.5194263 65.2241665,11.2737619 65.7971394,10.7868998 L65.7971394,10.7824331 Z" id="Path" fill="#154F9C" fill-rule="nonzero"></path>
                        <rect id="Rectangle" fill="#154F9C" fill-rule="nonzero" x="69.0545129" y="0" width="2.27384519" height="11.510493"></rect>
                    </g>
                    <path d="M49.2150542,26.3821076 C50.0722578,25.5334488 50.0722578,24.1532616 49.2150542,23.3046028 C48.3578507,22.4559441 46.9727902,22.4559441 46.1200983,23.3046028 L36.7179289,32.6487827 L33.8846456,29.8348088 C33.027442,28.98615 31.6423816,28.98615 30.785178,29.8348088 C29.9279745,30.6834676 29.9279745,32.0636548 30.785178,32.9123136 L35.1659393,37.2672731 C36.0231428,38.1159319 37.4082033,38.1159319 38.2654068,37.2672731 L49.2150542,26.3821076 L49.2150542,26.3821076 Z" id="Path" fill="#F1B85B" fill-rule="nonzero"></path>
                </g>
            </g>
        </g>
    </g>
</svg>