<?xml version="1.0" encoding="UTF-8"?>
<svg width="24px" height="24px" viewBox="0 0 24 24" version="1.1" xmlns="http://www.w3.org/2000/svg" xmlns:xlink="http://www.w3.org/1999/xlink">
    <title>57A0CA67-A1F2-48D6-ADFF-5094AEED4915</title>
    <g id="Single-Payment-Link" stroke="none" stroke-width="1" fill="none" fill-rule="evenodd">
        <g id="Payment---Single-Page---Paid-Bank" transform="translate(-354.000000, -244.000000)">
            <g id="Check" transform="translate(366.000000, 256.000000) rotate(-270.000000) translate(-366.000000, -256.000000) translate(354.000000, 244.000000)">
                <polygon id="Path" points="5.68434189e-14 0 24 0 24 24 5.68434189e-14 24"></polygon>
                <g id="check" transform="translate(12.000000, 12.000000) rotate(-90.000000) translate(-12.000000, -12.000000) translate(4.000000, 4.000000)" fill="#6D7A8D" fill-rule="nonzero">
                    <path d="M8,-5.68434189e-14 C3.581722,-5.68434189e-14 0,3.581722 0,8 C0,12.418278 3.581722,16 8,16 C12.418278,16 16,12.418278 16,8 C15.9947902,3.58388178 12.4161182,0.00520981866 8,-5.68434189e-14 Z M8,14.5454545 C4.38504527,14.5454545 1.45454545,11.6149547 1.45454545,8 C1.45454545,4.38504527 4.38504527,1.45454545 8,1.45454545 C11.6149547,1.45454545 14.5454545,4.38504527 14.5454545,8 C14.5414465,11.6132932 11.6132932,14.5414465 8,14.5454545 L8,14.5454545 Z" id="Shape"></path>
                    <path d="M11.1447273,5.64581818 L7.29454545,9.17527273 L5.60509091,7.48581818 C5.42249129,7.29675885 5.15208881,7.22093629 4.89781286,7.28749298 C4.6435369,7.35404966 4.44495875,7.55262781 4.37840207,7.80690376 C4.31184538,8.06117971 4.38766794,8.3315822 4.57672727,8.51418182 L6.75854545,10.696 C7.03389998,10.9713981 7.47732588,10.9810169 7.76436364,10.7178182 L12.128,6.71781818 C12.3194944,6.54217343 12.4027371,6.27770996 12.3463714,6.0240486 C12.2900058,5.77038725 12.1025951,5.5660652 11.8547351,5.4880486 C11.6068751,5.410032 11.3362216,5.47017343 11.1447273,5.64581818 L11.1447273,5.64581818 Z" id="Path"></path>
                </g>
            </g>
        </g>
    </g>
</svg>