<?xml version="1.0" encoding="UTF-8"?>
<svg width="28px" height="31px" viewBox="0 0 28 31" version="1.1" xmlns="http://www.w3.org/2000/svg" xmlns:xlink="http://www.w3.org/1999/xlink">
    <title>Group 5</title>
    <defs>
        <polygon id="path-1" points="0 0 28 0 28 31 0 31"></polygon>
    </defs>
    <g id="Details-Page" stroke="none" stroke-width="1" fill="none" fill-rule="evenodd">
        <g id="Car-Details-Page---New-USPs" transform="translate(-353.000000, -1010.000000)">
            <g id="Group-5" transform="translate(353.000000, 1010.000000)">
                <g id="Group-3">
                    <mask id="mask-2" fill="white">
                        <use xlink:href="#path-1"></use>
                    </mask>
                    <g id="Clip-2"></g>
                    <path d="M13.9999913,1.45545688 C13.5492702,1.45545688 13.0985492,1.54617657 12.6789977,1.7281011 L3.50526622,5.65524521 C2.32428806,6.15687178 1.55098732,7.29014029 1.53218667,8.54323643 L1.50744896,10.0840159 C1.49705912,10.8354855 1.48765879,11.590351 1.48518502,12.3539489 C1.4822165,13.1117251 1.48617453,13.8670758 1.5005224,14.6185454 L1.50448043,14.8125982 C1.52080732,15.7624868 1.54356601,17.0602151 1.78747981,17.9693526 C2.43956578,20.4008345 3.80954002,22.6474811 5.86079073,24.6457401 C7.55779747,26.3005256 9.76539049,27.8252957 12.422715,29.1783291 C13.3775905,29.6654017 14.5165146,29.6673422 15.4723796,29.1822101 C18.289015,27.753011 20.5980326,26.1462536 22.3351144,24.4070552 C24.4778947,22.2603457 25.8023515,19.8584569 26.2733575,17.2673665 C26.3614237,16.7511859 26.4207942,16.2156001 26.4485005,15.6819549 C26.4791752,15.1711108 26.4910493,14.6311588 26.5014392,14.0766528 C26.5147975,13.4095962 26.517766,12.7396288 26.5147975,12.0677209 C26.5113342,11.3909617 26.5024287,10.7224497 26.4910493,10.0568485 L26.4608693,8.52965273 C26.4356369,7.27995252 25.6618414,6.15202045 24.4897688,5.65281955 L15.3209849,1.7281011 C14.9014333,1.54617657 14.4507123,1.45545688 13.9999913,1.45545688 M13.9515054,31 C13.1910682,31 12.4306311,30.8234119 11.7379753,30.4692655 C8.94805663,29.0487988 6.61825934,27.4367049 4.8143857,25.6781012 C2.5731494,23.4940366 1.07206531,21.0251995 0.351703261,18.3395083 C0.0627668374,17.2605746 0.0380291298,15.8609686 0.0202179804,14.8392805 L0.0162599472,14.646683 C0.0019120768,13.8840554 -0.0020459564,13.1175467 0.000922568503,12.3490975 C0.00339633926,11.5801632 0.0127966681,10.8204464 0.0231865053,10.0641255 L0.0479242128,8.52043523 C0.0751356911,6.69779403 1.20020663,5.04834499 2.9130455,4.32064689 L12.0818294,0.3954433 C13.2994194,-0.131895261 14.6985841,-0.131895261 15.9191426,0.395928432 L25.0819895,4.31870636 C26.7839438,5.04252341 27.9080252,6.6837252 27.9451318,8.49908941 L27.9753118,10.0335622 C27.9866911,10.7040147 27.9955967,11.3783483 27.99906,12.0609291 C28.0020285,12.7449653 27.99906,13.4265759 27.9857016,14.1043054 C27.9743223,14.6733653 27.9624482,15.2293266 27.9302891,15.7610314 C27.9006039,16.3451304 27.8348016,16.9374767 27.7358508,17.515269 C27.2104219,20.4066561 25.7508971,23.065665 23.3953726,25.4248622 C21.5479606,27.275156 19.1112964,28.9740885 16.1541508,30.474602 C15.4644636,30.8253525 14.7079845,31 13.9515054,31" id="Fill-1" fill="#F1B85B" mask="url(#mask-2)"></path>
                </g>
                <path d="M15.324745,3.64708952 L22.8148281,6.86788134 C23.994322,7.37144843 24.7661384,8.50277642 24.7908762,9.7641198 C24.7958237,9.97321173 24.8002765,10.1823036 24.8042345,10.3913956 C24.8081925,10.5922402 24.8121506,10.8013322 24.8161086,11.0215821 C24.8250142,11.5697814 24.8324355,12.1213765 24.835404,12.6792784 C24.8378778,13.23621 24.835404,13.790716 24.8245194,14.3423112 C24.8156139,14.7828111 24.8057188,15.2465973 24.7804863,15.6793351 C24.7567381,16.1406957 24.7062732,16.6001158 24.6285968,17.0556548 C24.1852971,19.5075123 22.9246635,21.5416711 21.2454679,23.2304158 C19.5939786,24.891508 17.5447069,26.2120375 15.4820768,27.2633187 C14.525717,27.7513616 13.386793,27.7499062 12.4314227,27.2599228 C10.4469638,26.2450265 8.51148557,24.990475 6.91986147,23.4327159 C5.30201539,21.8487597 4.03841329,19.9533487 3.4318447,17.6795347 C3.21464763,16.8674236 3.19535222,15.7870345 3.18050959,14.9472708 L3.17704632,14.7876624 C3.16517222,14.1662082 3.16220369,13.5413581 3.16467746,12.9155377 C3.16665648,12.2858363 3.17407779,11.6643821 3.18298337,11.0453536 C3.18595189,10.822678 3.18892042,10.6121307 3.19238369,10.411286 C3.19584697,10.2007387 3.19931025,9.99019135 3.20326829,9.77964403 C3.22206894,8.51344932 3.99536968,7.37532949 5.17931636,6.870307 L12.6753365,3.64708952 C13.5188923,3.27984454 14.4811892,3.27984454 15.324745,3.64708952" id="Fill-4" fill="#3C56D4"></path>
                <path d="M11,11.51559 L11,9.31064601 C11,9.13925511 11.1409308,9 11.3153545,9 L15.6846455,9 C15.8590692,9 16,9.13925511 16,9.31064601 L16,21.689354 C16,21.8607449 15.8590692,22 15.6846455,22 L13.1183123,22 C12.9443236,22 12.8033928,21.8607449 12.8033928,21.689354 L12.8033928,12.1364535 C12.8033928,11.9650626 12.662027,11.826236 12.4880383,11.826236 L11.3153545,11.826236 C11.1409308,11.826236 11,11.6869809 11,11.51559" id="Fill-6" fill="#FFFFFF"></path>
            </g>
        </g>
    </g>
</svg>