<?xml version="1.0" encoding="UTF-8"?>
<svg width="363px" height="80px" viewBox="0 0 363 80" version="1.1" xmlns="http://www.w3.org/2000/svg" xmlns:xlink="http://www.w3.org/1999/xlink">
    <title>A1AEE04D-D306-4C08-87EF-E04164EEA127</title>
    <defs>
        <polygon id="path-1" points="0 0 72.2420486 0 72.2420486 18.2717208 0 18.2717208"></polygon>
        <polygon id="path-3" points="0 0 9.27701199 0 9.27701199 12.919578 0 12.919578"></polygon>
    </defs>
    <g id="Details-Page-2.0" stroke="none" stroke-width="1" fill="none" fill-rule="evenodd">
        <g id="Car-Details-Page---Marketing-Theme" transform="translate(-734.000000, -2638.000000)">
            <g id="Group-3" transform="translate(734.000000, 2638.000000)">
                <path d="M254.860299,23.1428571 C255.000354,23.1428571 255.060378,23.0828571 255.060378,22.9428571 L255.060378,21.4828571 C255.060378,21.3428571 255.000354,21.2828571 254.860299,21.2828571 L253.499764,21.2828571 C253.359709,21.2828571 253.299685,21.3428571 253.299685,21.4828571 L253.299685,22.9428571 C253.299685,23.0828571 253.359709,23.1428571 253.499764,23.1428571 L254.860299,23.1428571 Z M252.659433,33.3028571 C254.340094,33.3028571 255.000354,32.5428571 255.000354,30.7828571 L255.000354,25.3228571 C255.000354,25.1828571 254.940331,25.1228571 254.800276,25.1228571 L253.519772,25.1228571 C253.379717,25.1228571 253.319693,25.1828571 253.319693,25.3228571 L253.319693,30.6828571 C253.319693,31.4828571 253.019575,31.7428571 252.359315,31.7428571 L251.098819,31.7428571 C250.538598,31.7428571 250.298504,31.9428571 250.298504,32.6028571 C250.298504,33.1628571 250.558606,33.3028571 251.098819,33.3028571 L252.659433,33.3028571 Z M246.376961,23.1428571 C246.517016,23.1428571 246.577039,23.0828571 246.577039,22.9428571 L246.577039,21.4828571 C246.577039,21.3428571 246.517016,21.2828571 246.376961,21.2828571 L245.016425,21.2828571 C244.87637,21.2828571 244.816346,21.3428571 244.816346,21.4828571 L244.816346,22.9428571 C244.816346,23.0828571 244.87637,23.1428571 245.016425,23.1428571 L246.376961,23.1428571 Z M245.716701,32.8228571 C246.410307,33.2495238 247.151339,33.2969312 247.981954,33.3021987 L250.958764,33.3028571 C251.518984,33.3028571 251.759079,33.1028571 251.759079,32.4428571 C251.759079,31.8828571 251.498976,31.7428571 250.958764,31.7428571 L248.177669,31.7428571 C248.017606,31.7428571 247.917567,31.7428571 247.877551,31.7628571 C248.997992,30.9828571 249.658252,29.7628571 249.658252,28.4028571 C249.658252,26.2628571 248.397756,24.7628571 245.696693,24.7628571 C242.99563,24.7628571 241.735134,26.2628571 241.735134,28.4028571 C241.735134,29.7628571 242.375386,30.9628571 243.495827,31.7428571 L240.554669,31.7428571 C239.994449,31.7428571 239.754354,31.8428571 239.754354,32.5028571 C239.754354,33.0428571 240.014457,33.3028571 240.554669,33.3028571 L242.975622,33.3028571 C243.755929,33.3028571 244.836354,33.3028571 245.716701,32.8228571 Z M245.696693,31.4028571 C244.476213,30.9228571 243.495827,29.9428571 243.495827,28.5028571 C243.495827,27.0628571 244.416189,26.3228571 245.696693,26.3228571 C246.977197,26.3228571 247.897559,27.0628571 247.897559,28.5028571 C247.897559,29.9428571 246.917173,30.9228571 245.696693,31.4028571 Z M235.672748,33.3028571 C236.893228,33.3028571 237.693543,33.0028571 238.153724,32.1428571 C238.453843,32.9228571 239.23415,33.3028571 240.134504,33.3028571 L240.554669,33.3028571 C241.11489,33.3028571 241.354984,33.1828571 241.354984,32.4828571 C241.354984,31.9428571 241.094882,31.7428571 240.554669,31.7428571 L240.334583,31.7428571 C239.294173,31.7428571 238.593898,31.3228571 238.533874,30.5028571 C238.513866,30.2828571 238.553882,30.0828571 238.553882,29.8428571 C238.553882,27.2228571 237.653528,24.7628571 233.992087,24.7628571 C232.391457,24.7628571 231.311031,25.4428571 230.57074,26.3828571 C230.490709,26.4828571 230.510717,26.5628571 230.630764,26.6628571 L231.51111,27.3828571 C231.61115,27.4628571 231.711189,27.4628571 231.79122,27.3628571 C232.371449,26.7228571 233.151756,26.3228571 234.05211,26.3228571 C236.112921,26.3228571 236.773181,27.7428571 236.773181,29.8428571 C236.773181,31.3028571 236.553094,31.7428571 235.052504,31.7428571 L229.370268,31.7428571 C228.810047,31.7428571 228.569953,31.8428571 228.569953,32.5028571 C228.569953,33.0428571 228.830055,33.3028571 229.370268,33.3028571 L235.672748,33.3028571 Z M213.243921,37.2828571 C216.145063,37.2828571 217.765701,35.8028571 217.925764,33.3028571 L224.348291,33.3028571 C225.648803,33.3028571 226.469126,32.9628571 226.929307,32.0628571 C227.229425,32.8628571 228.009732,33.3028571 228.950102,33.3028571 L229.35026,33.3028571 C229.91048,33.3028571 230.150575,33.1828571 230.150575,32.4828571 C230.150575,31.9428571 229.890472,31.7428571 229.35026,31.7428571 L229.150181,31.7428571 C228.02974,31.7428571 227.349472,31.2828571 227.349472,30.3828571 C227.349472,30.1628571 227.36948,29.8428571 227.36948,29.5028571 C227.36948,26.9428571 226.329071,24.7628571 222.587598,24.7628571 C220.906937,24.7628571 219.246283,25.3028571 217.945772,26.0028571 L217.945772,25.3028571 C217.945772,25.1628571 217.885748,25.1028571 217.745693,25.1028571 L216.465189,25.1028571 C216.325134,25.1028571 216.26511,25.1628571 216.26511,25.3028571 L216.26511,32.8828571 C216.26511,34.8628571 215.04463,35.6828571 213.343961,35.6828571 C211.983425,35.6828571 210.24274,35.0428571 210.24274,32.7428571 C210.24274,31.5428571 210.782953,30.3828571 211.263142,29.6428571 C211.323165,29.5428571 211.303157,29.4428571 211.203118,29.3828571 L210.102685,28.7828571 C209.96263,28.7028571 209.882598,28.7028571 209.822575,28.8028571 C209.122299,29.7828571 208.522063,31.3028571 208.522063,32.9028571 C208.522063,35.7028571 210.382795,37.2828571 213.243921,37.2828571 Z M223.768063,31.7428571 L217.945772,31.7428571 L217.945772,27.5628571 C219.106228,26.9828571 220.846913,26.3228571 222.467551,26.3228571 C224.868496,26.3228571 225.58878,27.4628571 225.58878,29.4428571 C225.58878,31.3028571 225.288661,31.7428571 223.768063,31.7428571 Z M189.374528,33.3028571 C190.434945,33.3028571 191.115213,32.9628571 191.455346,32.2628571 C191.79548,32.9628571 192.45574,33.3028571 193.316079,33.3028571 L194.276457,33.3028571 C195.336874,33.3028571 196.017142,32.9628571 196.357276,32.2628571 C196.697409,32.9628571 197.357669,33.3028571 198.218008,33.3028571 L199.178386,33.3028571 C200.859047,33.3028571 201.519307,32.5428571 201.519307,30.7828571 L201.519307,25.3228571 C201.519307,25.1828571 201.459283,25.1228571 201.319228,25.1228571 L200.038724,25.1228571 C199.898669,25.1228571 199.838646,25.1828571 199.838646,25.3228571 L199.838646,30.6828571 C199.838646,31.4828571 199.538528,31.7428571 198.878268,31.7428571 L198.378071,31.7428571 C197.317654,31.7428571 196.617378,31.2828571 196.617378,30.3828571 L196.617378,27.0428571 C196.617378,26.9028571 196.557354,26.8428571 196.417299,26.8428571 L195.136795,26.8428571 C194.99674,26.8428571 194.936717,26.9028571 194.936717,27.0428571 L194.936717,30.6828571 C194.936717,31.4828571 194.636598,31.7428571 193.976339,31.7428571 L193.476142,31.7428571 C192.415724,31.7428571 191.715449,31.2828571 191.715449,30.3828571 L191.715449,27.0428571 C191.715449,26.9028571 191.655425,26.8428571 191.51537,26.8428571 L190.234866,26.8428571 C190.094811,26.8428571 190.034787,26.9028571 190.034787,27.0428571 L190.034787,30.6828571 C190.034787,31.4828571 189.734669,31.7428571 189.074409,31.7428571 L187.213677,31.7428571 C186.653457,31.7428571 186.413362,31.9428571 186.413362,32.6028571 C186.413362,33.1628571 186.673465,33.3028571 187.213677,33.3028571 L189.374528,33.3028571 Z M182.831953,33.3028571 C183.89237,33.3028571 184.572638,32.9628571 184.912772,32.2628571 C185.252906,32.9628571 185.913165,33.3028571 186.773504,33.3028571 L187.213677,33.3028571 C187.773898,33.3028571 188.013992,33.1828571 188.013992,32.4828571 C188.013992,31.9428571 187.75389,31.7428571 187.213677,31.7428571 L186.973583,31.7428571 C185.853142,31.7428571 185.172874,31.2828571 185.172874,30.3828571 L185.172874,25.3228571 C185.172874,25.1828571 185.11285,25.1228571 184.972795,25.1228571 L183.692291,25.1228571 C183.552236,25.1228571 183.492213,25.1828571 183.492213,25.3228571 L183.492213,30.6828571 C183.492213,31.4828571 183.192094,31.7428571 182.531835,31.7428571 L181.171299,31.7428571 C180.611079,31.7428571 180.370984,31.9428571 180.370984,32.6028571 C180.370984,33.1628571 180.631087,33.3028571 181.171299,33.3028571 L182.831953,33.3028571 Z M183.572244,37.0228571 C183.712299,37.0228571 183.772323,36.9628571 183.772323,36.8228571 L183.772323,35.3628571 C183.772323,35.2228571 183.712299,35.1628571 183.572244,35.1628571 L182.211709,35.1628571 C182.071654,35.1628571 182.01163,35.2228571 182.01163,35.3628571 L182.01163,36.8228571 C182.01163,36.9628571 182.071654,37.0228571 182.211709,37.0228571 L183.572244,37.0228571 Z M186.013205,37.0228571 C186.15326,37.0228571 186.213283,36.9628571 186.213283,36.8228571 L186.213283,35.3628571 C186.213283,35.2228571 186.15326,35.1628571 186.013205,35.1628571 L184.652669,35.1628571 C184.512614,35.1628571 184.452591,35.2228571 184.452591,35.3628571 L184.452591,36.8228571 C184.452591,36.9628571 184.512614,37.0228571 184.652669,37.0228571 L186.013205,37.0228571 Z M181.031244,33.3028571 C181.591465,33.3028571 181.831559,33.2028571 181.831559,32.5428571 C181.831559,32.0028571 181.571457,31.7428571 181.031244,31.7428571 L180.150898,31.7428571 C179.490638,31.7428571 179.19052,31.4828571 179.19052,30.6828571 L179.19052,19.9028571 C179.19052,19.7628571 179.130496,19.7028571 178.990441,19.7028571 L177.709937,19.7028571 C177.569882,19.7028571 177.509858,19.7628571 177.509858,19.9028571 L177.509858,30.7828571 C177.509858,32.5428571 178.170118,33.3028571 179.85078,33.3028571 L181.031244,33.3028571 Z M171.587528,37.2828571 C173.688354,37.2828571 174.808795,36.1428571 174.808795,33.9828571 L174.808795,25.3228571 C174.808795,25.1828571 174.748772,25.1228571 174.608717,25.1228571 L173.328213,25.1228571 C173.188157,25.1228571 173.128134,25.1828571 173.128134,25.3228571 L173.128134,34.0228571 C173.128134,35.1628571 172.587921,35.7228571 171.507496,35.7228571 L171.047315,35.7228571 C170.90726,35.7228571 170.847236,35.7828571 170.847236,35.9228571 L170.847236,37.0828571 C170.847236,37.2228571 170.90726,37.2828571 171.047315,37.2828571 L171.587528,37.2828571 Z M169.246606,33.3028571 C169.386661,33.3028571 169.446685,33.2428571 169.446685,33.1028571 L169.446685,19.9028571 C169.446685,19.7628571 169.386661,19.7028571 169.246606,19.7028571 L167.966102,19.7028571 C167.826047,19.7028571 167.766024,19.7628571 167.766024,19.9028571 L167.766024,33.1028571 C167.766024,33.2428571 167.826047,33.3028571 167.966102,33.3028571 L169.246606,33.3028571 Z M163.504346,23.1428571 C163.644402,23.1428571 163.704425,23.0828571 163.704425,22.9428571 L163.704425,21.4828571 C163.704425,21.3428571 163.644402,21.2828571 163.504346,21.2828571 L162.143811,21.2828571 C162.003756,21.2828571 161.943732,21.3428571 161.943732,21.4828571 L161.943732,22.9428571 C161.943732,23.0828571 162.003756,23.1428571 162.143811,23.1428571 L163.504346,23.1428571 Z M165.945307,23.1428571 C166.085362,23.1428571 166.145386,23.0828571 166.145386,22.9428571 L166.145386,21.4828571 C166.145386,21.3428571 166.085362,21.2828571 165.945307,21.2828571 L164.584772,21.2828571 C164.444717,21.2828571 164.384693,21.3428571 164.384693,21.4828571 L164.384693,22.9428571 C164.384693,23.0828571 164.444717,23.1428571 164.584772,23.1428571 L165.945307,23.1428571 Z M162.523961,33.3028571 C164.204622,33.3028571 164.864882,32.5428571 164.864882,30.7828571 L164.864882,25.3228571 C164.864882,25.1828571 164.804858,25.1228571 164.664803,25.1228571 L163.384299,25.1228571 C163.244244,25.1228571 163.18422,25.1828571 163.18422,25.3228571 L163.18422,30.6828571 C163.18422,31.4828571 162.884102,31.7428571 162.223843,31.7428571 L160.843299,31.7428571 C160.283079,31.7428571 160.042984,31.9428571 160.042984,32.6028571 C160.042984,33.1628571 160.303087,33.3028571 160.843299,33.3028571 L162.523961,33.3028571 Z M158.822504,23.1428571 C158.962559,23.1428571 159.022583,23.0828571 159.022583,22.9428571 L159.022583,21.4828571 C159.022583,21.3428571 158.962559,21.2828571 158.822504,21.2828571 L157.461969,21.2828571 C157.321913,21.2828571 157.26189,21.3428571 157.26189,21.4828571 L157.26189,22.9428571 C157.26189,23.0828571 157.321913,23.1428571 157.461969,23.1428571 L158.822504,23.1428571 Z M156.621638,33.3028571 C157.682055,33.3028571 158.362323,32.9628571 158.702457,32.2628571 C159.042591,32.9628571 159.70285,33.3028571 160.563189,33.3028571 L161.003362,33.3028571 C161.563583,33.3028571 161.803677,33.1828571 161.803677,32.4828571 C161.803677,31.9428571 161.543575,31.7428571 161.003362,31.7428571 L160.763268,31.7428571 C159.642827,31.7428571 158.962559,31.2828571 158.962559,30.3828571 L158.962559,25.3228571 C158.962559,25.1828571 158.902535,25.1228571 158.76248,25.1228571 L157.481976,25.1228571 C157.341921,25.1228571 157.281898,25.1828571 157.281898,25.3228571 L157.281898,30.6828571 C157.281898,31.4828571 156.98178,31.7428571 156.32152,31.7428571 L155.061024,31.7428571 C154.500803,31.7428571 154.260709,31.9428571 154.260709,32.6028571 C154.260709,33.1628571 154.520811,33.3028571 155.061024,33.3028571 L156.621638,33.3028571 Z M154.920969,33.3028571 C155.481189,33.3028571 155.721283,33.2028571 155.721283,32.5428571 C155.721283,32.0028571 155.461181,31.7428571 154.920969,31.7428571 L154.040622,31.7428571 C153.380362,31.7428571 153.080244,31.4828571 153.080244,30.6828571 L153.080244,19.9028571 C153.080244,19.7628571 153.02022,19.7028571 152.880165,19.7028571 L151.599661,19.7028571 C151.459606,19.7028571 151.399583,19.7628571 151.399583,19.9028571 L151.399583,30.7828571 C151.399583,32.5428571 152.059843,33.3028571 153.740504,33.3028571 L154.920969,33.3028571 Z M139.995094,21.2028571 C140.075126,21.2028571 140.115142,21.1628571 140.115142,21.0628571 L140.115142,20.5028571 C140.115142,20.4028571 140.075126,20.3628571 139.995094,20.3628571 L137.934283,20.3628571 C137.634165,20.1428571 137.254016,19.6828571 137.254016,19.1028571 C137.254016,18.4828571 137.614157,17.9628571 138.354449,17.9628571 C138.754606,17.9628571 139.074732,18.1628571 139.314827,18.4228571 C139.37485,18.4828571 139.434874,18.4628571 139.534913,18.3828571 L139.955079,18.0428571 C139.995094,18.0028571 139.995094,17.9428571 139.955079,17.8428571 C139.634953,17.3828571 139.114748,17.1428571 138.374457,17.1428571 C136.83385,17.1428571 136.333654,18.2628571 136.333654,19.1228571 C136.333654,19.6228571 136.473709,20.0628571 136.693795,20.3628571 L135.933496,20.3628571 C135.853465,20.3628571 135.813449,20.4028571 135.813449,20.5028571 L135.813449,21.0628571 C135.813449,21.1628571 135.853465,21.2028571 135.933496,21.2028571 L139.995094,21.2028571 Z M141.455669,33.3028571 C143.136331,33.3028571 143.796591,32.5428571 143.796591,30.7828571 L143.796591,19.9028571 C143.796591,19.7628571 143.736567,19.7028571 143.596512,19.7028571 L142.316008,19.7028571 C142.175953,19.7028571 142.115929,19.7628571 142.115929,19.9028571 L142.115929,30.6828571 C142.115929,31.4828571 141.815811,31.7428571 141.155551,31.7428571 L138.81463,31.7428571 L138.81463,22.7228571 C138.81463,22.5828571 138.754606,22.5228571 138.614551,22.5228571 L137.334047,22.5228571 C137.193992,22.5228571 137.133969,22.5828571 137.133969,22.7228571 L137.133969,31.7428571 L133.192417,31.7428571 C133.052362,31.7428571 132.992339,31.8028571 132.992339,31.9428571 L132.992339,33.1028571 C132.992339,33.2428571 133.052362,33.3028571 133.192417,33.3028571 L141.455669,33.3028571 Z M128.210457,33.3028571 C130.211244,33.3028571 131.091591,32.5428571 131.091591,29.8828571 L131.091591,28.6828571 C131.091591,26.2228571 129.671031,25.1228571 127.650236,25.1228571 L125.869535,25.1228571 L129.470953,20.9028571 C129.530976,20.8028571 129.490961,20.7228571 129.390921,20.6228571 L128.430543,19.8228571 C128.330504,19.7628571 128.250472,19.7828571 128.170441,19.8828571 L123.788717,25.0428571 C123.728693,25.1028571 123.608646,25.2228571 123.608646,25.3628571 L123.608646,26.4828571 C123.608646,26.6228571 123.668669,26.6828571 123.808724,26.6828571 L127.029992,26.6828571 C128.550591,26.6828571 129.31089,27.3628571 129.31089,28.7028571 L129.31089,29.9428571 C129.31089,31.3028571 129.090803,31.7428571 127.590213,31.7428571 L122.328142,31.7428571 C121.767921,31.7428571 121.527827,31.8428571 121.527827,32.5028571 C121.527827,33.0428571 121.787929,33.3028571 122.328142,33.3028571 L128.210457,33.3028571 Z M120.147283,20.8028571 C120.287339,20.8028571 120.347362,20.7428571 120.347362,20.6028571 L120.347362,19.1428571 C120.347362,19.0028571 120.287339,18.9428571 120.147283,18.9428571 L118.786748,18.9428571 C118.646693,18.9428571 118.586669,19.0028571 118.586669,19.1428571 L118.586669,20.6028571 C118.586669,20.7428571 118.646693,20.8028571 118.786748,20.8028571 L120.147283,20.8028571 Z M118.906795,23.1428571 C119.04685,23.1428571 119.106874,23.0828571 119.106874,22.9428571 L119.106874,21.4828571 C119.106874,21.3428571 119.04685,21.2828571 118.906795,21.2828571 L117.54626,21.2828571 C117.406205,21.2828571 117.346181,21.3428571 117.346181,21.4828571 L117.346181,22.9428571 C117.346181,23.0828571 117.406205,23.1428571 117.54626,23.1428571 L118.906795,23.1428571 Z M121.347756,23.1428571 C121.487811,23.1428571 121.547835,23.0828571 121.547835,22.9428571 L121.547835,21.4828571 C121.547835,21.3428571 121.487811,21.2828571 121.347756,21.2828571 L119.98722,21.2828571 C119.847165,21.2828571 119.787142,21.3428571 119.787142,21.4828571 L119.787142,22.9428571 C119.787142,23.0828571 119.847165,23.1428571 119.98722,23.1428571 L121.347756,23.1428571 Z M117.946417,33.3028571 C119.006835,33.3028571 119.687102,32.9628571 120.027236,32.2628571 C120.36737,32.9628571 121.02763,33.3028571 121.887969,33.3028571 L122.328142,33.3028571 C122.888362,33.3028571 123.128457,33.1828571 123.128457,32.4828571 C123.128457,31.9428571 122.868354,31.7428571 122.328142,31.7428571 L122.088047,31.7428571 C120.967606,31.7428571 120.287339,31.2828571 120.287339,30.3828571 L120.287339,25.3228571 C120.287339,25.1828571 120.227315,25.1228571 120.08726,25.1228571 L118.806756,25.1228571 C118.666701,25.1228571 118.606677,25.1828571 118.606677,25.3228571 L118.606677,30.6828571 C118.606677,31.4828571 118.306559,31.7428571 117.646299,31.7428571 L116.285764,31.7428571 C115.725543,31.7428571 115.485449,31.9428571 115.485449,32.6028571 C115.485449,33.1628571 115.745551,33.3028571 116.285764,33.3028571 L117.946417,33.3028571 Z M110.903646,37.2828571 C113.004472,37.2828571 114.124913,36.1428571 114.124913,33.9828571 L114.124913,32.6628571 C114.505063,33.0828571 115.045276,33.3028571 115.725543,33.3028571 L116.145709,33.3028571 C116.705929,33.3028571 116.946024,33.1828571 116.946024,32.4828571 C116.946024,31.9428571 116.685921,31.7428571 116.145709,31.7428571 L115.925622,31.7428571 C114.805181,31.7428571 114.124913,31.2828571 114.124913,30.3828571 L114.124913,25.3228571 C114.124913,25.1828571 114.06489,25.1228571 113.924835,25.1228571 L112.644331,25.1228571 C112.504276,25.1228571 112.444252,25.1828571 112.444252,25.3228571 L112.444252,34.0228571 C112.444252,35.1628571 111.904039,35.7228571 110.823614,35.7228571 L110.363433,35.7228571 C110.223378,35.7228571 110.163354,35.7828571 110.163354,35.9228571 L110.163354,37.0828571 C110.163354,37.2228571 110.223378,37.2828571 110.363433,37.2828571 L110.903646,37.2828571 Z M100.439528,33.4428571 C102.780449,33.4428571 104.261031,32.1628571 104.261031,29.1228571 C104.261031,26.0628571 102.840472,24.7628571 100.439528,24.7628571 C98.0385827,24.7628571 96.6180236,26.0628571 96.6180236,29.1228571 C96.6180236,29.4228571 96.6380315,29.6628571 96.6380315,29.9228571 C96.6380315,31.3028571 95.9777717,31.7428571 95.3975433,31.7428571 L94.3971496,31.7428571 C93.8369291,31.7428571 93.5968346,31.8428571 93.5968346,32.5028571 C93.5968346,33.0428571 93.856937,33.3028571 94.3971496,33.3028571 L95.2574882,33.3028571 C95.9977795,33.3028571 96.9981732,33.1828571 97.5583937,32.3228571 C98.2186535,33.1028571 99.1590236,33.4428571 100.439528,33.4428571 Z M100.439528,31.8828571 C98.9189291,31.8828571 98.298685,31.0428571 98.298685,29.1228571 C98.298685,27.3628571 98.9189291,26.3228571 100.439528,26.3228571 C101.960126,26.3228571 102.58037,27.3628571 102.58037,29.1228571 C102.58037,31.0428571 101.960126,31.8828571 100.439528,31.8828571 Z M89.1750945,26.3228571 C89.3151496,26.3228571 89.3751732,26.2628571 89.3751732,26.1228571 L89.3751732,24.6628571 C89.3751732,24.5228571 89.3151496,24.4628571 89.1750945,24.4628571 L87.8145591,24.4628571 C87.6745039,24.4628571 87.6144803,24.5228571 87.6144803,24.6628571 L87.6144803,26.1228571 C87.6144803,26.2628571 87.6745039,26.3228571 87.8145591,26.3228571 L89.1750945,26.3228571 Z M87.8145591,37.2828571 C90.8757638,37.2828571 92.5164094,35.6428571 92.5164094,32.9028571 L92.5164094,32.6628571 C92.8965591,33.0828571 93.4367717,33.3028571 94.1170394,33.3028571 L94.3971496,33.3028571 C94.9573701,33.3028571 95.1974646,33.1828571 95.1974646,32.4828571 C95.1974646,31.9428571 94.9373622,31.7428571 94.3971496,31.7428571 L94.3171181,31.7428571 C93.1966772,31.7428571 92.5164094,31.2828571 92.5164094,30.3828571 L92.5164094,27.0428571 C92.5164094,26.9028571 92.4563858,26.8428571 92.3163307,26.8428571 L91.0358268,26.8428571 C90.8957717,26.8428571 90.835748,26.9028571 90.835748,27.0428571 L90.835748,32.8828571 C90.835748,34.8628571 89.6152677,35.6828571 87.9145984,35.6828571 C86.554063,35.6828571 84.813378,35.0428571 84.813378,32.7428571 C84.813378,31.5428571 85.3535906,30.3828571 85.8337795,29.6428571 C85.8938031,29.5428571 85.8737953,29.4428571 85.7737559,29.3828571 L84.6733228,28.7828571 C84.5332677,28.7028571 84.4532362,28.7028571 84.3932126,28.8028571 C83.692937,29.7828571 83.0927008,31.3028571 83.0927008,32.9028571 C83.0927008,35.7028571 84.9534331,37.2828571 87.8145591,37.2828571 Z M51.2201575,33.3028571 C51.3602126,33.3028571 51.4202362,33.2428571 51.4202362,33.1028571 L51.4202362,19.9028571 C51.4202362,19.7628571 51.3602126,19.7028571 51.2201575,19.7028571 L50.019685,19.7028571 C49.8996378,19.7028571 49.7995984,19.7428571 49.6995591,19.8228571 L47.3586378,21.5228571 C47.2585984,21.6028571 47.2185827,21.7028571 47.2185827,21.8028571 L47.2185827,23.2828571 C47.2185827,23.4628571 47.2986142,23.5028571 47.4386693,23.4028571 L49.6995591,21.8228571 L49.7395748,21.8228571 L49.7395748,33.1028571 C49.7395748,33.2428571 49.7995984,33.3028571 49.9396535,33.3028571 L51.2201575,33.3028571 Z M61.1240551,33.5228571 C63.044811,33.5228571 64.3053071,32.6228571 64.8455197,30.9428571 C65.0055827,30.4028571 65.1456378,29.7028571 65.1456378,26.5028571 C65.1456378,23.5588571 65.0270951,22.7308571 64.8834892,22.1967272 L64.8455197,22.0628571 L64.8455197,22.0628571 C64.3053071,20.3828571 63.044811,19.4828571 61.1240551,19.4828571 C59.2032992,19.4828571 57.9428031,20.3828571 57.4025906,22.0628571 C57.2489301,22.5812571 57.1137089,23.2471131 57.103137,26.1307074 L57.1024724,26.5028571 C57.1024724,29.7028571 57.2425276,30.4028571 57.4025906,30.9428571 C57.9428031,32.6228571 59.2032992,33.5228571 61.1240551,33.5228571 Z M61.1240551,31.9628571 C60.0636378,31.9628571 59.3833701,31.5028571 59.0632441,30.6028571 C58.9154936,30.2151648 58.8529838,29.6911412 58.8442412,27.1745822 L58.8442412,25.8311321 C58.8529838,23.3145731 58.9154936,22.7905495 59.0632441,22.4028571 C59.3833701,21.5028571 60.0636378,21.0428571 61.1240551,21.0428571 C62.1844724,21.0428571 62.8647402,21.5028571 63.1848661,22.4028571 C63.3449291,22.8228571 63.4049528,23.4028571 63.4049528,26.5028571 C63.4049528,29.6028571 63.3449291,30.1828571 63.1848661,30.6028571 C62.8647402,31.5028571 62.1844724,31.9628571 61.1240551,31.9628571 Z M71.9683228,33.5228571 C73.8890787,33.5228571 75.1495748,32.6228571 75.6897874,30.9428571 C75.8498504,30.4028571 75.9899055,29.7028571 75.9899055,26.5028571 C75.9899055,23.5588571 75.8713629,22.7308571 75.7277569,22.1967272 L75.6897874,22.0628571 L75.6897874,22.0628571 C75.1495748,20.3828571 73.8890787,19.4828571 71.9683228,19.4828571 C70.0475669,19.4828571 68.7870709,20.3828571 68.2468583,22.0628571 C68.0931978,22.5812571 67.9579766,23.2471131 67.9474047,26.1307074 L67.9467402,26.5028571 C67.9467402,29.7028571 68.0867953,30.4028571 68.2468583,30.9428571 C68.7870709,32.6228571 70.0475669,33.5228571 71.9683228,33.5228571 Z M71.9683228,31.9628571 C70.9079055,31.9628571 70.2276378,31.5028571 69.9075118,30.6028571 C69.7597614,30.2151648 69.6972515,29.6911412 69.6885089,27.1745822 L69.6885089,25.8311321 C69.6972515,23.3145731 69.7597614,22.7905495 69.9075118,22.4028571 C70.2276378,21.5028571 70.9079055,21.0428571 71.9683228,21.0428571 C73.0287402,21.0428571 73.7090079,21.5028571 74.0291339,22.4028571 C74.1891969,22.8228571 74.2492205,23.4028571 74.2492205,26.5028571 C74.2492205,29.6028571 74.1891969,30.1828571 74.0291339,30.6028571 C73.7090079,31.5028571 73.0287402,31.9628571 71.9683228,31.9628571 Z M38.915315,23.1428571 C39.0553701,23.1428571 39.1153937,23.0828571 39.1153937,22.9428571 L39.1153937,21.4828571 C39.1153937,21.3428571 39.0553701,21.2828571 38.915315,21.2828571 L37.5547795,21.2828571 C37.4147244,21.2828571 37.3547008,21.3428571 37.3547008,21.4828571 L37.3547008,22.9428571 C37.3547008,23.0828571 37.4147244,23.1428571 37.5547795,23.1428571 L38.915315,23.1428571 Z M36.7144488,33.3028571 C38.3951102,33.3028571 39.0553701,32.5428571 39.0553701,30.7828571 L39.0553701,25.3228571 C39.0553701,25.1828571 38.9953465,25.1228571 38.8552913,25.1228571 L37.5747874,25.1228571 C37.4347323,25.1228571 37.3747087,25.1828571 37.3747087,25.3228571 L37.3747087,30.6828571 C37.3747087,31.4828571 37.0745906,31.7428571 36.4143307,31.7428571 L35.1538346,31.7428571 C34.5936142,31.7428571 34.3535197,31.9428571 34.3535197,32.6028571 C34.3535197,33.1628571 34.613622,33.3028571 35.1538346,33.3028571 L36.7144488,33.3028571 Z M29.2114961,23.1428571 C29.3515512,23.1428571 29.4115748,23.0828571 29.4115748,22.9428571 L29.4115748,21.4828571 C29.4115748,21.3428571 29.3515512,21.2828571 29.2114961,21.2828571 L27.8509606,21.2828571 C27.7109055,21.2828571 27.6508819,21.3428571 27.6508819,21.4828571 L27.6508819,22.9428571 C27.6508819,23.0828571 27.7109055,23.1428571 27.8509606,23.1428571 L29.2114961,23.1428571 Z M31.6524567,23.1428571 C31.7925118,23.1428571 31.8525354,23.0828571 31.8525354,22.9428571 L31.8525354,21.4828571 C31.8525354,21.3428571 31.7925118,21.2828571 31.6524567,21.2828571 L30.2919213,21.2828571 C30.1518661,21.2828571 30.0918425,21.3428571 30.0918425,21.4828571 L30.0918425,22.9428571 C30.0918425,23.0828571 30.1518661,23.1428571 30.2919213,23.1428571 L31.6524567,23.1428571 Z M29.7717165,32.8228571 C30.4653228,33.2495238 31.2063552,33.2969312 32.0369702,33.3021987 L35.0137795,33.3028571 C35.574,33.3028571 35.8140945,33.1028571 35.8140945,32.4428571 C35.8140945,31.8828571 35.5539921,31.7428571 35.0137795,31.7428571 L32.232685,31.7428571 C32.072622,31.7428571 31.9725827,31.7428571 31.9325669,31.7628571 C33.0530079,30.9828571 33.7132677,29.7628571 33.7132677,28.4028571 C33.7132677,26.2628571 32.4527717,24.7628571 29.7517087,24.7628571 C27.0506457,24.7628571 25.7901496,26.2628571 25.7901496,28.4028571 C25.7901496,29.7628571 26.4304016,30.9628571 27.5508425,31.7428571 L24.609685,31.7428571 C24.0494646,31.7428571 23.8093701,31.8428571 23.8093701,32.5028571 C23.8093701,33.0428571 24.0694724,33.3028571 24.609685,33.3028571 L27.0306378,33.3028571 C27.8109449,33.3028571 28.8913701,33.3028571 29.7717165,32.8228571 Z M29.7517087,31.4028571 C28.5312283,30.9228571 27.5508425,29.9428571 27.5508425,28.5028571 C27.5508425,27.0628571 28.4712047,26.3228571 29.7517087,26.3228571 C31.0322126,26.3228571 31.9525748,27.0628571 31.9525748,28.5028571 C31.9525748,29.9428571 30.972189,30.9228571 29.7517087,31.4028571 Z M10.8442677,33.3028571 C11.4044882,33.3028571 11.8446614,33.2228571 12.1847953,33.0428571 C12.3248504,33.2228571 12.544937,33.3028571 12.865063,33.3028571 L19.5877087,33.3028571 C20.8882205,33.3028571 21.7085433,32.9628571 22.1687244,32.0628571 C22.4688425,32.8628571 23.2491496,33.3028571 24.1895197,33.3028571 L24.609685,33.3028571 C25.1699055,33.3028571 25.41,33.1828571 25.41,32.4828571 C25.41,31.9428571 25.1498976,31.7428571 24.609685,31.7428571 L24.3895984,31.7428571 C23.2691575,31.7428571 22.5888898,31.2828571 22.5888898,30.3828571 C22.5888898,30.1628571 22.6088976,29.8428571 22.6088976,29.5028571 C22.6088976,26.9428571 21.5684882,24.7628571 17.8270157,24.7628571 C16.1463543,24.7628571 14.4857008,25.3028571 13.185189,26.0028571 L13.185189,19.9028571 C13.185189,19.7628571 13.1251654,19.7028571 12.9851102,19.7028571 L11.7046063,19.7028571 C11.5645512,19.7028571 11.5045276,19.7628571 11.5045276,19.9028571 L11.5045276,30.6828571 C11.5045276,31.4828571 11.2044094,31.7428571 10.5441496,31.7428571 L9.28365354,31.7428571 C8.72343307,31.7428571 8.48333858,31.9428571 8.48333858,32.6028571 C8.48333858,33.1628571 8.74344094,33.3028571 9.28365354,33.3028571 L10.8442677,33.3028571 Z M19.0074803,31.7428571 L13.0851496,31.7428571 C13.1451732,31.4028571 13.185189,31.0828571 13.185189,30.7828571 L13.185189,27.5628571 C14.3456457,26.9828571 16.0863307,26.3228571 17.7069685,26.3228571 C20.1079134,26.3228571 20.8281969,27.4628571 20.8281969,29.4428571 C20.8281969,31.3028571 20.5280787,31.7428571 19.0074803,31.7428571 Z M3.30129921,22.3428571 C3.44135433,22.3428571 3.50137795,22.2828571 3.50137795,22.1428571 L3.50137795,20.6828571 C3.50137795,20.5428571 3.44135433,20.4828571 3.30129921,20.4828571 L1.94076378,20.4828571 C1.80070866,20.4828571 1.74068504,20.5428571 1.74068504,20.6828571 L1.74068504,22.1428571 C1.74068504,22.2828571 1.80070866,22.3428571 1.94076378,22.3428571 L3.30129921,22.3428571 Z M5.74225984,22.3428571 C5.88231496,22.3428571 5.94233858,22.2828571 5.94233858,22.1428571 L5.94233858,20.6828571 C5.94233858,20.5428571 5.88231496,20.4828571 5.74225984,20.4828571 L4.38172441,20.4828571 C4.24166929,20.4828571 4.18164567,20.5428571 4.18164567,20.6828571 L4.18164567,22.1428571 C4.18164567,22.2828571 4.24166929,22.3428571 4.38172441,22.3428571 L5.74225984,22.3428571 Z M9.28365354,33.3028571 C9.84387402,33.3028571 10.0839685,33.2028571 10.0839685,32.5428571 C10.0839685,32.0028571 9.82386614,31.7428571 9.28365354,31.7428571 L8.40330709,31.7428571 C7.74304724,31.7428571 7.44292913,31.4828571 7.44292913,30.6828571 L7.44292913,23.9028571 C7.44292913,23.7628571 7.38290551,23.7028571 7.24285039,23.7028571 L5.96234646,23.7028571 C5.82229134,23.7028571 5.76226772,23.7628571 5.76226772,23.9028571 L5.76226772,24.7628571 L3.80149606,24.7628571 C1.82071654,24.7628571 0,25.8028571 0,28.7628571 C0,31.2628571 1.58062205,32.4228571 3.66144094,32.4228571 C4.56179528,32.4228571 5.30208661,32.1828571 5.84229921,31.7028571 C6.0823937,32.8428571 6.80267717,33.3028571 8.10318898,33.3028571 L9.28365354,33.3028571 Z M3.68144882,30.8628571 C2.40094488,30.8628571 1.68066142,30.1428571 1.68066142,28.7628571 C1.68066142,26.9228571 2.52099213,26.3228571 3.80149606,26.3228571 L5.76226772,26.3228571 L5.76226772,28.3228571 C5.76226772,29.9228571 5.20204724,30.8628571 3.68144882,30.8628571 Z M252.259276,59.0171429 C253.939937,59.0171429 254.600197,58.2571429 254.600197,56.4971429 L254.600197,45.6171429 C254.600197,45.4771429 254.540173,45.4171429 254.400118,45.4171429 L253.119614,45.4171429 C252.979559,45.4171429 252.919535,45.4771429 252.919535,45.6171429 L252.919535,56.3971429 C252.919535,57.1971429 252.619417,57.4571429 251.959157,57.4571429 L250.698661,57.4571429 C250.138441,57.4571429 249.898346,57.6571429 249.898346,58.3171429 C249.898346,58.8771429 250.158449,59.0171429 250.698661,59.0171429 L252.259276,59.0171429 Z M247.257307,48.8571429 C247.397362,48.8571429 247.457386,48.7971429 247.457386,48.6571429 L247.457386,47.1971429 C247.457386,47.0571429 247.397362,46.9971429 247.257307,46.9971429 L245.896772,46.9971429 C245.756717,46.9971429 245.696693,47.0571429 245.696693,47.1971429 L245.696693,48.6571429 C245.696693,48.7971429 245.756717,48.8571429 245.896772,48.8571429 L247.257307,48.8571429 Z M249.698268,48.8571429 C249.838323,48.8571429 249.898346,48.7971429 249.898346,48.6571429 L249.898346,47.1971429 C249.898346,47.0571429 249.838323,46.9971429 249.698268,46.9971429 L248.337732,46.9971429 C248.197677,46.9971429 248.137654,47.0571429 248.137654,47.1971429 L248.137654,48.6571429 C248.137654,48.7971429 248.197677,48.8571429 248.337732,48.8571429 L249.698268,48.8571429 Z M246.316937,59.0171429 C247.377354,59.0171429 248.057622,58.6771429 248.397756,57.9771429 C248.73789,58.6771429 249.39815,59.0171429 250.258488,59.0171429 L250.698661,59.0171429 C251.258882,59.0171429 251.498976,58.8971429 251.498976,58.1971429 C251.498976,57.6571429 251.238874,57.4571429 250.698661,57.4571429 L250.458567,57.4571429 C249.338126,57.4571429 248.657858,56.9971429 248.657858,56.0971429 L248.657858,51.0371429 C248.657858,50.8971429 248.597835,50.8371429 248.45778,50.8371429 L247.177276,50.8371429 C247.03722,50.8371429 246.977197,50.8971429 246.977197,51.0371429 L246.977197,56.3971429 C246.977197,57.1971429 246.677079,57.4571429 246.016819,57.4571429 L244.656283,57.4571429 C244.096063,57.4571429 243.855969,57.6571429 243.855969,58.3171429 C243.855969,58.8771429 244.116071,59.0171429 244.656283,59.0171429 L246.316937,59.0171429 Z M241.074874,48.8571429 C241.214929,48.8571429 241.274953,48.7971429 241.274953,48.6571429 L241.274953,47.1971429 C241.274953,47.0571429 241.214929,46.9971429 241.074874,46.9971429 L239.714339,46.9971429 C239.574283,46.9971429 239.51426,47.0571429 239.51426,47.1971429 L239.51426,48.6571429 C239.51426,48.7971429 239.574283,48.8571429 239.714339,48.8571429 L241.074874,48.8571429 Z M243.515835,48.8571429 C243.65589,48.8571429 243.715913,48.7971429 243.715913,48.6571429 L243.715913,47.1971429 C243.715913,47.0571429 243.65589,46.9971429 243.515835,46.9971429 L242.155299,46.9971429 C242.015244,46.9971429 241.95522,47.0571429 241.95522,47.1971429 L241.95522,48.6571429 C241.95522,48.7971429 242.015244,48.8571429 242.155299,48.8571429 L243.515835,48.8571429 Z M240.134504,59.0171429 C241.194921,59.0171429 241.875189,58.6771429 242.215323,57.9771429 C242.555457,58.6771429 243.215717,59.0171429 244.076055,59.0171429 L244.516228,59.0171429 C245.076449,59.0171429 245.316543,58.8971429 245.316543,58.1971429 C245.316543,57.6571429 245.056441,57.4571429 244.516228,57.4571429 L244.276134,57.4571429 C243.155693,57.4571429 242.475425,56.9971429 242.475425,56.0971429 L242.475425,51.0371429 C242.475425,50.8971429 242.415402,50.8371429 242.275346,50.8371429 L240.994843,50.8371429 C240.854787,50.8371429 240.794764,50.8971429 240.794764,51.0371429 L240.794764,56.3971429 C240.794764,57.1971429 240.494646,57.4571429 239.834386,57.4571429 L238.47385,57.4571429 C237.91363,57.4571429 237.673535,57.6571429 237.673535,58.3171429 C237.673535,58.8771429 237.933638,59.0171429 238.47385,59.0171429 L240.134504,59.0171429 Z M237.733559,44.4171429 C237.813591,44.4171429 237.853606,44.3771429 237.853606,44.2771429 L237.853606,43.7171429 C237.853606,43.6171429 237.813591,43.5771429 237.733559,43.5771429 L235.672748,43.5771429 C235.37263,43.3571429 234.99248,42.8971429 234.99248,42.3171429 C234.99248,41.6971429 235.352622,41.1771429 236.092913,41.1771429 C236.493071,41.1771429 236.813197,41.3771429 237.053291,41.6371429 C237.113315,41.6971429 237.173339,41.6771429 237.273378,41.5971429 L237.693543,41.2571429 C237.733559,41.2171429 237.733559,41.1571429 237.693543,41.0571429 C237.373417,40.5971429 236.853213,40.3571429 236.112921,40.3571429 C234.572315,40.3571429 234.072118,41.4771429 234.072118,42.3371429 C234.072118,42.8371429 234.212173,43.2771429 234.43226,43.5771429 L233.671961,43.5771429 C233.591929,43.5771429 233.551913,43.6171429 233.551913,43.7171429 L233.551913,44.2771429 C233.551913,44.3771429 233.591929,44.4171429 233.671961,44.4171429 L237.733559,44.4171429 Z M238.333795,59.0171429 C238.894016,59.0171429 239.13411,58.9171429 239.13411,58.2571429 C239.13411,57.7171429 238.874008,57.4571429 238.333795,57.4571429 L237.453449,57.4571429 C236.793189,57.4571429 236.493071,57.1971429 236.493071,56.3971429 L236.493071,45.6171429 C236.493071,45.4771429 236.433047,45.4171429 236.292992,45.4171429 L235.012488,45.4171429 C234.872433,45.4171429 234.812409,45.4771429 234.812409,45.6171429 L234.812409,56.4971429 C234.812409,58.2571429 235.472669,59.0171429 237.153331,59.0171429 L238.333795,59.0171429 Z M229.430291,59.0171429 C231.431079,59.0171429 232.311425,58.2571429 232.311425,55.5971429 L232.311425,54.3971429 C232.311425,51.9371429 230.890866,50.8371429 228.870071,50.8371429 L227.08937,50.8371429 L230.690787,46.6171429 C230.750811,46.5171429 230.710795,46.4371429 230.610756,46.3371429 L229.650378,45.5371429 C229.550339,45.4771429 229.470307,45.4971429 229.390276,45.5971429 L225.008551,50.7571429 C224.948528,50.8171429 224.82848,50.9371429 224.82848,51.0771429 L224.82848,52.1971429 C224.82848,52.3371429 224.888504,52.3971429 225.028559,52.3971429 L228.249827,52.3971429 C229.770425,52.3971429 230.530724,53.0771429 230.530724,54.4171429 L230.530724,55.6571429 C230.530724,57.0171429 230.310638,57.4571429 228.810047,57.4571429 L223.547976,57.4571429 C222.987756,57.4571429 222.747661,57.5571429 222.747661,58.2171429 C222.747661,58.7571429 223.007764,59.0171429 223.547976,59.0171429 L229.430291,59.0171429 Z M218.646047,59.0171429 C219.926551,59.0171429 220.68685,58.7371429 221.147031,57.8571429 C221.44715,58.6371429 222.227457,59.0171429 223.127811,59.0171429 L223.547976,59.0171429 C224.108197,59.0171429 224.348291,58.8971429 224.348291,58.1971429 C224.348291,57.6571429 224.088189,57.4571429 223.547976,57.4571429 L223.32789,57.4571429 C222.207449,57.4571429 221.527181,56.9971429 221.527181,56.0971429 L221.527181,54.0371429 C221.527181,51.5771429 220.106622,50.4771429 218.085827,50.4771429 L215.144669,50.4771429 C215.004614,50.4771429 214.944591,50.5371429 214.944591,50.6771429 L214.944591,51.8371429 C214.944591,51.9771429 215.004614,52.0371429 215.144669,52.0371429 L217.465583,52.0371429 C218.986181,52.0371429 219.74648,52.7171429 219.74648,54.0571429 L219.74648,55.6571429 C219.74648,57.0171429 219.526394,57.4571429 218.025803,57.4571429 L214.204299,57.4571429 C214.064244,57.4571429 214.00422,57.5171429 214.00422,57.6571429 L214.00422,58.8171429 C214.00422,58.9571429 214.064244,59.0171429 214.204299,59.0171429 L218.646047,59.0171429 Z M203.139945,59.1571429 C205.480866,59.1571429 206.961449,57.8771429 206.961449,54.8371429 C206.961449,51.7771429 205.54089,50.4771429 203.139945,50.4771429 C200.739,50.4771429 199.318441,51.7771429 199.318441,54.8371429 C199.318441,55.1371429 199.338449,55.3771429 199.338449,55.6371429 C199.338449,57.0171429 198.678189,57.4571429 198.097961,57.4571429 L197.097567,57.4571429 C196.537346,57.4571429 196.297252,57.5571429 196.297252,58.2171429 C196.297252,58.7571429 196.557354,59.0171429 197.097567,59.0171429 L197.957906,59.0171429 C198.698197,59.0171429 199.698591,58.8971429 200.258811,58.0371429 C200.919071,58.8171429 201.859441,59.1571429 203.139945,59.1571429 Z M203.139945,57.5971429 C201.619346,57.5971429 200.999102,56.7571429 200.999102,54.8371429 C200.999102,53.0771429 201.619346,52.0371429 203.139945,52.0371429 C204.660543,52.0371429 205.280787,53.0771429 205.280787,54.8371429 C205.280787,56.7571429 204.660543,57.5971429 203.139945,57.5971429 Z M191.875512,52.0371429 C192.015567,52.0371429 192.075591,51.9771429 192.075591,51.8371429 L192.075591,50.3771429 C192.075591,50.2371429 192.015567,50.1771429 191.875512,50.1771429 L190.514976,50.1771429 C190.374921,50.1771429 190.314898,50.2371429 190.314898,50.3771429 L190.314898,51.8371429 C190.314898,51.9771429 190.374921,52.0371429 190.514976,52.0371429 L191.875512,52.0371429 Z M190.514976,62.9971429 C193.576181,62.9971429 195.216827,61.3571429 195.216827,58.6171429 L195.216827,58.3771429 C195.596976,58.7971429 196.137189,59.0171429 196.817457,59.0171429 L197.097567,59.0171429 C197.657787,59.0171429 197.897882,58.8971429 197.897882,58.1971429 C197.897882,57.6571429 197.63778,57.4571429 197.097567,57.4571429 L197.017535,57.4571429 C195.897094,57.4571429 195.216827,56.9971429 195.216827,56.0971429 L195.216827,52.7571429 C195.216827,52.6171429 195.156803,52.5571429 195.016748,52.5571429 L193.736244,52.5571429 C193.596189,52.5571429 193.536165,52.6171429 193.536165,52.7571429 L193.536165,58.5971429 C193.536165,60.5771429 192.315685,61.3971429 190.615016,61.3971429 C189.25448,61.3971429 187.513795,60.7571429 187.513795,58.4571429 C187.513795,57.2571429 188.054008,56.0971429 188.534197,55.3571429 C188.59422,55.2571429 188.574213,55.1571429 188.474173,55.0971429 L187.37374,54.4971429 C187.233685,54.4171429 187.153654,54.4171429 187.09363,54.5171429 C186.393354,55.4971429 185.793118,57.0171429 185.793118,58.6171429 C185.793118,61.4171429 187.65385,62.9971429 190.514976,62.9971429 Z M178.950425,48.8571429 C179.09048,48.8571429 179.150504,48.7971429 179.150504,48.6571429 L179.150504,47.1971429 C179.150504,47.0571429 179.09048,46.9971429 178.950425,46.9971429 L177.58989,46.9971429 C177.449835,46.9971429 177.389811,47.0571429 177.389811,47.1971429 L177.389811,48.6571429 C177.389811,48.7971429 177.449835,48.8571429 177.58989,48.8571429 L178.950425,48.8571429 Z M176.749559,59.0171429 C178.43022,59.0171429 179.09048,58.2571429 179.09048,56.4971429 L179.09048,51.0371429 C179.09048,50.8971429 179.030457,50.8371429 178.890402,50.8371429 L177.609898,50.8371429 C177.469843,50.8371429 177.409819,50.8971429 177.409819,51.0371429 L177.409819,56.3971429 C177.409819,57.1971429 177.109701,57.4571429 176.449441,57.4571429 L175.188945,57.4571429 C174.628724,57.4571429 174.38863,57.6571429 174.38863,58.3171429 C174.38863,58.8771429 174.648732,59.0171429 175.188945,59.0171429 L176.749559,59.0171429 Z M161.423528,59.0171429 C161.983748,59.0171429 162.423921,58.9371429 162.764055,58.7571429 C162.90411,58.9371429 163.124197,59.0171429 163.444323,59.0171429 L170.166969,59.0171429 C171.46748,59.0171429 172.287803,58.6771429 172.747984,57.7771429 C173.048102,58.5771429 173.828409,59.0171429 174.76878,59.0171429 L175.188945,59.0171429 C175.749165,59.0171429 175.98926,58.8971429 175.98926,58.1971429 C175.98926,57.6571429 175.729157,57.4571429 175.188945,57.4571429 L174.968858,57.4571429 C173.848417,57.4571429 173.16815,56.9971429 173.16815,56.0971429 C173.16815,55.8771429 173.188157,55.5571429 173.188157,55.2171429 C173.188157,52.6571429 172.147748,50.4771429 168.406276,50.4771429 C166.725614,50.4771429 165.064961,51.0171429 163.764449,51.7171429 L163.764449,45.6171429 C163.764449,45.4771429 163.704425,45.4171429 163.56437,45.4171429 L162.283866,45.4171429 C162.143811,45.4171429 162.083787,45.4771429 162.083787,45.6171429 L162.083787,56.3971429 C162.083787,57.1971429 161.783669,57.4571429 161.123409,57.4571429 L159.862913,57.4571429 C159.302693,57.4571429 159.062598,57.6571429 159.062598,58.3171429 C159.062598,58.8771429 159.322701,59.0171429 159.862913,59.0171429 L161.423528,59.0171429 Z M169.066535,48.8571429 C169.206591,48.8571429 169.266614,48.7971429 169.266614,48.6571429 L169.266614,47.1971429 C169.266614,47.0571429 169.206591,46.9971429 169.066535,46.9971429 L167.706,46.9971429 C167.565945,46.9971429 167.505921,47.0571429 167.505921,47.1971429 L167.505921,48.6571429 C167.505921,48.7971429 167.565945,48.8571429 167.706,48.8571429 L169.066535,48.8571429 Z M169.58674,57.4571429 L163.664409,57.4571429 C163.724433,57.1171429 163.764449,56.7971429 163.764449,56.4971429 L163.764449,53.2771429 C164.924906,52.6971429 166.665591,52.0371429 168.286228,52.0371429 C170.687173,52.0371429 171.407457,53.1771429 171.407457,55.1571429 C171.407457,57.0171429 171.107339,57.4571429 169.58674,57.4571429 Z M159.722858,59.0171429 C160.283079,59.0171429 160.523173,58.9171429 160.523173,58.2571429 C160.523173,57.7171429 160.263071,57.4571429 159.722858,57.4571429 L158.842512,57.4571429 C158.182252,57.4571429 157.882134,57.1971429 157.882134,56.3971429 L157.882134,45.6171429 C157.882134,45.4771429 157.82211,45.4171429 157.682055,45.4171429 L156.401551,45.4171429 C156.261496,45.4171429 156.201472,45.4771429 156.201472,45.6171429 L156.201472,56.4971429 C156.201472,58.2571429 156.861732,59.0171429 158.542394,59.0171429 L159.722858,59.0171429 Z M150.499228,48.8571429 C150.639283,48.8571429 150.699307,48.7971429 150.699307,48.6571429 L150.699307,47.1971429 C150.699307,47.0571429 150.639283,46.9971429 150.499228,46.9971429 L149.138693,46.9971429 C148.998638,46.9971429 148.938614,47.0571429 148.938614,47.1971429 L148.938614,48.6571429 C148.938614,48.7971429 148.998638,48.8571429 149.138693,48.8571429 L150.499228,48.8571429 Z M149.838969,59.0171429 C152.17989,59.0171429 153.660472,57.8771429 153.660472,54.8371429 C153.660472,51.7771429 152.239913,50.4771429 149.838969,50.4771429 C147.678118,50.4771429 146.017465,51.7771429 146.017465,54.8371429 C146.017465,55.9171429 146.217543,56.7971429 146.597693,57.4571429 L144.336803,57.4571429 C143.796591,57.4571429 143.536488,57.6571429 143.536488,58.1971429 C143.536488,58.8971429 143.776583,59.0171429 144.336803,59.0171429 L149.838969,59.0171429 Z M149.838969,57.4571429 C148.31837,57.4571429 147.698126,56.7171429 147.698126,54.7171429 C147.698126,53.0371429 148.398402,52.0371429 149.838969,52.0371429 C151.359567,52.0371429 151.979811,53.0771429 151.979811,54.8371429 C151.979811,56.7571429 151.359567,57.4571429 149.838969,57.4571429 Z M140.755394,48.8571429 C140.895449,48.8571429 140.955472,48.7971429 140.955472,48.6571429 L140.955472,47.1971429 C140.955472,47.0571429 140.895449,46.9971429 140.755394,46.9971429 L139.394858,46.9971429 C139.254803,46.9971429 139.19478,47.0571429 139.19478,47.1971429 L139.19478,48.6571429 C139.19478,48.7971429 139.254803,48.8571429 139.394858,48.8571429 L140.755394,48.8571429 Z M143.196354,48.8571429 C143.336409,48.8571429 143.396433,48.7971429 143.396433,48.6571429 L143.396433,47.1971429 C143.396433,47.0571429 143.336409,46.9971429 143.196354,46.9971429 L141.835819,46.9971429 C141.695764,46.9971429 141.63574,47.0571429 141.63574,47.1971429 L141.63574,48.6571429 C141.63574,48.7971429 141.695764,48.8571429 141.835819,48.8571429 L143.196354,48.8571429 Z M139.815024,59.0171429 C140.875441,59.0171429 141.555709,58.6771429 141.895843,57.9771429 C142.235976,58.6771429 142.896236,59.0171429 143.756575,59.0171429 L144.196748,59.0171429 C144.756969,59.0171429 144.997063,58.8971429 144.997063,58.1971429 C144.997063,57.6571429 144.736961,57.4571429 144.196748,57.4571429 L143.956654,57.4571429 C142.836213,57.4571429 142.155945,56.9971429 142.155945,56.0971429 L142.155945,51.0371429 C142.155945,50.8971429 142.095921,50.8371429 141.955866,50.8371429 L140.675362,50.8371429 C140.535307,50.8371429 140.475283,50.8971429 140.475283,51.0371429 L140.475283,56.3971429 C140.475283,57.1971429 140.175165,57.4571429 139.514906,57.4571429 L138.15437,57.4571429 C137.59415,57.4571429 137.354055,57.6571429 137.354055,58.3171429 C137.354055,58.8771429 137.614157,59.0171429 138.15437,59.0171429 L139.815024,59.0171429 Z M132.872291,63.1971429 C135.253228,63.1971429 136.433693,61.9771429 136.433693,60.3971429 C136.433693,59.8171429 136.293638,59.3571429 136.013528,59.0171429 L138.034323,59.0171429 C138.574535,59.0171429 138.834638,58.7571429 138.834638,58.2171429 C138.834638,57.5571429 138.594543,57.4571429 138.034323,57.4571429 L135.813449,57.4571429 C136.233614,56.8371429 136.613764,55.7171429 136.613764,54.5971429 C136.613764,51.7771429 135.253228,50.4771429 132.772252,50.4771429 C130.671425,50.4771429 129.03078,51.7771429 129.03078,54.8371429 L129.03078,57.4571429 L126.809906,57.4571429 C126.249685,57.4571429 126.009591,57.5571429 126.009591,58.2171429 C126.009591,58.7571429 126.269693,59.0171429 126.809906,59.0171429 L129.03078,59.0171429 L129.03078,60.1371429 C129.03078,62.2171429 130.371307,63.1971429 132.872291,63.1971429 Z M132.972331,57.4571429 L130.711441,57.4571429 L130.711441,54.6171429 C130.711441,52.9971429 131.491748,52.0371429 132.772252,52.0371429 C134.212819,52.0371429 134.933102,52.9771429 134.933102,54.7371429 C134.933102,56.0371429 134.412898,57.4571429 132.972331,57.4571429 Z M132.79226,61.6371429 C131.411717,61.6371429 130.711441,61.1371429 130.711441,60.1371429 L130.711441,59.0171429 L133.252441,59.0171429 C134.472921,59.0171429 134.753031,59.7571429 134.753031,60.3371429 C134.753031,61.1571429 134.232827,61.6371429 132.79226,61.6371429 Z M126.809906,59.0171429 C127.370126,59.0171429 127.61022,58.9171429 127.61022,58.2571429 C127.61022,57.7171429 127.350118,57.4571429 126.809906,57.4571429 L125.929559,57.4571429 C125.269299,57.4571429 124.969181,57.1971429 124.969181,56.3971429 L124.969181,45.6171429 C124.969181,45.4771429 124.909157,45.4171429 124.769102,45.4171429 L123.488598,45.4171429 C123.348543,45.4171429 123.28852,45.4771429 123.28852,45.6171429 L123.28852,56.4971429 C123.28852,58.2571429 123.94878,59.0171429 125.629441,59.0171429 L126.809906,59.0171429 Z M112.324205,62.9971429 C114.405024,62.9971429 115.785567,61.9771429 115.785567,59.4971429 L115.785567,54.8371429 C115.785567,51.7771429 114.405024,50.4771429 112.004079,50.4771429 C109.863236,50.4771429 108.142559,51.8971429 108.142559,54.9571429 C108.142559,57.9971429 109.603134,59.0171429 111.964063,59.0171429 L114.104906,59.0171429 L114.104906,59.5371429 C114.104906,61.0371429 113.304591,61.4371429 112.244173,61.4371429 L109.843228,61.4371429 C109.703173,61.4371429 109.64315,61.4971429 109.64315,61.6371429 L109.64315,62.7971429 C109.64315,62.9371429 109.703173,62.9971429 109.843228,62.9971429 L112.324205,62.9971429 Z M114.104906,57.4571429 L112.08411,57.4571429 C110.58352,57.4571429 109.82322,56.8571429 109.82322,54.9571429 C109.82322,53.1971429 110.643543,52.0371429 112.004079,52.0371429 C113.524677,52.0371429 114.104906,53.0771429 114.104906,54.8371429 L114.104906,57.4571429 Z M106.822039,44.4171429 C106.902071,44.4171429 106.942087,44.3771429 106.942087,44.2771429 L106.942087,43.7171429 C106.942087,43.6171429 106.902071,43.5771429 106.822039,43.5771429 L104.761228,43.5771429 C104.46111,43.3571429 104.080961,42.8971429 104.080961,42.3171429 C104.080961,41.6971429 104.441102,41.1771429 105.181394,41.1771429 C105.581551,41.1771429 105.901677,41.3771429 106.141772,41.6371429 C106.201795,41.6971429 106.261819,41.6771429 106.361858,41.5971429 L106.782024,41.2571429 C106.822039,41.2171429 106.822039,41.1571429 106.782024,41.0571429 C106.461898,40.5971429 105.941693,40.3571429 105.201402,40.3571429 C103.660795,40.3571429 103.160598,41.4771429 103.160598,42.3371429 C103.160598,42.8371429 103.300654,43.2771429 103.52074,43.5771429 L102.760441,43.5771429 C102.680409,43.5771429 102.640394,43.6171429 102.640394,43.7171429 L102.640394,44.2771429 C102.640394,44.3771429 102.680409,44.4171429 102.760441,44.4171429 L106.822039,44.4171429 Z M105.441496,59.0171429 C105.581551,59.0171429 105.641575,58.9571429 105.641575,58.8171429 L105.641575,45.6171429 C105.641575,45.4771429 105.581551,45.4171429 105.441496,45.4171429 L104.160992,45.4171429 C104.020937,45.4171429 103.960913,45.4771429 103.960913,45.6171429 L103.960913,58.8171429 C103.960913,58.9571429 104.020937,59.0171429 104.160992,59.0171429 L105.441496,59.0171429 Z M98.5787953,59.0171429 C100.579583,59.0171429 101.459929,58.2571429 101.459929,55.5971429 L101.459929,54.0371429 C101.459929,51.5771429 100.03937,50.4771429 98.0185748,50.4771429 L95.0774173,50.4771429 C94.9373622,50.4771429 94.8773386,50.5371429 94.8773386,50.6771429 L94.8773386,51.8371429 C94.8773386,51.9771429 94.9373622,52.0371429 95.0774173,52.0371429 L97.3983307,52.0371429 C98.9189291,52.0371429 99.6792283,52.7171429 99.6792283,54.0571429 L99.6792283,55.6571429 C99.6792283,57.0171429 99.4591417,57.4571429 97.9585512,57.4571429 L94.1370472,57.4571429 C93.9969921,57.4571429 93.9369685,57.5171429 93.9369685,57.6571429 L93.9369685,58.8171429 C93.9369685,58.9571429 93.9969921,59.0171429 94.1370472,59.0171429 L98.5787953,59.0171429 Z M91.1958898,59.0171429 C91.3359449,59.0171429 91.3959685,58.9571429 91.3959685,58.8171429 L91.3959685,45.6171429 C91.3959685,45.4771429 91.3359449,45.4171429 91.1958898,45.4171429 L89.9153858,45.4171429 C89.7753307,45.4171429 89.7153071,45.4771429 89.7153071,45.6171429 L89.7153071,58.8171429 C89.7153071,58.9571429 89.7753307,59.0171429 89.9153858,59.0171429 L91.1958898,59.0171429 Z M87.974622,49.0171429 C88.0546535,49.0171429 88.0946693,48.9771429 88.0946693,48.8771429 L88.0946693,48.2371429 C88.0946693,48.1371429 88.0546535,48.0971429 87.974622,48.0971429 L85.7137323,48.0971429 C85.4136142,47.9371429 85.0534724,47.5971429 85.0534724,47.0171429 C85.0534724,46.5171429 85.3735984,45.9971429 86.1539055,45.9971429 C86.6541024,45.9971429 86.9942362,46.1971429 87.2543386,46.4371429 C87.3143622,46.4971429 87.3743858,46.5171429 87.4144016,46.4971429 L87.9346063,46.0571429 C87.9946299,45.9971429 88.0146378,45.9171429 87.9546142,45.8371429 C87.6544961,45.3771429 86.9542205,45.0771429 86.2139291,45.0771429 C84.5332677,45.0771429 84.0330709,46.1971429 84.0330709,46.9771429 C84.0330709,47.4371429 84.1531181,47.8171429 84.3932126,48.0971429 L83.7129449,48.0971429 C83.6329134,48.0971429 83.5928976,48.1371429 83.5928976,48.2371429 L83.5928976,48.8771429 C83.5928976,48.9771429 83.6329134,49.0171429 83.7129449,49.0171429 L87.974622,49.0171429 Z M84.3932126,59.0171429 C86.073874,59.0171429 86.7341339,58.2571429 86.7341339,56.4971429 L86.7341339,51.0371429 C86.7341339,50.8971429 86.6741102,50.8371429 86.5340551,50.8371429 L85.2535512,50.8371429 C85.1134961,50.8371429 85.0534724,50.8971429 85.0534724,51.0371429 L85.0534724,56.3971429 C85.0534724,57.1971429 84.7533543,57.4571429 84.0930945,57.4571429 L82.8325984,57.4571429 C82.272378,57.4571429 82.0322835,57.6571429 82.0322835,58.3171429 C82.0322835,58.8771429 82.2923858,59.0171429 82.8325984,59.0171429 L84.3932126,59.0171429 Z M77.5505197,63.1971429 C79.9314567,63.1971429 81.1119213,61.9771429 81.1119213,60.3971429 C81.1119213,59.8171429 80.9718661,59.3571429 80.6917559,59.0171429 L82.7125512,59.0171429 C83.2527638,59.0171429 83.5128661,58.7571429 83.5128661,58.2171429 C83.5128661,57.5571429 83.2727717,57.4571429 82.7125512,57.4571429 L80.4916772,57.4571429 C80.9118425,56.8371429 81.2919921,55.7171429 81.2919921,54.5971429 C81.2919921,51.7771429 79.9314567,50.4771429 77.4504803,50.4771429 C75.3496535,50.4771429 73.7090079,51.7771429 73.7090079,54.8371429 L73.7090079,57.4571429 L71.4881339,57.4571429 C70.9279134,57.4571429 70.6878189,57.5571429 70.6878189,58.2171429 C70.6878189,58.7571429 70.9479213,59.0171429 71.4881339,59.0171429 L73.7090079,59.0171429 L73.7090079,60.1371429 C73.7090079,62.2171429 75.0495354,63.1971429 77.5505197,63.1971429 Z M77.6505591,57.4571429 L75.3896693,57.4571429 L75.3896693,54.6171429 C75.3896693,52.9971429 76.1699764,52.0371429 77.4504803,52.0371429 C78.8910472,52.0371429 79.6113307,52.9771429 79.6113307,54.7371429 C79.6113307,56.0371429 79.091126,57.4571429 77.6505591,57.4571429 Z M77.4704882,61.6371429 C76.0899449,61.6371429 75.3896693,61.1371429 75.3896693,60.1371429 L75.3896693,59.0171429 L77.9306693,59.0171429 C79.1511496,59.0171429 79.4312598,59.7571429 79.4312598,60.3371429 C79.4312598,61.1571429 78.9110551,61.6371429 77.4704882,61.6371429 Z M71.4881339,59.0171429 C72.0483543,59.0171429 72.2884488,58.9171429 72.2884488,58.2571429 C72.2884488,57.7171429 72.0283465,57.4571429 71.4881339,57.4571429 L70.6077874,57.4571429 C69.9475276,57.4571429 69.6474094,57.1971429 69.6474094,56.3971429 L69.6474094,45.6171429 C69.6474094,45.4771429 69.5873858,45.4171429 69.4473307,45.4171429 L68.1668268,45.4171429 C68.0267717,45.4171429 67.966748,45.4771429 67.966748,45.6171429 L67.966748,56.4971429 C67.966748,58.2571429 68.6270079,59.0171429 70.3076693,59.0171429 L71.4881339,59.0171429 Z" id="100" fill="#164F9C" fill-rule="nonzero"></path>
                <rect id="Rectangle" fill="#164F9C" x="267.248031" y="18.5714286" width="2.86250239" height="42.8860799" rx="1.4277121"></rect>
                <g id="Group-33" transform="translate(281.539370, 0.000000)">
                    <path d="M16.8741881,39.4471589 L16.8741881,20.0673242 C16.8741881,15.6830665 20.4414541,12.1162391 24.8262512,12.1162391 L56.6345035,12.1162391 C61.0193005,12.1162391 64.5865666,15.6830665 64.5865666,20.0673242 L64.5865666,39.4471589 C64.5865666,52.5983734 55.2413958,64.0935275 42.3660628,66.780261 C41.3003417,67.0025447 40.1650899,67.0031682 39.0999924,66.7815081 C39.0981216,66.7811963 39.0962508,66.7808845 39.09438,66.780261 C26.219047,64.0935275 16.8741881,52.5983734 16.8741881,39.4471589 Z" id="Fill-1" fill="#F4F5F7"></path>
                    <path d="M42.8414592,74.6966786 C41.466124,74.9834963 40.0009913,74.9841198 38.6262796,74.6979256 C38.6240971,74.6976139 38.6216027,74.6973021 38.6191083,74.6966786 C28.3874995,72.5614456 19.8857389,66.1145946 14.861135,57.5141168 C14.7629191,57.3457673 14.583636,57.24164 14.388763,57.24164 L9.58678201,57.24164 C9.17832833,57.24164 8.90800059,57.6731136 9.09383143,58.0372473 C14.6042145,68.8421684 24.7865594,77.0255135 37.3507193,79.6511424 C37.3547727,79.6520777 37.3585142,79.6527012 37.3625676,79.6536365 C38.4635218,79.8834024 39.596591,80 40.7302838,80 C41.8639766,80 42.9973576,79.8834024 44.0986236,79.6536365 C56.6063482,77.0435955 66.8360862,68.882697 72.3692305,58.0372473 C72.5550613,57.6734253 72.2847336,57.24164 71.8762799,57.24164 L67.0721163,57.24164 C66.8769316,57.24164 66.6979603,57.3457673 66.5994325,57.5141168 C61.5751405,66.1149063 53.073068,72.5614456 42.8414592,74.6966786" id="Fill-3" fill="#F1B85B"></path>
                    <g id="Group-7" transform="translate(4.609259, 0.000000)">
                        <mask id="mask-2" fill="white">
                            <use xlink:href="#path-1"></use>
                        </mask>
                        <g id="Clip-6"></g>
                        <path d="M5.33421798,15.3477392 C5.33421798,9.68059577 9.92885417,5.08683639 15.5963828,5.08683639 L56.6456658,5.08683639 C62.3131945,5.08683639 66.9078307,9.68059577 66.9078307,15.3477392 L66.9078307,17.7214673 C66.9078307,18.0254317 67.1544618,18.2717208 67.4581518,18.2717208 L71.6917275,18.2717208 C71.9957292,18.2717208 72.2420486,18.0254317 72.2420486,17.7214673 L72.2420486,16.4164468 C72.2420486,7.3498903 64.8911296,-0.000124703342 55.8234579,-0.000124703342 L16.4185907,-0.000124703342 C7.35091904,-0.000124703342 0,7.3498903 0,16.4164468 L0,17.7214673 C0,18.0254317 0.246631191,18.2717208 0.550632975,18.2717208 L4.7838968,18.2717208 C5.08789858,18.2717208 5.33421798,18.0254317 5.33421798,17.7214673 L5.33421798,15.3477392 Z" id="Fill-5" fill="#F1B85B" mask="url(#mask-2)"></path>
                    </g>
                    <path d="M8.37520239,23.8337081 C8.92801794,23.2603845 8.92801794,22.2368818 8.37520239,21.6632464 C7.80180825,21.0902346 6.77786788,21.0902346 6.20478555,21.6632464 C5.61081283,22.2368818 5.61081283,23.2603845 6.20478555,23.8337081 C6.77786788,24.427296 7.80180825,24.427296 8.37520239,23.8337081" id="Fill-8" fill="#154F9C"></path>
                    <path d="M10.975774,24.2841677 C11.8154425,24.2841677 12.4705273,23.6288517 12.4705273,22.7487578 C12.4705273,21.8683522 11.8562878,21.2336122 10.975774,21.2336122 C10.0952601,21.2336122 9.43986341,21.8683522 9.43986341,22.7487578 C9.43986341,23.6288517 10.0952601,24.2841677 10.975774,24.2841677" id="Fill-10" fill="#154F9C"></path>
                    <path d="M8.74377727,28.5906106 L10.1565281,28.5906106 L10.1565281,31.5797497 C9.84940837,31.7025825 9.41944072,31.7639989 8.86662517,31.7639989 C7.39245036,31.7639989 6.65505116,31.2520917 6.65505116,30.208013 C6.65505116,29.2047746 7.43329573,28.5906106 8.74377727,28.5906106 M27.9517013,28.4674661 C29.5078786,28.4674661 30.3678139,29.5530087 30.3678139,31.3546602 C30.3678139,31.477493 30.3472354,31.7025825 30.3269686,32.0302406 L23.7128251,32.0302406 C24.7981894,29.8395146 26.4157907,28.4674661 27.9517013,28.4674661 M5.01687129,33.4633937 C5.93854234,34.1801262 7.06475203,34.5280485 8.43665752,34.5280485 C9.4400193,34.5280485 10.3819571,34.323535 11.2418924,33.9138845 C11.8767105,34.4257918 13.0643442,34.6714574 14.8253719,34.6714574 C14.8256837,34.6714574 14.8259955,34.6714574 14.8259955,34.6714574 L14.8259955,34.6714574 C16.4638636,34.6714574 17.5698065,34.4669439 18.1634674,34.0569816 C18.9008666,34.4669439 19.8222259,34.6714574 20.927857,34.6714574 L32.8045052,34.6714574 C33.1527821,33.4225534 33.3370539,32.2144897 33.3370539,31.0884186 C33.3370539,27.710205 31.5554476,25.7243043 28.3816689,25.7243043 C27.2963046,25.7243043 26.1700949,25.9902342 24.6753415,26.8092234 C23.1805882,27.6282126 21.5424083,29.4707045 20.3136175,32.0302406 C19.4128368,32.0099763 19.2282532,31.7025825 19.2282532,30.863329 L19.2282532,27.8944542 C19.2282532,27.645671 19.0268325,27.4439634 18.7780187,27.4439634 L16.6481355,27.4439634 C16.3993217,27.4439634 16.197901,27.645671 16.197901,27.8944542 L16.197901,30.208013 C16.197901,31.0270022 16.1158985,31.5389094 15.972472,31.7231586 C15.8293573,31.9276721 15.440235,32.0302406 14.8259955,32.0302406 L14.8259955,32.0305523 C14.8256837,32.0305523 14.8253719,32.0302406 14.8253719,32.0302406 C13.6785837,32.0302406 13.3511971,31.6411661 13.3511971,30.4331025 L13.3511971,26.3998846 C13.3511971,26.1511015 13.1494647,25.9493938 12.9006509,25.9493938 L9.15316634,25.9493938 C7.3512932,25.9493938 5.97938771,26.3998846 5.03744987,27.2802902 C4.09551204,28.1603841 3.62469902,29.2047746 3.62469902,30.4128382 C3.62469902,31.7434229 4.09551204,32.7466613 5.01687129,33.4633937" id="Fill-12" fill="#154F9C"></path>
                    <path d="M39.6241538,28.4676219 C40.6275156,28.4676219 41.1394858,29.1432023 41.1394858,30.4946748 L41.1394858,32.0303964 L39.8904282,32.0303964 C38.6616374,32.0303964 38.0065525,31.3750804 38.0065525,30.2490092 C38.0065525,29.2663469 38.6413706,28.4676219 39.6241538,28.4676219 M61.3305048,28.4676219 C62.4769813,28.4676219 63.1938019,29.1637784 63.1938019,30.06476 C63.1938019,30.5766672 62.9686847,31.006582 62.5384052,31.3956564 C62.0881708,31.7847309 61.6784699,31.9892443 61.2893476,32.0098204 C60.9005371,31.948404 60.5114149,31.7230027 60.0814472,31.3339283 C59.6511678,30.9448538 59.4260505,30.5149391 59.4260505,30.0444957 C59.4260505,29.122938 60.2042951,28.4676219 61.3305048,28.4676219 M73.1460408,28.4676219 C74.2108265,28.4676219 74.9276472,29.1432023 74.9276472,30.1875928 C74.9276472,31.4159207 74.2722505,32.0303964 72.9411904,32.0303964 L71.6921328,32.0303964 C71.385013,31.5184892 71.2415866,31.006582 71.2415866,30.4535227 C71.2415866,29.1637784 71.9992525,28.4676219 73.1460408,28.4676219 M36.2455247,33.5043899 C37.1260386,34.282227 38.3342508,34.6713015 39.8698496,34.6713015 L41.0574832,34.6713015 C40.8089813,35.6471051 39.5056711,36.0508322 37.1647014,35.8990059 C36.8949973,35.8815474 36.6698801,36.1047664 36.6860935,36.3747491 L36.7952223,38.1873122 C36.8089414,38.4161428 36.9929014,38.5966509 37.2217602,38.6103683 C37.5887449,38.6321914 37.9416988,38.6434147 38.2728269,38.6434147 C40.2589719,38.6434147 41.6923013,38.2951806 42.5728152,37.599336 C43.4327505,36.8826035 43.9447207,35.9202054 44.1087258,34.6713015 L45.4394741,34.6713015 C45.4397859,34.6713015 45.4400977,34.6713015 45.4400977,34.6713015 L45.4400977,34.6713015 L55.0845933,34.6713015 C55.0845933,34.6713015 55.0849051,34.6713015 55.0849051,34.6713015 L55.0849051,34.6713015 L57.6650228,34.6713015 C58.7092299,34.6713015 59.8971754,34.5896208 61.1870783,34.4053716 C62.3952905,34.5896208 63.6649267,34.6713015 64.9754082,34.6713015 L67.268673,34.6713015 C67.2689848,34.6713015 67.2692966,34.6713015 67.2692966,34.6713015 L67.2692966,34.6713015 L72.5932253,34.6713015 C74.7022182,34.6713015 76.2175501,34.0571375 76.9546375,33.0741634 C77.6920367,32.1120771 77.9579993,31.1702551 77.9579993,30.0444957 C77.9579993,28.8769607 77.5486102,27.874034 76.7295203,27.0138927 C75.9104304,26.1540632 74.7636421,25.7241484 73.2688887,25.7241484 C71.7944021,25.7241484 70.5865017,26.1337989 69.6445638,26.932212 C68.6820474,27.7306252 68.2112344,28.7747039 68.2112344,30.0444957 C68.2112344,30.8017568 68.3543491,31.4773371 68.6412021,32.0303964 L67.2692966,32.0303964 L67.2692966,32.0303964 C67.2689848,32.0303964 67.268673,32.0303964 67.268673,32.0303964 L65.5690692,32.0303964 C66.0196154,31.3339283 66.2447326,30.5969315 66.2447326,29.8393587 C66.2447326,28.7132875 65.814765,27.7512012 64.9548297,26.932212 C64.0743158,26.1337989 62.8866821,25.7241484 61.3713502,25.7241484 C59.8151728,25.7241484 58.6069606,26.1337989 57.7264467,26.9730524 C56.8459328,27.8123059 56.3953866,28.8155443 56.3953866,29.9621915 C56.3953866,30.7200761 56.5796584,31.4159207 56.9687807,32.0303964 L55.0849051,32.0303964 L55.0849051,32.0303964 C55.0849051,32.0303964 55.0845933,32.0303964 55.0845933,32.0303964 L54.2655033,32.0303964 C54.4906205,27.8328819 52.6067449,25.7241484 48.6138763,25.7241484 C47.7742078,25.7241484 46.9775672,25.8388755 46.2361147,26.0561711 C45.997902,26.1260049 45.8557227,26.3698 45.9205764,26.6092304 L46.3729934,28.2811904 C46.4341056,28.507527 46.6564166,28.6553005 46.8871462,28.6144601 C47.4206303,28.5199974 47.9382129,28.4676219 48.4296045,28.4676219 C50.7434478,28.4676219 51.4602684,29.9621915 51.193994,32.0303964 L45.4400977,32.0303964 L45.4400977,32.0303964 C45.4397859,32.0303964 45.4394741,32.0303964 45.4394741,32.0303964 L44.1701497,32.0303964 L44.1701497,30.0850243 C44.1701497,28.8364321 43.8012942,27.8123059 43.0642068,26.9730524 C42.3065408,26.1337989 41.2009097,25.7241484 39.7061563,25.7241484 C38.3136723,25.7241484 37.166884,26.1746392 36.2657915,27.0753091 C35.3444323,27.9965551 34.893886,29.102362 34.893886,30.4332584 C34.893886,31.7027384 35.3444323,32.7262411 36.2455247,33.5043899" id="Fill-14" fill="#154F9C"></path>
                    <path d="M62.4566209,23.833864 C62.7228953,23.547358 62.8457432,23.1785479 62.8457432,22.7489449 C62.8457432,21.8479632 62.2723491,21.2334875 61.3712566,21.2334875 C60.470476,21.2334875 59.8559247,21.8479632 59.8559247,22.7489449 C59.8559247,23.1785479 59.9993511,23.547358 60.2862041,23.833864 C60.8390197,24.4277636 61.9240722,24.4277636 62.4566209,23.833864" id="Fill-16" fill="#154F9C"></path>
                    <path d="M4.75062809,42.2742772 C5.30344364,41.7012653 5.30344364,40.6774509 4.75062809,40.1041273 C4.17723395,39.5308037 3.15329358,39.5308037 2.58021125,40.1041273 C1.98623853,40.6774509 1.98623853,41.7012653 2.58021125,42.2742772 C3.15329358,42.8681769 4.17723395,42.8681769 4.75062809,42.2742772" id="Fill-18" fill="#154F9C"></path>
                    <path d="M7.35119966,39.6741813 C6.47068577,39.6741813 5.81528911,40.3086096 5.81528911,41.1890152 C5.81528911,42.0697326 6.47068577,42.7247369 7.35119966,42.7247369 C8.19086818,42.7247369 8.84595305,42.0697326 8.84595305,41.1890152 C8.84595305,40.3086096 8.23171355,39.6741813 7.35119966,39.6741813" id="Fill-20" fill="#154F9C"></path>
                    <path d="M6.5321409,49.7085917 C6.22502115,49.8314245 5.7950535,49.8928409 5.24223795,49.8928409 C3.76775135,49.8928409 3.03066394,49.3809336 3.03066394,48.3368549 C3.03066394,47.3336165 3.80859671,46.7191408 5.11939005,46.7191408 L6.5321409,46.7191408 L6.5321409,49.7085917 Z M12.9829029,47.9886208 C12.9829029,48.8693382 12.860055,49.4629261 12.634626,49.728856 C12.3889302,50.0156737 11.9181171,50.1587707 11.2012965,50.1587707 L11.2012965,50.1590825 C11.2012965,50.1590825 11.2009847,50.1587707 11.2009847,50.1587707 C10.0541964,50.1587707 9.72649811,49.7696963 9.72649811,48.5619444 L9.72649811,44.6191365 C9.72649811,44.3201602 9.48423208,44.077924 9.18553084,44.077924 L5.52877912,44.077924 C3.72690598,44.077924 2.35500049,44.5284148 1.41306265,45.4088204 C0.471124817,46.289226 0,47.3336165 0,48.5416801 C0,49.8722648 0.471124817,50.8755032 1.39248407,51.5922357 C2.31384332,52.3089681 3.44005301,52.6568904 4.8119585,52.6568904 C5.81532029,52.6568904 6.75725812,52.4520652 7.61750522,52.0424147 C8.25232331,52.5543219 9.43995695,52.8002993 11.2009847,52.8002993 C11.2009847,52.8002993 11.2012965,52.8002993 11.2012965,52.8002993 L11.2012965,52.8002993 C12.9009003,52.8002993 14.1293793,52.4726413 14.8870453,51.8379012 C15.6447113,51.2031612 16.013255,50.0362497 16.013255,48.3571192 L16.013255,44.6191365 C16.013255,44.3201602 15.7713008,44.077924 15.4722877,44.077924 L13.5238701,44.077924 C13.2251689,44.077924 12.9829029,44.3201602 12.9829029,44.6191365 L12.9829029,47.9886208 Z" id="Fill-22" fill="#154F9C"></path>
                    <path d="M12.9828093,41.1891399 C12.9828093,41.6190547 13.1262358,41.9878648 13.412777,42.274059 C13.9655925,42.8682704 15.0509569,42.8682704 15.5835056,42.274059 C15.8494682,41.9878648 15.9723161,41.6190547 15.9723161,41.1891399 C15.9723161,40.2881582 15.3992338,39.674306 14.4981413,39.674306 C13.5970488,39.674306 12.9828093,40.2881582 12.9828093,41.1891399" id="Fill-24" fill="#154F9C"></path>
                    <path d="M50.292808,41.1891399 C50.292808,41.6193664 50.4362345,41.9878648 50.7227757,42.2743707 C51.2755912,42.8682704 52.3609555,42.8682704 52.8935043,42.2743707 C53.1594669,41.9878648 53.2823148,41.6193664 53.2823148,41.1891399 C53.2823148,40.28847 52.7092324,39.674306 51.80814,39.674306 C50.9070475,39.674306 50.292808,40.28847 50.292808,41.1891399" id="Fill-26" fill="#154F9C"></path>
                    <path d="M65.6307737,50.1588643 L64.3817161,50.1588643 C64.0745964,49.646957 63.9311699,49.1353616 63.9311699,48.5823023 C63.9311699,47.2925579 64.6888359,46.5964015 65.8356242,46.5964015 C66.9004099,46.5964015 67.6169187,47.2719819 67.6169187,48.3163724 C67.6169187,49.5447003 66.9618338,50.1588643 65.6307737,50.1588643 L65.6307737,50.1588643 Z M55.8216495,50.1588643 L49.2075061,50.1588643 C50.2928704,47.9681383 51.9104717,46.5964015 53.4463822,46.5964015 C55.0025596,46.5964015 55.8624949,47.6816324 55.8624949,49.4832839 C55.8624949,49.6061167 55.8419163,49.8312062 55.8216495,50.1588643 L55.8216495,50.1588643 Z M34.0747649,51.6125935 L32.968822,51.6125935 C32.0268842,50.0566075 32.5800115,47.5587996 34.42273,47.6816324 C35.5080944,47.6816324 36.2043364,48.5823023 36.2043364,49.6266928 C36.2043364,50.7936043 35.5286729,51.6125935 34.0747649,51.6125935 L34.0747649,51.6125935 Z M24.2247953,50.1588643 L22.9757377,50.1588643 C21.7472587,50.1588643 21.0918621,49.5035482 21.0918621,48.3777888 C21.0918621,47.3951264 21.7266801,46.5964015 22.7094633,46.5964015 C23.7128251,46.5964015 24.2247953,47.2719819 24.2247953,48.6231426 L24.2247953,50.1588643 Z M65.9584721,43.8526162 C64.4839855,43.8526162 63.276085,44.2622667 62.3341472,45.0606799 C61.3716308,45.8594048 60.900506,46.9037953 60.900506,48.1729635 C60.900506,48.9305363 61.0439324,49.6061167 61.3304736,50.1588643 L59.9585681,50.1588643 L59.9585681,50.1588643 C59.9582563,50.1588643 59.9582563,50.1588643 59.9579445,50.1588643 L58.7908895,50.1588643 C58.8111563,49.7289495 58.8317348,49.4012915 58.8317348,49.2170423 C58.8317348,45.8388287 57.0501285,43.8526162 53.8763499,43.8526162 C52.7909855,43.8526162 51.6647759,44.1191696 50.1700225,44.9381588 C48.6752691,45.757148 47.0370892,47.5996399 45.8082984,50.1588643 C44.9075177,50.1386 44.7232459,49.8312062 44.7232459,48.9919527 L44.7232459,46.1134878 C44.7232459,45.8148233 44.4809798,45.5725871 44.1819668,45.5725871 L42.2335492,45.5725871 C41.934848,45.5725871 41.6925819,45.8148233 41.6925819,46.1134878 L41.6925819,48.3366367 C41.6925819,49.1556259 41.6105794,49.6675331 41.4671529,49.852094 C41.3240382,50.0566075 40.934916,50.1588643 40.3206765,50.1588643 L40.3206765,50.1588643 C40.3203647,50.1588643 40.3200529,50.1588643 40.3200529,50.1588643 L39.2144218,50.1588643 C39.2350003,50.0566075 39.2350003,49.9131987 39.2350003,49.6881091 C39.2350003,48.254956 38.8252995,47.1083087 37.985631,46.2279032 C37.1462742,45.3471858 35.999486,44.9175828 34.5867351,44.9175828 C33.0508246,44.9175828 31.8223455,45.3680736 30.9006745,46.2893195 C29.9587367,47.2105655 29.4879236,48.3983648 29.4879236,49.8109419 L29.4879236,50.1588643 L28.5254072,50.1588643 L28.5254072,50.1588643 C28.5254072,50.1588643 28.5250954,50.1588643 28.5250954,50.1588643 L27.2554593,50.1588643 L27.2554593,48.2141156 C27.2554593,46.9648999 26.8869156,45.9413972 26.1495164,45.101832 C25.3921622,44.2622667 24.2862193,43.8526162 22.7914659,43.8526162 C21.3989818,43.8526162 20.2521935,44.3034188 19.3514129,45.2040887 C18.4297418,46.1253347 17.9795074,47.2311415 17.9795074,48.562038 C17.9795074,49.8312062 18.4297418,50.8550207 19.3308343,51.6331695 C20.2113482,52.4113184 21.4195604,52.8003928 22.9551591,52.8003928 L24.1427928,52.8003928 C23.8980324,53.7612321 22.6290198,54.1674532 20.3525921,54.0343324 C20.0283235,54.0153151 19.7579958,54.2815568 19.777639,54.6054737 L19.8755431,56.2353464 C19.8920683,56.5100055 20.1137558,56.7282363 20.3887605,56.7438243 C20.7264363,56.7628415 21.0516403,56.7721943 21.3581364,56.7721943 C23.3442814,56.7721943 24.7776109,56.4242719 25.6581248,55.7278038 C26.5183719,55.0110713 27.0300302,54.0492968 27.1940353,52.8003928 L28.5250954,52.8003928 C28.5250954,52.8003928 28.5254072,52.8000811 28.5254072,52.8000811 L28.5254072,52.8003928 L30.4501283,52.8003928 C30.8598291,53.3528286 31.3717993,53.8238955 31.9654602,54.2538103 L34.0541863,54.2538103 C35.8560595,54.2538103 37.2076982,53.7624791 38.1084789,52.8003928 L40.3200529,52.8003928 C40.3203647,52.8003928 40.3206765,52.8000811 40.3206765,52.8000811 L40.3206765,52.8003928 C41.9588563,52.8003928 43.0644874,52.5952558 43.6584601,52.1859171 C44.3955476,52.5952558 45.3169068,52.8003928 46.4228497,52.8003928 L59.9579445,52.8003928 C59.9582563,52.8003928 59.9582563,52.8000811 59.9585681,52.8000811 L59.9585681,52.8003928 L65.2828086,52.8003928 C67.3918015,52.8003928 68.9071335,52.1859171 69.6442209,51.2032548 C70.3813083,50.2408567 70.6475827,49.2990347 70.6475827,48.1729635 C70.6475827,47.006052 70.2381936,46.0025019 69.4191037,45.1426723 C68.6000137,44.2828428 67.4532254,43.8526162 65.9584721,43.8526162 L65.9584721,43.8526162 Z" id="Fill-28" fill="#154F9C"></path>
                    <g id="Group-32" transform="translate(72.183618, 43.852710)">
                        <mask id="mask-4" fill="white">
                            <use xlink:href="#path-3"></use>
                        </mask>
                        <g id="Clip-31"></g>
                        <path d="M6.24559973,5.69208407 C5.73362955,5.7531887 5.28308332,5.79434081 4.89427283,5.79434081 C3.64490344,5.79434081 3.03066394,5.30300964 3.03066394,4.34061159 C3.03066394,3.41936565 3.72690598,2.74378529 4.6894224,2.74378529 C5.73362955,2.74378529 6.24559973,3.46020599 6.24559973,4.87309486 L6.24559973,5.69208407 Z M8.17032078,1.22863968 C7.43323337,0.40965048 6.30702369,0 4.8122703,0 C3.37894086,0 2.21157401,0.430226531 1.33106012,1.31032037 C0.450546234,2.19103773 0,3.23511646 0,4.48402044 C0,7.02298049 1.76102777,8.55839039 4.40256943,8.55839039 C5.07854468,8.55839039 5.6722056,8.496974 6.22502115,8.3741412 C6.24435255,9.73278412 4.81476467,10.3045489 2.30417763,10.1729869 C2.01545388,10.1577108 1.7769294,10.3977647 1.79439002,10.6858294 L1.89946551,12.431988 C1.91411995,12.6785888 2.11304625,12.8737496 2.35967744,12.8880904 C2.71387849,12.9089783 3.05186612,12.919578 3.35836228,12.919578 C5.32424048,12.919578 6.81899387,12.5099276 7.65835059,11.95718 C8.94856534,10.9947819 9.29653046,9.72561368 9.27626368,8.45613365 L9.27626368,4.36118764 C9.27626368,3.11228367 8.90771998,2.06820493 8.17032078,1.22863968 L8.17032078,1.22863968 Z" id="Fill-30" fill="#154F9C" mask="url(#mask-4)"></path>
                    </g>
                </g>
            </g>
        </g>
    </g>
</svg>