<?xml version="1.0" encoding="UTF-8"?>
<svg width="30px" height="30px" viewBox="0 0 30 30" version="1.1" xmlns="http://www.w3.org/2000/svg" xmlns:xlink="http://www.w3.org/1999/xlink">
    <!-- Generator: sketchtool 61.2 (101010) - https://sketch.com -->
    <title>49D204EA-EDE8-4A83-B1D4-61691E711F59@1</title>
    <desc>Created with sketchtool.</desc>
    <g id="Details-Page" stroke="none" stroke-width="1" fill="none" fill-rule="evenodd">
        <g id="Syarah.com---Car-Details" transform="translate(-1250.000000, -347.000000)" fill="#FFFFFF">
            <g id="next-" transform="translate(1250.000000, 347.000000)">
                <path d="M14.9877551,29.9755102 C23.2530612,29.9755102 29.9755102,23.2530612 29.9755102,14.9877551 C29.9755102,6.72244898 23.2530612,0 14.9877551,0 C6.72244898,0 0,6.72244898 0,14.9877551 C0,23.2530612 6.72244898,29.9755102 14.9877551,29.9755102 Z M14.9877551,1.2122449 C22.5857143,1.2122449 28.7632653,7.38979592 28.7632653,14.9877551 C28.7632653,22.5857143 22.5857143,28.7632653 14.9877551,28.7632653 C7.38979592,28.7632653 1.2122449,22.5857143 1.2122449,14.9877551 C1.2122449,7.38979592 7.38979592,1.2122449 14.9877551,1.2122449 Z" id="Shape" fill-rule="nonzero"></path>
                <path d="M12.8571429,19.9653061 C12.9734694,20.0816327 13.1326531,20.1428571 13.2857143,20.1428571 C13.4387755,20.1428571 13.5979592,20.0816327 13.7142857,19.9653061 L18.2632653,15.4163265 C18.3795918,15.3 18.4408163,15.1469388 18.4408163,14.9877551 C18.4408163,14.8285714 18.3795918,14.6755102 18.2632653,14.5591837 L13.7142857,10.0102041 C13.4755102,9.77142857 13.0959184,9.77142857 12.8571429,10.0102041 C12.6183673,10.2489796 12.6183673,10.6285714 12.8571429,10.8673469 L16.977551,14.9877551 L12.8571429,19.1081633 C12.6244898,19.3469388 12.6244898,19.7326531 12.8571429,19.9653061 Z" id="Path"></path>
            </g>
        </g>
    </g>
</svg>