<?xml version="1.0" encoding="UTF-8"?>
<svg width="30px" height="30px" viewBox="0 0 30 30" version="1.1" xmlns="http://www.w3.org/2000/svg" xmlns:xlink="http://www.w3.org/1999/xlink">
    <title>guarantee copy</title>
    <g id="Details-Page" stroke="none" stroke-width="1" fill="none" fill-rule="evenodd">
        <g id="Car-Details-Page---New-USPs" transform="translate(-352.000000, -950.000000)" fill-rule="nonzero">
            <g id="guarantee-copy" transform="translate(353.000000, 951.000000)">
                <ellipse id="Oval" fill="#3C56D4" cx="13.9554923" cy="13.9553962" rx="10.3871807" ry="10.3871092"></ellipse>
                <path d="M12.5652145,19.030864 L12.5652145,8.93974839 L8.48306603,8.93974839 L8.48306603,11.2234521 L9.99603013,11.2234521 L9.99603013,19.030864 L12.5652145,19.030864 Z M18.0175945,19.0165909 C19.4068572,19.0165909 20.4226365,18.5550924 21.0649326,17.6320955 C21.7072287,16.7090986 22.0283767,15.4578193 22.0283767,13.8782576 C22.0283767,12.3082113 21.7072287,11.0640686 21.0649326,10.1458294 C20.4226365,9.22759021 19.4068572,8.76847061 18.0175945,8.76847061 C16.6188164,8.76847061 15.6006582,9.22759021 14.9631198,10.1458294 C14.3255815,11.0640686 14.0068123,12.3082113 14.0068123,13.8782576 C14.0068123,15.4578193 14.3255815,16.7090986 14.9631198,17.6320955 C15.6006582,18.5550924 16.6188164,19.0165909 18.0175945,19.0165909 Z M18.0175945,16.7043409 C17.3800562,16.7043409 16.9518588,16.4593185 16.7330024,15.9692738 C16.5141459,15.479229 16.4047177,14.7822237 16.4047177,13.8782576 C16.4047177,12.983807 16.5141459,12.2939382 16.7330024,11.8086511 C16.9518588,11.3233641 17.3800562,11.0807206 18.0175945,11.0807206 C18.6456174,11.0807206 19.0666781,11.3209853 19.2807768,11.8015146 C19.4948755,12.2820439 19.6019249,12.9742916 19.6019249,13.8782576 C19.6019249,14.7822237 19.4948755,15.479229 19.2807768,15.9692738 C19.0666781,16.4593185 18.6456174,16.7043409 18.0175945,16.7043409 Z" id="10" fill="#FFFFFF"></path>
                <path d="M28,14 C28,6.28055301 21.7195001,0 14.0000963,0 C11.6019874,0 9.34348161,0.606965653 7.3685174,1.6736837 C4.32557531,0.157618382 2.12844087,-0.0586733465 1.01248348,1.05862517 C-0.203286721,2.27438701 0.263694671,4.66245966 1.645659,7.42270822 C0.597046355,9.38494147 0,11.6240667 0,14 C0,21.7193506 6.28059623,28 14.0000963,28 C16.3737338,28 18.6101767,27.4043066 20.5710747,26.3575317 C22.2032454,27.1722145 23.7454305,27.6906402 24.9820111,27.6906402 C25.7813808,27.6906402 26.4538648,27.4756973 26.9415602,26.9875235 C28.0583847,25.8707067 27.8425732,23.6740691 26.3264975,20.6315333 C27.3931265,18.6564863 28,16.397996 28,14 Z M1.65115063,1.69719158 C2.39001597,0.958331326 4.11467738,1.15795559 6.43686688,2.22785298 C4.73426833,3.32530469 3.2850556,4.78076979 2.19482218,6.48836649 C1.1114292,4.12091141 0.943886259,2.40435474 1.65115063,1.69719158 Z M14.0000963,27.096681 C6.7783115,27.096681 0.903228914,21.2216388 0.903228914,13.9999037 C0.903228914,11.9970133 1.35662574,10.0988487 2.16370293,8.39992292 C3.37716087,10.5713185 5.07523123,12.9056313 6.91743283,15.0462932 L5.33092931,15.3637458 L5.50839573,16.2493376 L8.00631744,15.7498916 L9.0003028,13.2647045 L8.16162464,12.9291392 L7.56862475,14.4117732 C5.34489925,11.8290862 3.7140773,9.44862469 2.66768058,7.44795029 C4.93610989,3.53928417 9.16457003,0.903222699 14.0000963,0.903222699 C21.2218812,0.903222699 27.0969638,6.77826485 27.0969638,14 C27.0969638,18.8353967 24.4608842,23.0638277 20.5525765,25.3322414 C19.0951745,24.5663086 17.4725418,23.5207862 15.7789997,22.2224577 L15.2293548,22.9391589 C16.6244219,24.0090563 18.1269131,25.0238451 19.591541,25.8402621 C17.8948194,26.6446361 15.999243,27.096681 14.0000963,27.096681 Z M26.3028931,26.3488607 C25.5463967,27.1053519 23.7905197,26.8600607 21.5086022,25.8069271 C23.2175595,24.7163158 24.673998,23.2661496 25.7723244,21.5631774 C26.8421328,23.8848692 27.0417584,25.6100005 26.3028931,26.3488607 Z" id="Shape" stroke="#F1B85B" stroke-width="0.70356" fill="#F1B85B"></path>
            </g>
        </g>
    </g>
</svg>