<?xml version="1.0" encoding="UTF-8"?>
<svg width="24px" height="24px" viewBox="0 0 24 24" version="1.1" xmlns="http://www.w3.org/2000/svg" xmlns:xlink="http://www.w3.org/1999/xlink">
    <title>Drivetrain</title>
    <g id="Details-Page-2.0" stroke="none" stroke-width="1" fill="none" fill-rule="evenodd">
        <g id="Car-Details-Page---Classified-" transform="translate(-358.000000, -1135.000000)">
            <g id="Drivetrain" transform="translate(358.000000, 1135.000000)">
                <rect id="Rectangle" x="0" y="0" width="24" height="24"></rect>
                <g id="car-chassis" transform="translate(4.000000, 3.000000)" fill="#484848" fill-rule="nonzero" stroke="#484848" stroke-width="0.3">
                    <path d="M13.493029,5.36092658 L14.191851,5.36092658 C14.8456936,5.36092658 15.377604,4.83223992 15.377604,4.18235993 L15.377604,1.17856665 C15.377604,0.528686658 14.8456936,0 14.191851,0 L13.493029,0 C12.8391394,0 12.3071821,0.528686658 12.3071821,1.17856665 L12.3071821,2.26048663 L9.35620411,2.26048663 C9.16769497,1.52763331 8.49784193,0.984153317 7.70258219,0.984153317 C6.90727549,0.984153317 6.2373755,1.52763331 6.04886636,2.26048663 L3.09770056,2.26048663 L3.09770056,1.17856665 C3.09770056,0.528686658 2.5657902,0 1.91204143,0 L1.21317254,0 C0.559282917,0 0.0272317069,0.528686658 0.0272317069,1.17856665 L0.0272317069,4.18235993 C0.0272317069,4.83223992 0.559282917,5.36092658 1.21321949,5.36092658 L1.91204143,5.36092658 C2.5657902,5.36092658 3.09770056,4.83223992 3.09770056,4.18235993 L3.09770056,3.10043995 L6.04886636,3.10043995 C6.20281941,3.69893994 6.67782489,4.17101993 7.28002122,4.32403993 L7.28002122,12.1643198 C6.73665476,12.3413731 6.34296879,12.8499464 6.34296879,13.4484931 L6.34296879,14.3576531 L3.09770056,14.3576531 L3.09770056,13.2757331 C3.09770056,12.6258531 2.5657902,12.0971665 1.91204143,12.0971665 L1.21317254,12.0971665 C0.559235966,12.0971665 0.0272317069,12.6258531 0.0272317069,13.2757331 L0.0272317069,16.2795264 C0.0272317069,16.9294064 0.559235966,17.458093 1.21317254,17.458093 L1.91199448,17.458093 C2.56574325,17.458093 3.09765361,16.9294064 3.09765361,16.2795264 L3.09765361,15.1976064 L6.34292184,15.1976064 L6.34292184,16.1068131 C6.34292184,16.851893 6.95286513,17.458093 7.70253523,17.458093 C8.45211144,17.458093 9.06196082,16.851893 9.06196082,16.1068131 L9.06196082,15.1976064 L12.3071352,15.1976064 L12.3071352,16.2795264 C12.3071352,16.9294064 12.8390925,17.458093 13.4929821,17.458093 L14.191804,17.458093 C14.8456467,17.458093 15.377604,16.9294064 15.377604,16.2795264 L15.377604,13.2757331 C15.377604,12.6258531 14.8456467,12.0971665 14.191804,12.0971665 L13.4929821,12.0971665 C12.8390925,12.0971665 12.3071352,12.6258531 12.3071352,13.2757331 L12.3071352,14.3576531 L9.06196082,14.3576531 L9.06196082,13.4484931 C9.06196082,12.8500398 8.66836875,12.3415131 8.1250962,12.1644131 L8.1250962,4.32408659 C8.72724558,4.1710666 9.20220411,3.69893994 9.35615716,3.10048661 L12.3071352,3.10048661 L12.3071352,4.1824066 C12.3071821,4.83223992 12.8391394,5.36092658 13.493029,5.36092658 Z M2.25257862,4.18235993 C2.25257862,4.36902659 2.09984631,4.52092659 1.91204143,4.52092659 L1.21317254,4.52092659 C1.02527376,4.52092659 0.872353644,4.36902659 0.872353644,4.18235993 L0.872353644,1.17856665 C0.872353644,0.991899983 1.02522681,0.839999986 1.21317254,0.839999986 L1.91199448,0.839999986 C2.09979935,0.839999986 2.25253167,0.991899983 2.25253167,1.17856665 L2.25253167,4.18235993 L2.25257862,4.18235993 Z M2.25257862,16.2796197 C2.25257862,16.4662864 2.09984631,16.6181864 1.91204143,16.6181864 L1.21317254,16.6181864 C1.02527376,16.6181864 0.872353644,16.4662864 0.872353644,16.2796197 L0.872353644,13.2758264 C0.872353644,13.0891598 1.02522681,12.9372598 1.21317254,12.9372598 L1.91199448,12.9372598 C2.09979935,12.9372598 2.25253167,13.0891598 2.25253167,13.2758264 L2.25253167,16.2796197 L2.25257862,16.2796197 Z M13.152304,13.2757798 C13.152304,13.0891131 13.3051303,12.9372131 13.493029,12.9372131 L14.191851,12.9372131 C14.3796559,12.9372131 14.5324821,13.0891131 14.5324821,13.2757798 L14.5324821,16.2795731 C14.5324821,16.4662397 14.3797028,16.6181397 14.191851,16.6181397 L13.493029,16.6181397 C13.3051772,16.6181397 13.152304,16.4662397 13.152304,16.2795731 L13.152304,13.2757798 Z M8.21688584,16.1069064 C8.21688584,16.3888197 7.98616755,16.6181397 7.70258219,16.6181397 L7.70248828,16.6181397 C7.41885597,16.6181397 7.18809073,16.3888197 7.18809073,16.1069064 L7.18809073,13.4484931 C7.18809073,13.1665798 7.41890292,12.9372131 7.70258219,12.9372131 C7.98616755,12.9372131 8.21688584,13.1665798 8.21688584,13.4484931 L8.21688584,16.1069064 Z M7.73249011,3.53527994 C7.72258341,3.53457994 7.7126767,3.53378661 7.70258219,3.53378661 C7.69248767,3.53378661 7.68258097,3.53457994 7.67267426,3.53527994 C7.21147244,3.51941327 6.84098037,3.14262661 6.84098037,2.68048662 C6.84098037,2.2083133 7.2274828,1.8241533 7.70262914,1.8241533 C8.17768157,1.8241533 8.56413705,2.20826663 8.56413705,2.68048662 C8.5640901,3.14262661 8.19359803,3.51941327 7.73249011,3.53527994 Z M13.152304,1.17856665 C13.152304,0.991899983 13.3051303,0.839999986 13.493029,0.839999986 L14.191851,0.839999986 C14.3796559,0.839999986 14.5324821,0.991899983 14.5324821,1.17856665 L14.5324821,4.18235993 C14.5324821,4.36902659 14.3797028,4.52092659 14.191851,4.52092659 L13.493029,4.52092659 C13.3051772,4.52092659 13.152304,4.36902659 13.152304,4.18235993 L13.152304,1.17856665 Z" id="Shape"></path>
                </g>
            </g>
        </g>
    </g>
</svg>