<?xml version="1.0" encoding="UTF-8"?>
<svg width="24px" height="24px" viewBox="0 0 24 24" version="1.1" xmlns="http://www.w3.org/2000/svg" xmlns:xlink="http://www.w3.org/1999/xlink">
    <title>Exterior Color</title>
    <g id="Details-Page-2.0" stroke="none" stroke-width="1" fill="none" fill-rule="evenodd">
        <g id="Car-Details-Page---Classified-" transform="translate(-358.000000, -988.000000)">
            <g id="Exterior-Color" transform="translate(358.000000, 988.000000)">
                <rect id="Rectangle" x="0" y="0" width="24" height="24"></rect>
                <g id="paint-bucket" transform="translate(4.000000, 4.000000)" fill="#484848">
                    <path d="M10.0290741,0.16920624 C8.79994266,-0.154207855 7.73560686,-0.0106310392 6.99427057,0.571001571 L6.9903643,0.549758078 L4.58739951,1.00441799 C2.67430507,1.36629017 1.21653492,2.87970701 1.04258393,4.68455058 C0.991802456,5.21136518 1.03831144,5.72645923 1.17612946,6.21054261 L0.766581735,6.61734359 C0.0242688701,7.35976758 -0.187890292,8.51607372 0.169289047,9.87321648 C0.50303075,11.1414784 1.30357144,12.4568666 2.42344945,13.5769123 C3.5432054,14.696958 4.85839681,15.4976185 6.12659093,15.8314102 C7.2790619,16.1348016 8.53395029,16.0807162 9.38051165,15.235371 L11.4355745,13.2128425 L11.4355745,13.624405 C11.4355745,15.0441795 12.6639735,16.2062238 14.1332184,15.9674174 C15.285079,15.7800106 15.996752,14.6898768 15.996752,13.5241698 C15.996752,13.2670501 15.996752,7.71919797 15.996752,7.41580649 C16.0593744,5.77053339 15.2133013,3.9050115 13.7320935,2.42370411 C12.6122155,1.30365846 11.2971461,0.502997934 10.0290741,0.16920624 Z M1.97544943,4.7745303 C2.10972737,3.38198168 3.2554844,2.21041439 4.76159463,1.92545838 L5.66223339,1.75502196 L1.97605977,5.41610864 C1.95494152,5.20648162 1.95445324,4.99197103 1.97544943,4.7745303 Z M8.72193938,14.5685202 L8.71925383,14.5710841 C7.64161232,15.649009 5.06188894,14.890103 3.08617212,12.9140904 C2.08177315,11.9095411 1.36778069,10.7449329 1.07566514,9.63465434 C0.806865102,8.61325667 0.932476036,7.77706823 1.42808371,7.28138637 L1.57420252,7.1362224 C1.71006737,7.36538369 1.87010227,7.58221398 2.05345271,7.78414942 C2.75499389,8.55685151 3.73595529,9.02127856 4.77221481,9.07878251 C4.83959792,9.27302632 4.95068238,9.45554958 5.10559029,9.61035859 C5.65368845,10.1586609 6.5455381,10.1586609 7.09375832,9.61035859 C7.64185645,9.06217839 7.64185645,8.17019523 7.09375832,7.62201506 C6.5456602,7.07371277 5.65368845,7.07371277 5.10559029,7.62201506 C4.95434449,7.77316138 4.8450911,7.95067896 4.77734177,8.13979504 C4.00316838,8.08485492 3.27269638,7.73262779 2.74730342,7.15392532 C2.55223421,6.93917054 2.39171103,6.70170719 2.26768704,6.44751761 L6.00830427,2.73234543 C6.0036656,3.12217601 6.05908575,3.53996502 6.17688412,3.97838706 C6.50867272,5.21368488 7.30896925,6.5117365 8.43043421,7.63324723 L11.0196791,10.2228797 C11.2840846,10.4873248 11.4356966,10.8504179 11.4356966,11.2188829 L11.4356966,11.8978205 L8.72193938,14.5685202 Z M5.76819089,8.28483693 C5.95129718,8.10170324 6.24780731,8.10158116 6.43091356,8.28483693 C6.61365365,8.46748227 6.61365365,8.76489138 6.43103565,8.9476588 C6.2481735,9.13042622 5.95093099,9.13042622 5.76819089,8.9476588 C5.58508461,8.76440303 5.58508461,8.46797062 5.76819089,8.28483693 Z M15.0596141,13.5241698 C15.0596141,14.191509 14.6897394,14.9272181 13.9828271,15.042226 C13.0979354,15.1861691 12.3728346,14.4795172 12.3728346,13.6245271 L12.3728346,11.2188829 C12.3728346,10.6035537 12.1211244,9.9989683 11.6822797,9.56005787 C11.6822797,9.56005787 8.85072414,6.72136353 8.7369541,6.59426875 L13.7744521,6.59426875 C14.1166167,6.59426875 14.4197187,6.71647996 14.6512871,6.94771679 C14.9145939,7.21057468 15.059492,7.58526621 15.059492,8.00256686 L15.059492,13.5241698 L15.0596141,13.5241698 Z M13.7750625,5.65686844 C13.7739638,5.65686844 8.00257583,5.65686844 8.00257583,5.65686844 C6.87512941,3.99413658 6.59302366,2.27292403 7.43628916,1.42941024 C8.5141748,0.351607414 11.0936541,1.11051344 13.0694929,3.08652598 C13.9199606,3.93712095 14.5419116,4.9482631 14.8484315,5.93242359 C14.5268969,5.75258631 14.1595857,5.65686844 13.7750625,5.65686844 Z" id="Shape" fill-rule="nonzero"></path>
                    <path d="M13.7474744,10.343748 C14.0062916,10.343748 14.2161044,10.5535608 14.2161044,10.812378 L14.2161044,13.1558971 C14.2161044,13.4147143 14.0062916,13.6245271 13.7474744,13.6245271 C13.4886572,13.6245271 13.2788444,13.4147143 13.2788444,13.1558971 L13.2788444,10.812378 C13.2788444,10.5535608 13.4886572,10.343748 13.7474744,10.343748 Z" id="Path"></path>
                </g>
            </g>
        </g>
    </g>
</svg>