<?xml version="1.0" encoding="UTF-8"?>
<svg width="24px" height="24px" viewBox="0 0 24 24" version="1.1" xmlns="http://www.w3.org/2000/svg" xmlns:xlink="http://www.w3.org/1999/xlink">
    <title>Fuel Type</title>
    <g id="Details-Page-2.0" stroke="none" stroke-width="1" fill="none" fill-rule="evenodd">
        <g id="Car-Details-Page---Classified-" transform="translate(-358.000000, -1086.000000)">
            <g id="Fuel-Type" transform="translate(358.000000, 1086.000000)">
                <g id="49_fuel" transform="translate(4.000000, 3.000000)" fill="#484848">
                    <path d="M10.8561569,18.8987759 L0.579137255,18.8987759 C0.25945098,18.8987759 0,18.6281897 0,18.2943793 L0,5.97025862 C0,2.67834483 2.56501961,0 5.71764706,0 C8.86996078,0 11.4349804,2.67834483 11.4349804,5.97025862 L11.4349804,16.6417069 C11.4349804,16.9758448 11.1758431,17.246431 10.8558431,17.246431 C10.5358431,17.246431 10.2763922,16.9758448 10.2763922,16.6417069 L10.2763922,5.97025862 C10.2763922,3.34498276 8.23121569,1.20944828 5.71733333,1.20944828 C3.20345098,1.20944828 1.15827451,3.34498276 1.15827451,5.97025862 L1.15827451,17.6896552 L10.8558431,17.6896552 C11.1758431,17.6896552 11.4349804,17.9602414 11.4349804,18.2943793 C11.4349804,18.6285172 11.1758431,18.8987759 10.8561569,18.8987759 Z" id="Path"></path>
                    <path d="M7.50933333,7.09748276 L3.92564706,7.09748276 C3.08737255,7.09748276 2.40533333,6.38531034 2.40533333,5.51 C2.40533333,4.63468966 3.08737255,3.92251724 3.92564706,3.92251724 L7.50933333,3.92251724 C8.34760784,3.92251724 9.02964706,4.63468966 9.02964706,5.51 C9.02964706,6.38531034 8.34760784,7.09748276 7.50933333,7.09748276 Z M3.92564706,5.13196552 C3.72956863,5.13196552 3.56360784,5.30525862 3.56360784,5.51 C3.56360784,5.71474138 3.7292549,5.88803448 3.92564706,5.88803448 L7.50933333,5.88803448 C7.70541176,5.88803448 7.87137255,5.71474138 7.87137255,5.51 C7.87137255,5.30525862 7.70572549,5.13196552 7.50933333,5.13196552 L3.92564706,5.13196552 Z" id="Shape" fill-rule="nonzero"></path>
                    <path d="M5.71701961,15.4725517 C4.7027451,15.4725517 3.83560784,14.8783103 3.45380392,13.921431 C2.85082353,12.4102759 3.54321569,10.4002069 5.30572549,8.54541379 C5.52313725,8.31708621 5.91027451,8.31708621 6.128,8.54541379 C7.89113725,10.4002069 8.58384314,12.4099483 7.98117647,13.9211034 C7.59968627,14.8783103 6.73192157,15.4725517 5.71701961,15.4725517 Z M5.71733333,9.85772414 C4.41380392,11.4173621 4.22996078,12.7208276 4.52329412,13.4565862 C4.72752941,13.968931 5.16298039,14.263431 5.71701961,14.263431 C6.272,14.263431 6.70745098,13.9692586 6.912,13.4562586 C7.20533333,12.7205 7.02117647,11.4173621 5.71733333,9.85772414 Z" id="Shape" fill-rule="nonzero"></path>
                    <path d="M14.0476863,9.88818966 C14.0018824,9.88818966 13.9614118,9.88753448 13.9275294,9.88622414 C12.7403922,9.84887931 12.5091765,9.30606897 12.4768627,8.98536207 C12.2349804,6.57694828 13.139451,4.4365 13.1780392,4.34641379 C13.206902,4.27958621 13.2473725,4.21832759 13.2969412,4.16624138 L14.5088627,2.90077586 C14.7353725,2.66458621 15.1021176,2.66458621 15.328,2.90077586 C15.5538824,3.13696552 15.5541961,3.51991379 15.328,3.75610345 L14.1970196,4.93672414 C14.0451765,5.33375862 13.4939608,6.91174138 13.6103529,8.63975862 C13.8569412,8.69708621 14.3247059,8.68889655 14.5891765,8.62501724 C14.5863529,8.26925862 14.5345882,7.6212931 14.4702745,7.04441379 L14.0934902,6.57301724 C13.8883137,6.31684483 13.9206275,5.93553448 14.1662745,5.72096552 C14.4112941,5.50705172 14.7764706,5.54046552 14.9819608,5.7972931 L15.4698039,6.40627586 C15.5413333,6.49537931 15.5861961,6.60413793 15.6,6.71977586 C15.6492549,7.13515517 15.8032941,8.53001724 15.7223529,9.04137931 C15.6012549,9.80137931 14.5283137,9.88818966 14.0476863,9.88818966 Z" id="Path"></path>
                    <path d="M12.3093333,12.9655345 C12.0119216,12.9655345 11.7587451,12.7273793 11.7330196,12.4122414 C11.7057255,12.0794138 11.9422745,11.7865517 12.2610196,11.7580517 C12.2983529,11.7524828 13.4588235,11.5693621 13.4588235,9.28248276 C13.4588235,8.94834483 13.7179608,8.67775862 14.0379608,8.67775862 C14.3579608,8.67775862 14.617098,8.94834483 14.617098,9.28248276 C14.617098,12.0345345 13.1403922,12.8934655 12.3598431,12.9632414 C12.3425882,12.9645517 12.3259608,12.9655345 12.3093333,12.9655345 Z" id="Path"></path>
                </g>
                <rect id="Rectangle" x="0" y="0" width="24" height="24"></rect>
            </g>
        </g>
    </g>
</svg>