<?xml version="1.0" encoding="UTF-8"?>
<svg width="24px" height="24px" viewBox="0 0 24 24" version="1.1" xmlns="http://www.w3.org/2000/svg" xmlns:xlink="http://www.w3.org/1999/xlink">
    <title>Gear</title>
    <g id="Details-Page-2.0" stroke="none" stroke-width="1" fill="none" fill-rule="evenodd">
        <g id="Car-Details-Page---Classified-" transform="translate(-358.000000, -1184.000000)">
            <g id="Gear" transform="translate(358.000000, 1184.000000)">
                <g id="33_manual_transmission" transform="translate(4.000000, 3.000000)" fill="#484848">
                    <path d="M1.71863462,18.8981207 C0.770884615,18.8981207 0,18.1256724 0,17.176 C0,16.2266552 0.770884615,15.4542069 1.71863462,15.4542069 C2.66638462,15.4542069 3.43759615,16.2263276 3.43759615,17.176 C3.43759615,17.5101379 3.16723077,17.7807241 2.83409615,17.7807241 C2.50096154,17.7807241 2.23059615,17.5101379 2.23059615,17.176 C2.23059615,16.8936207 2.00076923,16.6636552 1.71863462,16.6636552 C1.4365,16.6636552 1.207,16.8936207 1.207,17.176 C1.207,17.4587069 1.4365,17.689 1.71863462,17.689 C2.05209615,17.689 2.32213462,17.9595862 2.32213462,18.2937241 C2.32213462,18.6278621 2.05209615,18.8981207 1.71863462,18.8981207 Z" id="Path"></path>
                    <path d="M8.27278846,18.8981207 C7.32503846,18.8981207 6.55415385,18.1256724 6.55415385,17.1756724 C6.55415385,16.2263276 7.32503846,15.4538793 8.27278846,15.4538793 C9.22086538,15.4538793 9.99175,16.226 9.99175,17.1756724 C9.99175,17.5098103 9.72138462,17.7803966 9.38792308,17.7803966 C9.05446154,17.7803966 8.78442308,17.5098103 8.78442308,17.1756724 C8.78442308,16.8932931 8.55459615,16.6633276 8.27246154,16.6633276 C7.99032692,16.6633276 7.76082692,16.8932931 7.76082692,17.1756724 C7.76082692,17.4583793 7.99032692,17.6886724 8.27246154,17.6886724 C8.60592308,17.6886724 8.87596154,17.9592586 8.87596154,18.2933966 C8.87596154,18.6275345 8.60625,18.8981207 8.27278846,18.8981207 Z" id="Path"></path>
                    <path d="M1.71863462,16.6633276 C1.38517308,16.6633276 1.11513462,16.3927414 1.11513462,16.0586034 L1.11513462,3.33482759 C0.464230769,3.08946552 0,2.45886207 0,1.7217931 C0,0.77212069 0.770884615,0 1.71863462,0 C2.66638462,0 3.43759615,0.77212069 3.43759615,1.7217931 C3.43759615,2.05593103 3.16723077,2.32651724 2.83409615,2.32651724 C2.50096154,2.32651724 2.23059615,2.05560345 2.23059615,1.7217931 C2.23059615,1.43941379 2.00076923,1.20944828 1.71863462,1.20944828 C1.4365,1.20944828 1.207,1.43941379 1.207,1.7217931 C1.207,2.0045 1.4365,2.2347931 1.71863462,2.2347931 C2.05209615,2.2347931 2.32213462,2.50537931 2.32213462,2.83951724 L2.32213462,16.058931 C2.32246154,16.3927414 2.05209615,16.6633276 1.71863462,16.6633276 Z" id="Path"></path>
                    <path d="M8.27278846,16.6633276 C7.93932692,16.6633276 7.66928846,16.3927414 7.66928846,16.0586034 L7.66928846,3.33482759 C7.01838462,3.08946552 6.55415385,2.45886207 6.55415385,1.7217931 C6.55415385,0.77212069 7.32503846,0 8.27278846,0 C9.22086538,0 9.99175,0.77212069 9.99175,1.7217931 C9.99175,2.05593103 9.72138462,2.32651724 9.38792308,2.32651724 C9.05446154,2.32651724 8.78442308,2.05593103 8.78442308,1.7217931 C8.78442308,1.43941379 8.55459615,1.20944828 8.27246154,1.20944828 C7.99032692,1.20944828 7.76082692,1.43941379 7.76082692,1.7217931 C7.76082692,2.0045 7.99032692,2.2347931 8.27246154,2.2347931 C8.60592308,2.2347931 8.87596154,2.50537931 8.87596154,2.83951724 L8.87596154,16.058931 C8.87628846,16.3927414 8.60625,16.6633276 8.27278846,16.6633276 Z" id="Path"></path>
                    <path d="M14.8272692,10.0532931 L1.71863462,10.0532931 C1.38517308,10.0532931 1.11513462,9.7827069 1.11513462,9.44856897 C1.11513462,9.11443103 1.3855,8.84384483 1.71863462,8.84384483 L14.2234423,8.84384483 L14.2234423,3.33482759 C13.5725385,3.08946552 13.1083077,2.45886207 13.1083077,1.7217931 C13.1083077,0.77212069 13.8791923,0 14.8272692,0 C15.7746923,0 16.5462308,0.77212069 16.5462308,1.7217931 C16.5462308,2.05593103 16.2761923,2.32651724 15.9427308,2.32651724 C15.6092692,2.32651724 15.3389038,2.05593103 15.3389038,1.7217931 C15.3389038,1.43941379 15.1094038,1.20944828 14.8272692,1.20944828 C14.5451346,1.20944828 14.3156346,1.43941379 14.3156346,1.7217931 C14.3156346,2.0045 14.5451346,2.2347931 14.8272692,2.2347931 C15.1607308,2.2347931 15.4307692,2.50537931 15.4307692,2.83951724 L15.4307692,9.44889655 C15.4304423,9.7827069 15.1604038,10.0532931 14.8272692,10.0532931 Z" id="Path"></path>
                    <path d="M16.0718654,18.8984483 C15.9476346,18.8984483 15.82275,18.8601207 15.7151923,18.7811724 L13.3721346,17.0577414 L13.3721346,18.2933966 C13.3721346,18.6275345 13.1017692,18.8981207 12.7683077,18.8981207 C12.4348462,18.8981207 12.1648077,18.6275345 12.1648077,18.2933966 L12.1648077,15.870569 C12.1648077,15.8656552 12.1648077,15.861069 12.1648077,15.8561552 L12.1648077,13.2128621 C12.1648077,12.8787241 12.4348462,12.6081379 12.7683077,12.6081379 L14.9282885,12.6081379 C16.2045962,12.6081379 16.8725,13.5728793 16.8725,14.5261552 C16.8725,15.0240862 16.69825,15.4931897 16.3814615,15.8479655 C16.0244615,16.2479483 15.50825,16.4680862 14.9282885,16.4680862 L14.6101923,16.4680862 L16.4288654,17.8059483 C16.6972692,18.0038103 16.7554615,18.3821724 16.5583269,18.6514483 C16.4406346,18.8129483 16.2575577,18.8984483 16.0718654,18.8984483 Z M13.3721346,15.2589655 L14.9286154,15.2589655 C15.6449038,15.2589655 15.6658269,14.6011724 15.6658269,14.5264828 C15.6658269,14.4082241 15.6305192,13.8175862 14.9286154,13.8175862 L13.3721346,13.8175862 L13.3721346,15.2589655 Z" id="Shape" fill-rule="nonzero"></path>
                </g>
                <rect id="Rectangle" x="0" y="0" width="24" height="24"></rect>
            </g>
        </g>
    </g>
</svg>