<?xml version="1.0" encoding="UTF-8"?>
<svg width="24px" height="24px" viewBox="0 0 24 24" version="1.1" xmlns="http://www.w3.org/2000/svg" xmlns:xlink="http://www.w3.org/1999/xlink">
    <title>Interior Color</title>
    <g id="Details-Page-2.0" stroke="none" stroke-width="1" fill="none" fill-rule="evenodd">
        <g id="Car-Details-Page---Classified-" transform="translate(-358.000000, -1037.000000)">
            <g id="Interior-Color" transform="translate(358.000000, 1037.000000)">
                <rect id="Rectangle" x="0" y="0" width="24" height="24"></rect>
                <g id="seat-(2)" transform="translate(2.616365, 0.921389)" fill="#484848" fill-rule="nonzero" stroke="#484848" stroke-width="0.3">
                    <path d="M10.2878347,17.31861 L9.56207471,17.31861 C9.02084045,17.3171185 8.48726905,17.1903985 8.00317193,16.9483243 C7.40444053,16.6509129 6.74502341,16.49601 6.07645201,16.4957529 L2.53816646,16.4957529 C2.15857219,16.4961129 1.78422363,16.58457 1.44458936,16.75413 L1.3528408,16.7997986 C0.14468085,17.40357 -0.345279128,18.8724213 0.258492273,20.0805813 C0.672955112,20.909867 1.52065222,21.4335126 2.44765218,21.432896 L10.2878347,21.432896 C11.4233775,21.4315584 12.3436403,20.5112955 12.3449774,19.3757527 C12.3436403,18.2402099 11.4234289,17.3199471 10.2878347,17.31861 Z M10.2878347,20.6100384 L2.44765218,20.6100384 C1.55192079,20.608907 0.826109391,19.8830956 0.824967487,18.9873642 C0.822766534,18.3719699 1.17083509,17.8089299 1.72230364,17.5358442 L1.81364078,17.4901757 C2.03910362,17.3778043 2.28750361,17.3190728 2.53940074,17.31861 L6.0776863,17.31861 C6.61892056,17.3201014 7.15249197,17.4468214 7.63658909,17.6888957 C8.23496049,17.9861014 8.89396617,18.1410042 9.56207471,18.1414671 L10.2878347,18.1414671 C10.9695204,18.1414671 11.5221203,18.6940671 11.5221203,19.3757527 C11.5221203,20.0574384 10.9695204,20.6100384 10.2878347,20.6100384 Z" id="Shape"></path>
                    <g id="Group-16" transform="translate(5.255291, 0.000000)">
                        <path d="M10.1521866,1.19939457 L10.0674323,1.11422886 C9.47487232,0.523880311 8.51644951,0.523880311 7.92388953,1.11422886 L7.43017527,1.61000026 C6.83884958,2.20168595 6.83884958,3.16062305 7.43017527,3.75230874 L7.51492955,3.83747445 C8.10733524,4.42828585 9.06606663,4.42828585 9.65847231,3.83747445 L10.1521866,3.34170304 C10.742638,2.74965735 10.742638,1.79144025 10.1521866,1.19939457 Z M9.56960375,2.75994307 L9.07588948,3.25365733 C8.80511807,3.52314303 8.36746094,3.52314303 8.09668953,3.25365733 L8.01193524,3.16849162 C7.74152383,2.89792592 7.74152383,2.45944594 8.01193524,2.18888024 L8.50564951,1.69516597 C8.77652378,1.42593741 9.21397519,1.42593741 9.48484946,1.69516597 L9.56960375,1.78033168 C9.83960373,2.05105167 9.83960373,2.48922308 9.56960375,2.75994307 Z" id="Shape" transform="translate(8.790853, 2.476025) rotate(-31.000000) translate(-8.790853, -2.476025) "></path>
                        <path d="M10.8480758,6.9199516 C10.1193844,6.1912602 8.93786446,6.1912602 8.20917306,6.9199516 L7.29456739,7.83414584 C4.2039161,7.92481441 1.73899621,10.44466 1.71641906,13.5365456 C1.71395049,13.5541342 1.71271621,13.571877 1.71271621,13.5896199 C1.70376764,14.4479627 2.22216761,15.2239684 3.01859044,15.5443169 C3.27943614,15.6526255 3.55900184,15.7085798 3.84144754,15.7088884 C4.39883037,15.7067798 4.93219606,15.4817284 5.32259033,15.0839284 L10.8480758,9.55885434 C11.5768186,8.83016294 11.5768186,7.648643 10.8480758,6.9199516 Z M10.2675501,8.97874008 L4.74206464,14.5038141 C4.23755038,15.008637 3.41927042,15.0088427 2.91449901,14.5043284 C2.68219616,14.2721798 2.54704188,13.9602656 2.53639617,13.631997 C2.53804189,13.6168256 2.53886474,13.6016027 2.53886474,13.5863284 C2.53613903,10.8659629 4.73918464,8.65849438 7.45955024,8.65576867 C7.46284167,8.65576867 7.46613309,8.65576867 7.46942452,8.65576867 C7.57840166,8.65561438 7.68285308,8.6122601 7.75989308,8.5352201 L8.79216732,7.50335729 C9.20529302,7.10998016 9.85442442,7.10998016 10.2675501,7.50335729 C10.6735272,7.91134013 10.6735272,8.57075724 10.2675501,8.97874008 Z" id="Shape" transform="translate(6.553618, 11.041161) rotate(-31.000000) translate(-6.553618, -11.041161) "></path>
                    </g>
                </g>
            </g>
        </g>
    </g>
</svg>