<?xml version="1.0" encoding="UTF-8"?>
<svg width="24px" height="24px" viewBox="0 0 24 24" version="1.1" xmlns="http://www.w3.org/2000/svg" xmlns:xlink="http://www.w3.org/1999/xlink">
    <title>Year</title>
    <g id="Details-Page-2.0" stroke="none" stroke-width="1" fill="none" fill-rule="evenodd">
        <g id="Car-Details-Page---Classified-" transform="translate(-358.000000, -841.000000)">
            <g id="Year" transform="translate(358.000000, 841.000000)">
                <g id="38_windshield" transform="translate(1.000000, 6.000000)" fill="#484848">
                    <path d="M11.1290169,12.9624444 C7.49267797,12.9624444 4.05918644,12.6601944 1.46094915,12.1116667 C0.802067797,11.973 0.344915254,11.3984722 0.374,10.7455833 C0.509355932,7.72958333 1.75776271,3.094 3.3320678,1.26280556 C3.50769492,1.05733333 3.74335593,0.907833333 4.01071186,0.833083333 C5.93142373,0.295388889 8.45918644,0 11.1297627,0 C13.800339,0 16.3281017,0.295388889 18.247322,0.832722222 C18.514678,0.907472222 18.7495932,1.05625 18.9270847,1.26352778 C20.5006441,3.09363889 21.7483051,7.72922222 21.8840339,10.7448611 C21.9131186,11.3984722 21.4559661,11.9726389 20.796339,12.1113056 C18.1995932,12.6601944 14.7661017,12.9624444 11.1290169,12.9624444 Z M11.1297627,1.33286111 C8.58484746,1.33286111 6.19244068,1.61019444 4.39291525,2.11322222 C3.05277966,3.67069444 1.87261017,8.06216667 1.7499322,10.8026389 C4.25905085,11.3374444 7.58850847,11.6292222 11.1290169,11.6292222 C14.6702712,11.6292222 17.9993559,11.3374444 20.5036271,10.8087778 C20.3857966,8.06288889 19.2056271,3.67069444 17.8684746,2.11611111 C16.0667119,1.61019444 13.674678,1.33286111 11.1297627,1.33286111 Z" id="Shape" fill-rule="nonzero"></path>
                    <path d="M6.17566102,8.86997222 C5.99928814,8.86997222 5.82328814,8.80497222 5.68867797,8.67497222 C5.41983051,8.41425 5.41983051,7.99247222 5.68867797,7.73211111 L11.2427458,2.35372222 C11.5115932,2.09336111 11.9478644,2.09336111 12.2167119,2.35372222 C12.4855593,2.61444444 12.4855593,3.03622222 12.2167119,3.29658333 L6.66264407,8.67497222 C6.5280339,8.80533333 6.3520339,8.86997222 6.17566102,8.86997222 Z" id="Path"></path>
                    <path d="M5.47837288,6.24722222 C5.302,6.24722222 5.126,6.18222222 4.99138983,6.05222222 C4.72254237,5.7915 4.72254237,5.36972222 4.99138983,5.10936111 L7.19250847,2.97772222 C7.46135593,2.71736111 7.89762712,2.71736111 8.16610169,2.97772222 C8.43494915,3.23844444 8.43494915,3.66022222 8.16610169,3.92058333 L5.96498305,6.05222222 C5.83074576,6.18222222 5.65474576,6.24722222 5.47837288,6.24722222 Z" id="Path"></path>
                </g>
                <rect id="Rectangle" x="0" y="0" width="24" height="24"></rect>
            </g>
        </g>
    </g>
</svg>