<?xml version="1.0" encoding="UTF-8"?>
<svg width="20px" height="20px" viewBox="0 0 20 20" version="1.1" xmlns="http://www.w3.org/2000/svg" xmlns:xlink="http://www.w3.org/1999/xlink">
    <title>023-gearshift</title>
    <g id="Details-Page-2.0" stroke="none" stroke-width="1" fill="none" fill-rule="evenodd">
        <g id="Car-Details-Page---Cash-Only" transform="translate(-360.000000, -2905.000000)" fill="#484848" fill-rule="nonzero">
            <g id="023-gearshift" transform="translate(370.000000, 2915.000000) scale(-1, 1) translate(-370.000000, -2915.000000) translate(360.000000, 2905.000000)">
                <path d="M17.0703125,0 C15.4548828,0 14.140625,1.31425781 14.140625,2.9296875 C14.140625,4.34449219 15.14875,5.52820312 16.484375,5.80042969 L16.484375,8.828125 C16.484375,9.15121094 16.2215234,9.4140625 15.8984375,9.4140625 L10.5859375,9.4140625 L10.5859375,5.80042969 C11.9215625,5.52824219 12.9296875,4.34453125 12.9296875,2.9296875 C12.9296875,1.31425781 11.6154297,0 10,0 C8.38457031,0 7.0703125,1.31425781 7.0703125,2.9296875 C7.0703125,4.34449219 8.0784375,5.52820312 9.4140625,5.80042969 L9.4140625,9.4140625 L3.515625,9.4140625 L3.515625,5.80042969 C4.85125,5.52824219 5.859375,4.34453125 5.859375,2.9296875 C5.859375,1.31425781 4.54511719,0 2.9296875,0 C1.31425781,0 0,1.31425781 0,2.9296875 C0,4.34449219 1.008125,5.52820312 2.34375,5.80042969 L2.34375,14.1996094 C1.008125,14.4717969 0,15.6555078 0,17.0703125 C0,18.6857422 1.31425781,20 2.9296875,20 C4.54511719,20 5.859375,18.6857422 5.859375,17.0703125 C5.859375,15.6555078 4.85125,14.4717969 3.515625,14.1995703 L3.515625,10.5859375 L9.4140625,10.5859375 L9.4140625,14.1995703 C8.0784375,14.4717578 7.0703125,15.6554688 7.0703125,17.0703125 C7.0703125,18.6857422 8.38457031,20 10,20 C11.6154297,20 12.9296875,18.6857422 12.9296875,17.0703125 C12.9296875,15.6555078 11.9215625,14.4717969 10.5859375,14.1995703 L10.5859375,10.5859375 L15.8984375,10.5859375 C16.8676953,10.5859375 17.65625,9.79738281 17.65625,8.828125 L17.65625,5.80042969 C18.991875,5.52824219 20,4.34453125 20,2.9296875 C20,1.31425781 18.6857422,0 17.0703125,0 Z M4.6875,17.0703125 C4.6875,18.0395703 3.89894531,18.828125 2.9296875,18.828125 C1.96042969,18.828125 1.171875,18.0395703 1.171875,17.0703125 C1.171875,16.1010547 1.96042969,15.3125 2.9296875,15.3125 C3.89894531,15.3125 4.6875,16.1010547 4.6875,17.0703125 Z M2.9296875,4.6875 C1.96042969,4.6875 1.171875,3.89894531 1.171875,2.9296875 C1.171875,1.96042969 1.96042969,1.171875 2.9296875,1.171875 C3.89894531,1.171875 4.6875,1.96042969 4.6875,2.9296875 C4.6875,3.89894531 3.89894531,4.6875 2.9296875,4.6875 Z M11.7578125,17.0703125 C11.7578125,18.0395703 10.9692578,18.828125 10,18.828125 C9.03074219,18.828125 8.2421875,18.0395703 8.2421875,17.0703125 C8.2421875,16.1010547 9.03074219,15.3125 10,15.3125 C10.9692578,15.3125 11.7578125,16.1010547 11.7578125,17.0703125 Z M10,4.6875 C9.03074219,4.6875 8.2421875,3.89894531 8.2421875,2.9296875 C8.2421875,1.96042969 9.03074219,1.171875 10,1.171875 C10.9692578,1.171875 11.7578125,1.96042969 11.7578125,2.9296875 C11.7578125,3.89894531 10.9692578,4.6875 10,4.6875 Z M17.0703125,4.6875 C16.1010547,4.6875 15.3125,3.89894531 15.3125,2.9296875 C15.3125,1.96042969 16.1010547,1.171875 17.0703125,1.171875 C18.0395703,1.171875 18.828125,1.96042969 18.828125,2.9296875 C18.828125,3.89894531 18.0395703,4.6875 17.0703125,4.6875 Z" id="Shape"></path>
            </g>
        </g>
    </g>
</svg>