<?xml version="1.0" encoding="UTF-8"?>
<svg width="21px" height="15px" viewBox="0 0 21 15" version="1.1" xmlns="http://www.w3.org/2000/svg" xmlns:xlink="http://www.w3.org/1999/xlink">
    <title>malfunction-indicador</title>
    <g id="Details-Page-2.0" stroke="none" stroke-width="1" fill="none" fill-rule="evenodd">
        <g id="Car-Details-Page---Cash-Only" transform="translate(-359.000000, -2849.000000)" fill="#484848" fill-rule="nonzero">
            <g id="malfunction-indicador" transform="translate(359.000000, 2849.000000)">
                <path d="M20.9418126,6.74987419 L19.925625,4.55368143 C19.8165237,4.31785448 19.5719549,4.16575564 19.3018383,4.16575564 L17.6176779,4.16575564 C17.2410966,4.16575564 16.9357948,4.45702535 16.9357948,4.81649227 L16.9357948,5.8423135 L16.4119267,5.8423135 L16.4119267,4.9982647 C16.4119267,4.63879779 16.1066249,4.34752807 15.7300436,4.34752807 L13.9145979,4.34752807 L13.9145979,2.57188471 C13.9145979,2.21241779 13.6092961,1.92114807 13.2327148,1.92114807 L9.87830443,1.92114807 L9.87830443,1.30147327 L13.2327148,1.30147327 C13.6092961,1.30147327 13.9145979,1.01011679 13.9145979,0.650736634 C13.9145979,0.291269717 13.6092961,0 13.2327148,0 L5.16030964,0 C4.78372832,0 4.47842652,0.291269717 4.47842652,0.650736634 C4.47842652,1.01011679 4.78372832,1.30147327 5.16030964,1.30147327 L8.51472002,1.30147327 L8.51472002,1.92114807 L5.16030964,1.92114807 C4.78372832,1.92114807 4.47842652,2.21241779 4.47842652,2.57188471 L4.47842652,3.112777 L2.98246586,3.112777 C2.60588454,3.112777 2.30058274,3.40404671 2.30058274,3.76351363 L2.30058274,7.25553994 L1.36376625,7.25553994 L1.36376625,3.76351363 C1.36376625,3.40404671 1.05846444,3.112777 0.681883123,3.112777 C0.305301804,3.112777 0,3.40413348 0,3.76351363 L0,12.049213 C0,12.40868 0.305301804,12.6999497 0.681883123,12.6999497 C1.05846444,12.6999497 1.36376625,12.40868 1.36376625,12.049213 L1.36376625,8.55701321 L2.30058274,8.55701321 L2.30058274,12.049213 C2.30058274,12.40868 2.60588454,12.6999497 2.98246586,12.6999497 L5.63171817,12.6999497 L8.32361091,14.8484217 C8.44634987,14.9463793 8.60109188,15 8.76110712,15 L15.7301345,15 C16.1067158,15 16.4120176,14.7087303 16.4120176,14.3492634 L16.4120176,12.5753553 L16.9358857,12.5753553 L16.9358857,13.6011765 C16.9358857,13.9606434 17.2411875,14.2519132 17.6177688,14.2519132 L19.3019292,14.2519132 C19.5720458,14.2519132 19.8166146,14.0998143 19.9257159,13.8639874 L20.9419036,11.6677946 C20.9801799,11.5850209 21,11.4954795 21,11.4049838 L21,7.01268503 C21,6.92227602 20.9801799,6.83264789 20.9418126,6.74987419 Z M19.6362338,11.2678085 L18.8577051,12.9505267 L18.2996519,12.9505267 L18.2996519,11.9247054 C18.2996519,11.5652385 17.9943501,11.2739688 17.6177688,11.2739688 L15.7301345,11.2739688 C15.3535532,11.2739688 15.0482513,11.5652385 15.0482513,11.9247054 L15.0482513,13.6986135 L9.00858523,13.6986135 L6.3166925,11.5501414 C6.19395354,11.4521839 6.03921153,11.3985632 5.87919629,11.3985632 L3.66434899,11.3985632 L3.66434899,4.41425026 L5.16030964,4.41425026 C5.53689096,4.41425026 5.84219276,4.12298055 5.84219276,3.76351363 L5.84219276,3.22262134 L12.5509226,3.22262134 L12.5509226,4.99843823 C12.5509226,5.35790515 12.8562244,5.64917487 13.2328057,5.64917487 L15.0482513,5.64917487 L15.0482513,6.49322366 C15.0482513,6.85269058 15.3535532,7.1439603 15.7301345,7.1439603 L17.6177688,7.1439603 C17.9943501,7.1439603 18.2996519,6.85269058 18.2996519,6.49322366 L18.2996519,5.46731567 L18.8577051,5.46731567 L19.6362338,7.15003384 L19.6362338,11.2678085 Z" id="Shape"></path>
            </g>
        </g>
    </g>
</svg>